<?xml version="1.0" encoding="UTF-8"?>
<svg width="411px" height="243px" viewBox="0 0 411 243" version="1.1" xmlns="http://www.w3.org/2000/svg" xmlns:xlink="http://www.w3.org/1999/xlink">
    <!-- Generator: Sketch 54.1 (76490) - https://sketchapp.com -->
    <title>Untitled 7</title>
    <desc>Created with Sketch.</desc>
    <g id="Page-1" stroke="none" stroke-width="1" fill="none" fill-rule="evenodd" fill-opacity="0.05">
        <path d="M355.105,34.905 C340.306,34.905 332.768,28.006 326.117,21.919 C320.112,16.422 315.368,12.08 305.231,12.08 C295.094,12.08 290.35,16.422 284.344,21.919 C277.694,28.006 270.156,34.905 255.356,34.905 C240.556,34.905 233.019,28.006 226.368,21.919 C220.363,16.422 215.62,12.08 205.483,12.08 C195.347,12.08 190.604,16.422 184.599,21.919 C177.949,28.006 170.411,34.905 155.611,34.905 C140.813,34.905 133.277,28.006 126.627,21.919 C120.623,16.422 115.88,12.08 105.745,12.08 C95.609,12.08 90.866,16.422 84.861,21.919 C78.211,28.006 70.673,34.905 55.874,34.905 C41.074,34.905 33.536,28.006 26.885,21.919 C20.88,16.422 16.137,12.08 6,12.08 C2.687,12.08 0,9.394 0,6.08 C0,2.767 2.687,0.08 6,0.08 C20.799,0.08 28.337,6.979 34.988,13.066 C40.993,18.563 45.737,22.905 55.874,22.905 C66.01,22.905 70.753,18.563 76.758,13.067 C83.408,6.979 90.946,0.08 105.745,0.08 C120.543,0.08 128.08,6.98 134.73,13.067 C140.734,18.564 145.476,22.905 155.611,22.905 C165.748,22.905 170.491,18.563 176.496,13.067 C183.146,6.979 190.684,0.08 205.483,0.08 C220.283,0.08 227.82,6.979 234.471,13.067 C240.476,18.563 245.22,22.905 255.356,22.905 C265.494,22.905 270.237,18.563 276.242,13.067 C282.893,6.979 290.431,0.08 305.231,0.08 C320.031,0.08 327.569,6.979 334.22,13.067 C340.225,18.563 344.968,22.905 355.105,22.905 C365.244,22.905 369.988,18.563 375.995,13.066 C382.646,6.979 390.185,0.08 404.986,0.08 C408.299,0.08 410.986,2.767 410.986,6.08 C410.986,9.394 408.299,12.08 404.986,12.08 C394.847,12.08 390.103,16.422 384.096,21.919 C377.445,28.006 369.907,34.905 355.105,34.905 Z" id="Path" fill="#000000" fill-rule="nonzero"></path>
        <path d="M355.105,86.905 C340.306,86.905 332.768,80.006 326.117,73.919 C320.112,68.422 315.368,64.08 305.231,64.08 C295.094,64.08 290.35,68.422 284.344,73.919 C277.694,80.006 270.156,86.905 255.356,86.905 C240.556,86.905 233.019,80.006 226.368,73.919 C220.363,68.422 215.62,64.08 205.483,64.08 C195.347,64.08 190.604,68.422 184.599,73.919 C177.949,80.006 170.411,86.905 155.611,86.905 C140.813,86.905 133.277,80.006 126.627,73.919 C120.623,68.422 115.88,64.08 105.745,64.08 C95.609,64.08 90.866,68.422 84.861,73.919 C78.211,80.006 70.673,86.905 55.874,86.905 C41.074,86.905 33.536,80.006 26.885,73.919 C20.88,68.422 16.137,64.08 6,64.08 C2.687,64.08 0,61.394 0,58.08 C0,54.767 2.687,52.08 6,52.08 C20.799,52.08 28.337,58.979 34.988,65.066 C40.993,70.563 45.737,74.905 55.874,74.905 C66.01,74.905 70.753,70.563 76.758,65.067 C83.408,58.979 90.946,52.08 105.745,52.08 C120.543,52.08 128.08,58.98 134.73,65.067 C140.734,70.564 145.476,74.905 155.611,74.905 C165.748,74.905 170.491,70.563 176.496,65.067 C183.146,58.979 190.684,52.08 205.483,52.08 C220.283,52.08 227.82,58.979 234.471,65.067 C240.476,70.563 245.22,74.905 255.356,74.905 C265.494,74.905 270.237,70.563 276.242,65.067 C282.893,58.979 290.431,52.08 305.231,52.08 C320.031,52.08 327.569,58.979 334.22,65.067 C340.225,70.563 344.968,74.905 355.105,74.905 C365.244,74.905 369.988,70.563 375.995,65.066 C382.646,58.979 390.185,52.08 404.986,52.08 C408.299,52.08 410.986,54.767 410.986,58.08 C410.986,61.394 408.299,64.08 404.986,64.08 C394.847,64.08 390.103,68.422 384.096,73.919 C377.445,80.006 369.907,86.905 355.105,86.905 Z" id="Path" fill="#000000" fill-rule="nonzero"></path>
        <path d="M355.105,138.906 C340.306,138.906 332.768,132.007 326.117,125.92 C320.112,120.423 315.368,116.081 305.231,116.081 C295.094,116.081 290.35,120.423 284.344,125.919 C277.694,132.007 270.156,138.906 255.356,138.906 C240.556,138.906 233.019,132.007 226.368,125.919 C220.363,120.423 215.62,116.081 205.483,116.081 C195.347,116.081 190.604,120.423 184.599,125.919 C177.949,132.007 170.411,138.906 155.611,138.906 C140.813,138.906 133.277,132.007 126.627,125.919 C120.623,120.423 115.88,116.081 105.745,116.081 C95.609,116.081 90.866,120.423 84.861,125.919 C78.211,132.007 70.673,138.906 55.874,138.906 C41.074,138.906 33.536,132.007 26.885,125.919 C20.88,120.423 16.136,116.081 6,116.081 C2.687,116.081 -2.84217094e-14,113.394 -2.84217094e-14,110.081 C-2.84217094e-14,106.767 2.687,104.081 6,104.081 C20.799,104.081 28.337,110.98 34.988,117.067 C40.993,122.564 45.737,126.906 55.874,126.906 C66.01,126.906 70.753,122.564 76.758,117.067 C83.408,110.98 90.946,104.081 105.745,104.081 C120.543,104.081 128.08,110.98 134.73,117.068 C140.734,122.564 145.476,126.906 155.611,126.906 C165.748,126.906 170.491,122.564 176.496,117.067 C183.146,110.98 190.684,104.081 205.483,104.081 C220.283,104.081 227.82,110.98 234.471,117.067 C240.476,122.564 245.22,126.906 255.356,126.906 C265.494,126.906 270.237,122.564 276.242,117.067 C282.893,110.98 290.431,104.081 305.231,104.081 C320.031,104.081 327.569,110.98 334.22,117.067 C340.225,122.564 344.968,126.906 355.105,126.906 C365.244,126.906 369.988,122.564 375.995,117.067 C382.646,110.98 390.185,104.081 404.986,104.081 C408.299,104.081 410.986,106.767 410.986,110.081 C410.986,113.394 408.299,116.081 404.986,116.081 C394.847,116.081 390.103,120.423 384.096,125.92 C377.445,132.007 369.907,138.906 355.105,138.906 Z" id="Path" fill="#000000" fill-rule="nonzero"></path>
        <path d="M355.105,190.906 C340.306,190.906 332.768,184.007 326.117,177.92 C320.112,172.423 315.368,168.081 305.231,168.081 C295.094,168.081 290.35,172.423 284.344,177.919 C277.694,184.007 270.156,190.906 255.356,190.906 C240.556,190.906 233.019,184.007 226.368,177.919 C220.363,172.423 215.62,168.081 205.483,168.081 C195.347,168.081 190.604,172.423 184.599,177.919 C177.949,184.007 170.411,190.906 155.611,190.906 C140.813,190.906 133.277,184.007 126.627,177.919 C120.623,172.423 115.88,168.081 105.745,168.081 C95.609,168.081 90.866,172.423 84.861,177.919 C78.211,184.007 70.673,190.906 55.874,190.906 C41.074,190.906 33.536,184.007 26.885,177.919 C20.88,172.423 16.136,168.081 6,168.081 C2.687,168.081 -2.84217094e-14,165.394 -2.84217094e-14,162.081 C-2.84217094e-14,158.767 2.687,156.081 6,156.081 C20.799,156.081 28.337,162.98 34.988,169.067 C40.993,174.564 45.737,178.906 55.874,178.906 C66.01,178.906 70.753,174.564 76.758,169.067 C83.408,162.98 90.946,156.081 105.745,156.081 C120.543,156.081 128.08,162.98 134.73,169.068 C140.734,174.564 145.476,178.906 155.611,178.906 C165.748,178.906 170.491,174.564 176.496,169.067 C183.146,162.98 190.684,156.081 205.483,156.081 C220.283,156.081 227.82,162.98 234.471,169.067 C240.476,174.564 245.22,178.906 255.356,178.906 C265.494,178.906 270.237,174.564 276.242,169.067 C282.893,162.98 290.431,156.081 305.231,156.081 C320.031,156.081 327.569,162.98 334.22,169.067 C340.225,174.564 344.968,178.906 355.105,178.906 C365.244,178.906 369.988,174.564 375.995,169.067 C382.646,162.98 390.185,156.081 404.986,156.081 C408.299,156.081 410.986,158.767 410.986,162.081 C410.986,165.394 408.299,168.081 404.986,168.081 C394.847,168.081 390.103,172.423 384.096,177.92 C377.445,184.007 369.907,190.906 355.105,190.906 Z" id="Path" fill="#000000" fill-rule="nonzero"></path>
        <path d="M355.105,242.906 C340.306,242.906 332.768,236.007 326.117,229.92 C320.112,224.423 315.368,220.081 305.231,220.081 C295.094,220.081 290.35,224.423 284.344,229.919 C277.694,236.007 270.156,242.906 255.356,242.906 C240.556,242.906 233.019,236.007 226.368,229.919 C220.363,224.423 215.62,220.081 205.483,220.081 C195.347,220.081 190.604,224.423 184.599,229.919 C177.949,236.007 170.411,242.906 155.611,242.906 C140.813,242.906 133.277,236.007 126.627,229.919 C120.623,224.423 115.88,220.081 105.745,220.081 C95.609,220.081 90.866,224.423 84.861,229.919 C78.211,236.007 70.673,242.906 55.874,242.906 C41.074,242.906 33.536,236.007 26.885,229.919 C20.88,224.423 16.136,220.081 6,220.081 C2.687,220.081 -2.84217094e-14,217.394 -2.84217094e-14,214.081 C-2.84217094e-14,210.766 2.687,208.081 6,208.081 C20.799,208.081 28.337,214.98 34.988,221.067 C40.993,226.564 45.737,230.906 55.874,230.906 C66.01,230.906 70.753,226.564 76.758,221.067 C83.408,214.98 90.946,208.081 105.745,208.081 C120.543,208.081 128.08,214.98 134.73,221.068 C140.734,226.564 145.476,230.906 155.611,230.906 C165.748,230.906 170.491,226.564 176.496,221.067 C183.146,214.98 190.684,208.081 205.483,208.081 C220.283,208.081 227.82,214.98 234.471,221.067 C240.476,226.564 245.22,230.906 255.356,230.906 C265.494,230.906 270.237,226.564 276.242,221.067 C282.893,214.98 290.431,208.081 305.231,208.081 C320.031,208.081 327.569,214.98 334.22,221.067 C340.225,226.564 344.968,230.906 355.105,230.906 C365.244,230.906 369.988,226.564 375.995,221.067 C382.646,214.98 390.185,208.081 404.986,208.081 C408.299,208.081 410.986,210.766 410.986,214.081 C410.986,217.394 408.299,220.081 404.986,220.081 C394.847,220.081 390.103,224.423 384.096,229.92 C377.445,236.007 369.907,242.906 355.105,242.906 Z" id="Path" fill="#000000" fill-rule="nonzero"></path>
    </g>
</svg>