<svg width="3267" height="4096" viewBox="0 0 3267 4096" fill="none" xmlns="http://www.w3.org/2000/svg">
<path d="M157.76 3880.18C157.76 3896.3 158.193 3910.25 159.06 3922.04C160.1 3933.65 161.833 3943.27 164.26 3950.9C166.86 3958.35 170.413 3963.9 174.92 3967.54C179.427 3971.18 185.32 3973 192.6 3973C199.88 3973 205.773 3971.18 210.28 3967.54C214.787 3963.9 218.253 3958.35 220.68 3950.9C223.28 3943.27 225.013 3933.65 225.88 3922.04C226.92 3910.25 227.44 3896.3 227.44 3880.18C227.44 3864.06 226.92 3850.19 225.88 3838.58C225.013 3826.97 223.28 3817.43 220.68 3809.98C218.253 3802.35 214.787 3796.72 210.28 3793.08C205.773 3789.44 199.88 3787.62 192.6 3787.62C185.32 3787.62 179.427 3789.44 174.92 3793.08C170.413 3796.72 166.86 3802.35 164.26 3809.98C161.833 3817.43 160.1 3826.97 159.06 3838.58C158.193 3850.19 157.76 3864.06 157.76 3880.18ZM131.76 3880.18C131.76 3869.78 132.54 3858.95 134.1 3847.68C135.833 3836.24 138.953 3825.84 143.46 3816.48C147.967 3806.95 154.12 3799.15 161.92 3793.08C169.893 3787.01 180.12 3783.98 192.6 3783.98C205.08 3783.98 215.22 3787.01 223.02 3793.08C230.993 3799.15 237.233 3806.95 241.74 3816.48C246.247 3825.84 249.28 3836.24 250.84 3847.68C252.573 3858.95 253.44 3869.78 253.44 3880.18C253.44 3890.75 252.573 3901.76 250.84 3913.2C249.28 3924.47 246.247 3934.87 241.74 3944.4C237.233 3953.76 230.993 3961.47 223.02 3967.54C215.22 3973.61 205.08 3976.64 192.6 3976.64C180.12 3976.64 169.893 3973.61 161.92 3967.54C154.12 3961.47 147.967 3953.76 143.46 3944.4C138.953 3934.87 135.833 3924.47 134.1 3913.2C132.54 3901.76 131.76 3890.75 131.76 3880.18ZM264.758 3876.28C266.145 3875.59 267.531 3874.89 268.918 3874.2C270.305 3873.51 271.865 3872.81 273.598 3872.12C275.505 3871.43 277.671 3870.73 280.098 3870.04C282.698 3869.17 285.731 3868.31 289.198 3867.44C296.825 3865.36 303.151 3862.76 308.178 3859.64C313.205 3856.52 317.105 3852.88 319.878 3848.72C322.825 3844.56 324.818 3839.97 325.858 3834.94C327.071 3829.91 327.678 3824.45 327.678 3818.56C327.678 3814.4 327.245 3810.5 326.378 3806.86C325.511 3803.05 324.038 3799.75 321.958 3796.98C319.878 3794.03 317.105 3791.78 313.638 3790.22C310.345 3788.49 306.098 3787.62 300.898 3787.62C295.178 3787.62 290.498 3788.4 286.858 3789.96C283.218 3791.35 280.358 3793.08 278.278 3795.16C276.371 3797.07 275.071 3799.06 274.378 3801.14C273.685 3803.05 273.338 3804.61 273.338 3805.82C273.338 3810.5 274.031 3814.05 275.418 3816.48C276.978 3818.91 277.758 3821.07 277.758 3822.98C277.758 3826.1 276.631 3828.27 274.378 3829.48C272.298 3830.69 269.785 3831.3 266.838 3831.3C259.211 3831.3 255.398 3827.57 255.398 3820.12C255.398 3817.87 256.091 3814.75 257.478 3810.76C259.038 3806.6 261.638 3802.53 265.278 3798.54C268.918 3794.55 273.771 3791.17 279.838 3788.4C286.078 3785.45 293.791 3783.98 302.978 3783.98C311.298 3783.98 318.491 3785.28 324.558 3787.88C330.798 3790.48 335.911 3793.77 339.898 3797.76C343.885 3801.57 346.831 3805.82 348.738 3810.5C350.645 3815.01 351.598 3819.34 351.598 3823.5C351.598 3830.78 349.431 3837.02 345.098 3842.22C340.938 3847.42 335.998 3851.75 330.278 3855.22C324.731 3858.69 319.098 3861.37 313.378 3863.28C307.658 3865.19 303.325 3866.4 300.378 3866.92V3867.44C307.831 3867.79 315.025 3869.26 321.958 3871.86C328.891 3874.46 335.045 3878.1 340.418 3882.78C345.791 3887.29 350.038 3892.66 353.158 3898.9C356.278 3905.14 357.838 3912.16 357.838 3919.96C357.838 3926.89 356.278 3933.74 353.158 3940.5C350.211 3947.26 345.965 3953.33 340.418 3958.7C335.045 3964.07 328.458 3968.41 320.658 3971.7C313.031 3974.99 304.538 3976.64 295.178 3976.64C286.511 3976.64 279.145 3975.43 273.078 3973C267.011 3970.75 261.985 3967.71 257.998 3963.9C254.011 3959.91 250.891 3955.58 248.638 3950.9C246.385 3946.05 244.825 3941.11 243.958 3936.08L247.598 3935.3C247.945 3937.73 248.811 3941.02 250.198 3945.18C251.585 3949.34 253.925 3953.5 257.218 3957.66C260.685 3961.82 265.365 3965.46 271.258 3968.58C277.325 3971.53 285.125 3973 294.658 3973C300.031 3973 305.058 3972.22 309.738 3970.66C314.418 3969.1 318.405 3966.24 321.698 3962.08C325.165 3957.92 327.851 3952.29 329.758 3945.18C331.665 3937.9 332.618 3928.63 332.618 3917.36C332.618 3911.64 332.185 3906.01 331.318 3900.46C330.451 3894.74 328.718 3889.71 326.118 3885.38C323.518 3880.87 319.965 3877.23 315.458 3874.46C310.951 3871.69 305.058 3870.3 297.778 3870.3C291.711 3870.3 286.165 3871.25 281.138 3873.16C276.111 3874.89 271.431 3877.32 267.098 3880.44L264.758 3876.28ZM370.716 3962.08C370.716 3958.27 372.016 3955.06 374.616 3952.46C377.39 3949.69 380.683 3948.3 384.496 3948.3C388.31 3948.3 391.516 3949.69 394.116 3952.46C396.89 3955.06 398.276 3958.27 398.276 3962.08C398.276 3965.89 396.89 3969.19 394.116 3971.96C391.516 3974.56 388.31 3975.86 384.496 3975.86C380.683 3975.86 377.39 3974.56 374.616 3971.96C372.016 3969.19 370.716 3965.89 370.716 3962.08Z" fill="white"/>
</svg>
