<svg width="3267" height="4096" viewBox="0 0 3267 4096" fill="none" xmlns="http://www.w3.org/2000/svg">
<path d="M157.76 3880.18C157.76 3896.3 158.193 3910.25 159.06 3922.04C160.1 3933.65 161.833 3943.27 164.26 3950.9C166.86 3958.35 170.413 3963.9 174.92 3967.54C179.427 3971.18 185.32 3973 192.6 3973C199.88 3973 205.773 3971.18 210.28 3967.54C214.787 3963.9 218.253 3958.35 220.68 3950.9C223.28 3943.27 225.013 3933.65 225.88 3922.04C226.92 3910.25 227.44 3896.3 227.44 3880.18C227.44 3864.06 226.92 3850.19 225.88 3838.58C225.013 3826.97 223.28 3817.43 220.68 3809.98C218.253 3802.35 214.787 3796.72 210.28 3793.08C205.773 3789.44 199.88 3787.62 192.6 3787.62C185.32 3787.62 179.427 3789.44 174.92 3793.08C170.413 3796.72 166.86 3802.35 164.26 3809.98C161.833 3817.43 160.1 3826.97 159.06 3838.58C158.193 3850.19 157.76 3864.06 157.76 3880.18ZM131.76 3880.18C131.76 3869.78 132.54 3858.95 134.1 3847.68C135.833 3836.24 138.953 3825.84 143.46 3816.48C147.967 3806.95 154.12 3799.15 161.92 3793.08C169.893 3787.01 180.12 3783.98 192.6 3783.98C205.08 3783.98 215.22 3787.01 223.02 3793.08C230.993 3799.15 237.233 3806.95 241.74 3816.48C246.247 3825.84 249.28 3836.24 250.84 3847.68C252.573 3858.95 253.44 3869.78 253.44 3880.18C253.44 3890.75 252.573 3901.76 250.84 3913.2C249.28 3924.47 246.247 3934.87 241.74 3944.4C237.233 3953.76 230.993 3961.47 223.02 3967.54C215.22 3973.61 205.08 3976.64 192.6 3976.64C180.12 3976.64 169.893 3973.61 161.92 3967.54C154.12 3961.47 147.967 3953.76 143.46 3944.4C138.953 3934.87 135.833 3924.47 134.1 3913.2C132.54 3901.76 131.76 3890.75 131.76 3880.18ZM268.918 3969.36H297.778V3804.52C295.178 3806.43 292.231 3808.33 288.938 3810.24L259.298 3827.14L257.218 3823.76C268.658 3817.35 279.058 3811.19 288.418 3805.3C297.778 3799.41 306.618 3792.3 314.938 3783.98H320.138V3969.36H348.998V3973H268.918V3969.36ZM370.716 3962.08C370.716 3958.27 372.016 3955.06 374.616 3952.46C377.39 3949.69 380.683 3948.3 384.496 3948.3C388.31 3948.3 391.516 3949.69 394.116 3952.46C396.89 3955.06 398.276 3958.27 398.276 3962.08C398.276 3965.89 396.89 3969.19 394.116 3971.96C391.516 3974.56 388.31 3975.86 384.496 3975.86C380.683 3975.86 377.39 3974.56 374.616 3971.96C372.016 3969.19 370.716 3965.89 370.716 3962.08Z" fill="white"/>
</svg>
