<svg width="3267" height="4096" viewBox="0 0 3267 4096" fill="none" xmlns="http://www.w3.org/2000/svg">
<path d="M157.76 3880.18C157.76 3896.3 158.193 3910.25 159.06 3922.04C160.1 3933.65 161.833 3943.27 164.26 3950.9C166.86 3958.35 170.413 3963.9 174.92 3967.54C179.427 3971.18 185.32 3973 192.6 3973C199.88 3973 205.773 3971.18 210.28 3967.54C214.787 3963.9 218.253 3958.35 220.68 3950.9C223.28 3943.27 225.013 3933.65 225.88 3922.04C226.92 3910.25 227.44 3896.3 227.44 3880.18C227.44 3864.06 226.92 3850.19 225.88 3838.58C225.013 3826.97 223.28 3817.43 220.68 3809.98C218.253 3802.35 214.787 3796.72 210.28 3793.08C205.773 3789.44 199.88 3787.62 192.6 3787.62C185.32 3787.62 179.427 3789.44 174.92 3793.08C170.413 3796.72 166.86 3802.35 164.26 3809.98C161.833 3817.43 160.1 3826.97 159.06 3838.58C158.193 3850.19 157.76 3864.06 157.76 3880.18ZM131.76 3880.18C131.76 3869.78 132.54 3858.95 134.1 3847.68C135.833 3836.24 138.953 3825.84 143.46 3816.48C147.967 3806.95 154.12 3799.15 161.92 3793.08C169.893 3787.01 180.12 3783.98 192.6 3783.98C205.08 3783.98 215.22 3787.01 223.02 3793.08C230.993 3799.15 237.233 3806.95 241.74 3816.48C246.247 3825.84 249.28 3836.24 250.84 3847.68C252.573 3858.95 253.44 3869.78 253.44 3880.18C253.44 3890.75 252.573 3901.76 250.84 3913.2C249.28 3924.47 246.247 3934.87 241.74 3944.4C237.233 3953.76 230.993 3961.47 223.02 3967.54C215.22 3973.61 205.08 3976.64 192.6 3976.64C180.12 3976.64 169.893 3973.61 161.92 3967.54C154.12 3961.47 147.967 3953.76 143.46 3944.4C138.953 3934.87 135.833 3924.47 134.1 3913.2C132.54 3901.76 131.76 3890.75 131.76 3880.18ZM295.698 3969.36H318.838V3927.5H244.738C251.151 3913.63 257.218 3900.89 262.938 3889.28C268.831 3877.67 274.118 3867.53 278.798 3858.86C283.651 3850.02 287.725 3842.74 291.018 3837.02C294.485 3831.3 296.911 3827.4 298.298 3825.32C304.538 3815.44 309.565 3807.81 313.378 3802.44C317.365 3796.89 320.745 3792.73 323.518 3789.96C326.291 3787.19 328.631 3785.54 330.538 3785.02C332.618 3784.33 334.958 3783.98 337.558 3783.98C342.065 3783.98 344.925 3784.67 346.138 3786.06C347.525 3787.27 348.218 3788.66 348.218 3790.22C348.218 3791.09 347.698 3792.13 346.658 3793.34C345.791 3794.55 343.451 3796.98 339.638 3800.62C335.651 3804.43 331.925 3808.07 328.458 3811.54C325.165 3815.01 322.045 3818.47 319.098 3821.94C316.151 3825.23 313.205 3828.61 310.258 3832.08C307.485 3835.37 304.625 3838.75 301.678 3842.22C291.278 3854.53 281.918 3867.87 273.598 3882.26C265.451 3896.47 257.738 3910.08 250.458 3923.08H318.838V3853.66H341.198V3923.08H364.338V3927.5H341.198V3969.36H364.338V3973H295.698V3969.36ZM370.716 3962.08C370.716 3958.27 372.016 3955.06 374.616 3952.46C377.39 3949.69 380.683 3948.3 384.496 3948.3C388.31 3948.3 391.516 3949.69 394.116 3952.46C396.89 3955.06 398.276 3958.27 398.276 3962.08C398.276 3965.89 396.89 3969.19 394.116 3971.96C391.516 3974.56 388.31 3975.86 384.496 3975.86C380.683 3975.86 377.39 3974.56 374.616 3971.96C372.016 3969.19 370.716 3965.89 370.716 3962.08Z" fill="white"/>
</svg>
