<svg width="4097" height="368" viewBox="0 0 4097 368" fill="none" xmlns="http://www.w3.org/2000/svg">
<path d="M592.935 162.928L573.761 111.125V158.134C573.761 160.531 574.147 161.691 574.998 161.691H580.796V162H566.338V161.691H572.369C573.065 161.691 573.451 160.531 573.451 158.134V110.739H566.415V110.429H581.802L596.878 150.866L610.641 110.429H625.718V110.739H618.759V161.691H625.718V162H603.76V161.691H610.795V111.125L593.322 162.928H592.935ZM652.619 161.691V162H637.001V161.691H641.718V129.372H637.001V129.063H647.826V161.691H652.619ZM644.733 119.244C642.645 119.244 640.944 117.465 640.944 115.223C640.944 112.981 642.645 111.203 644.733 111.203C646.898 111.203 648.599 112.981 648.599 115.223C648.599 117.465 646.898 119.244 644.733 119.244ZM697.465 161.691V162H686.641V158.366C685.945 160.763 683.471 162.696 679.527 162.696C675.12 162.696 671.332 160.995 668.162 157.516C664.992 154.036 663.368 150.093 663.368 145.686C663.368 141.279 664.992 137.336 668.162 133.779C671.332 130.145 675.12 128.367 679.527 128.367C682.388 128.367 684.708 129.372 686.641 131.46V105.481H681.924V105.172H692.749V161.691H697.465ZM686.641 156.51V132.001C684.862 129.759 682.465 128.676 679.527 128.676C676.899 128.676 674.888 129.295 673.497 130.455C670.868 132.697 669.553 137.722 669.553 145.686C669.553 153.495 670.868 158.443 673.497 160.686C674.888 161.845 676.899 162.387 679.527 162.387C683.934 162.387 686.641 159.835 686.641 156.51ZM706.993 141.588H726.4V145.531H706.993V141.588ZM789.356 129.063V129.372H785.877C784.872 129.372 784.408 129.836 783.48 132.619L772.965 162.619H772.501L761.213 136.872L752.167 162.619H751.703L737.09 129.372H732.915V129.063H747.528V129.372H743.198L754.564 154.81L761.058 136.408L757.888 129.372H754.254V129.063H768.79V129.372H763.996L775.362 154.732L783.171 132.619C783.944 130.455 783.867 129.372 782.939 129.372H779.46V129.063H789.356ZM826.004 159.603L826.236 159.68C825.85 161.227 823.839 162.619 821.133 162.619C817.963 162.619 816.108 160.995 815.489 157.67C814.561 160.84 810.695 162.619 806.366 162.619C800.567 162.619 796.16 160.222 796.16 154.578C796.16 150.789 797.706 148.006 799.948 146.769C802.345 145.454 804.046 144.99 805.979 144.758C811.005 144.294 813.865 143.753 814.639 143.212C814.87 142.98 815.025 142.671 815.102 142.439V136.563C815.102 130.919 812.396 128.676 809.072 128.676C806.829 128.676 805.747 129.836 805.747 132.156C805.747 133.006 806.288 134.243 806.288 134.939C806.288 136.408 805.206 137.568 803.041 137.568C800.953 137.568 800.026 136.099 800.026 134.243C800.026 131.382 803.505 128.367 809.072 128.367C817.19 128.367 821.21 133.006 821.21 142.361V158.985C821.21 160.686 821.906 161.536 823.221 161.536C824.458 161.536 825.618 160.531 826.004 159.603ZM815.102 156.665V143.444C814.02 144.526 808.994 144.681 807.448 144.99C803.891 145.686 802.113 148.856 802.113 154.578C802.113 159.603 803.969 162.077 807.757 162.077C811.546 162.077 815.102 159.526 815.102 156.665ZM850.941 161.691V162H835.323V161.691H840.039V129.372H835.323V129.063H846.147V161.691H850.941ZM843.054 119.244C840.967 119.244 839.266 117.465 839.266 115.223C839.266 112.981 840.967 111.203 843.054 111.203C845.219 111.203 846.92 112.981 846.92 115.223C846.92 117.465 845.219 119.244 843.054 119.244ZM884.576 151.871C884.576 158.366 880.864 162.696 873.751 162.696C872.205 162.696 870.581 162.387 868.88 161.691C867.179 160.995 865.942 160.608 865.246 160.608C864.009 160.608 862.772 161.459 862.54 162.077H862.231V151.253H862.54C862.463 154.114 863.468 156.742 865.633 158.985C867.875 161.227 870.581 162.387 873.751 162.387C878.158 162.387 881.096 159.99 881.096 155.583C881.096 151.485 878.081 148.933 872.282 147C866.174 144.913 863.313 142.903 863.313 138.264C863.313 132.388 867.334 128.367 872.282 128.367C873.828 128.367 876.225 129.14 878.622 129.14C879.705 129.14 880.246 128.754 880.246 128.058H880.555V136.795H880.246C880.246 131.769 876.38 128.676 872.282 128.676C868.494 128.676 866.174 130.609 866.174 134.011C866.174 137.8 869.035 140.583 874.834 142.361C881.096 144.294 884.576 147.155 884.576 151.871ZM913.733 155.737L914.042 155.892C912.883 160.454 910.408 162.696 906.62 162.696C902.367 162.696 900.28 160.144 900.28 155.119V129.372H894.481V129.063H900.28V119.862C903.527 119.398 905.46 118.238 906.079 116.306H906.388V129.063H913.269V129.372H906.388V159.294C906.388 160.763 907.161 161.536 908.63 161.536C910.795 161.536 912.805 159.449 913.733 155.737ZM961.591 155.737L961.901 155.892C960.741 160.454 958.267 162.696 954.478 162.696C950.226 162.696 948.138 160.144 948.138 155.119V129.372H942.339V129.063H948.138V119.862C951.385 119.398 953.318 118.238 953.937 116.306H954.246V129.063H961.127V129.372H954.246V159.294C954.246 160.763 955.019 161.536 956.488 161.536C958.653 161.536 960.663 159.449 961.591 155.737ZM994.156 132.929C994.156 134.707 992.687 136.176 990.908 136.176C988.975 136.176 987.738 135.094 987.738 133.779C987.738 132.774 988.589 131.692 988.589 130.996C988.589 129.913 987.97 129.372 986.656 129.372C984.568 129.372 982.867 131.305 981.63 135.248V161.691H986.424V162H970.806V161.691H975.522V129.372H970.806V129.063H981.63V134.243C982.945 130.3 985.341 128.367 988.821 128.367C992.377 128.367 994.156 129.913 994.156 132.929ZM1019.84 162.696C1015.43 162.696 1011.64 160.995 1008.47 157.67C1005.3 154.346 1003.76 150.248 1003.76 145.531C1003.76 140.815 1005.3 136.717 1008.47 133.393C1011.64 130.068 1015.43 128.367 1019.84 128.367C1024.32 128.367 1028.11 130.068 1031.28 133.393C1034.45 136.717 1036 140.815 1036 145.531C1036 150.248 1034.45 154.346 1031.28 157.67C1028.11 160.995 1024.32 162.696 1019.84 162.696ZM1029.81 145.531C1029.81 137.8 1028.5 132.774 1025.87 130.455C1024.48 129.295 1022.47 128.676 1019.84 128.676C1017.21 128.676 1015.2 129.295 1013.89 130.455C1011.26 132.697 1009.94 137.722 1009.94 145.531C1009.94 154.5 1011.1 158.289 1013.89 160.686C1015.2 161.845 1017.21 162.387 1019.84 162.387C1022.55 162.387 1024.56 161.845 1025.87 160.686C1028.58 158.443 1029.81 154.423 1029.81 145.531ZM1083.01 161.691V162H1072.11V156.665C1070.8 160.763 1067.32 162.696 1063.38 162.696C1055.41 162.696 1050.7 158.443 1050.7 150.325V129.372H1045.98V129.063H1056.8V154.5C1056.8 159.526 1060.28 162.387 1063.38 162.387C1067.94 162.387 1070.8 160.222 1072.11 155.892V129.372H1067.4V129.063H1078.22V161.691H1083.01ZM1115.96 151.871C1115.96 158.366 1112.24 162.696 1105.13 162.696C1103.59 162.696 1101.96 162.387 1100.26 161.691C1098.56 160.995 1097.32 160.608 1096.63 160.608C1095.39 160.608 1094.15 161.459 1093.92 162.077H1093.61V151.253H1093.92C1093.84 154.114 1094.85 156.742 1097.01 158.985C1099.26 161.227 1101.96 162.387 1105.13 162.387C1109.54 162.387 1112.48 159.99 1112.48 155.583C1112.48 151.485 1109.46 148.933 1103.66 147C1097.55 144.913 1094.69 142.903 1094.69 138.264C1094.69 132.388 1098.71 128.367 1103.66 128.367C1105.21 128.367 1107.61 129.14 1110 129.14C1111.09 129.14 1111.63 128.754 1111.63 128.058H1111.94V136.795H1111.63C1111.63 131.769 1107.76 128.676 1103.66 128.676C1099.87 128.676 1097.55 130.609 1097.55 134.011C1097.55 137.8 1100.42 140.583 1106.21 142.361C1112.48 144.294 1115.96 147.155 1115.96 151.871ZM1156.87 143.444V143.676H1134.29C1134.21 144.062 1134.21 144.758 1134.21 145.609C1134.21 150.248 1134.44 153.65 1134.91 155.815C1135.45 157.98 1136.3 159.603 1137.61 160.686C1138.93 161.845 1140.86 162.387 1143.34 162.387C1148.52 162.387 1153.08 159.449 1155.94 154.887L1156.17 155.041C1153.15 159.68 1148.52 162.696 1143.34 162.696C1138.93 162.696 1135.22 161.072 1132.2 157.748C1129.26 154.423 1127.79 150.325 1127.79 145.609C1127.79 140.815 1129.26 136.717 1132.2 133.393C1135.22 130.068 1138.93 128.367 1143.34 128.367C1152.92 128.367 1156.94 137.645 1156.87 143.444ZM1134.29 143.367H1150.68C1150.53 136.485 1149.6 132.156 1147.97 130.455C1146.81 129.295 1145.27 128.676 1143.34 128.676C1140.94 128.676 1139.01 129.295 1137.61 130.455C1135.53 132.233 1134.44 136.563 1134.29 143.367ZM1190.51 132.929C1190.51 134.707 1189.04 136.176 1187.27 136.176C1185.33 136.176 1184.1 135.094 1184.1 133.779C1184.1 132.774 1184.95 131.692 1184.95 130.996C1184.95 129.913 1184.33 129.372 1183.01 129.372C1180.93 129.372 1179.23 131.305 1177.99 135.248V161.691H1182.78V162H1167.16V161.691H1171.88V129.372H1167.16V129.063H1177.99V134.243C1179.3 130.3 1181.7 128.367 1185.18 128.367C1188.74 128.367 1190.51 129.913 1190.51 132.929ZM1224.59 151.871C1224.59 158.366 1220.88 162.696 1213.77 162.696C1212.22 162.696 1210.6 162.387 1208.89 161.691C1207.19 160.995 1205.96 160.608 1205.26 160.608C1204.02 160.608 1202.79 161.459 1202.55 162.077H1202.25V151.253H1202.55C1202.48 154.114 1203.48 156.742 1205.65 158.985C1207.89 161.227 1210.6 162.387 1213.77 162.387C1218.17 162.387 1221.11 159.99 1221.11 155.583C1221.11 151.485 1218.1 148.933 1212.3 147C1206.19 144.913 1203.33 142.903 1203.33 138.264C1203.33 132.388 1207.35 128.367 1212.3 128.367C1213.84 128.367 1216.24 129.14 1218.64 129.14C1219.72 129.14 1220.26 128.754 1220.26 128.058H1220.57V136.795H1220.26C1220.26 131.769 1216.39 128.676 1212.3 128.676C1208.51 128.676 1206.19 130.609 1206.19 134.011C1206.19 137.8 1209.05 140.583 1214.85 142.361C1221.11 144.294 1224.59 147.155 1224.59 151.871ZM1312.96 161.691V162H1297.42V161.691H1302.13V136.563C1302.13 131.537 1298.65 128.676 1295.48 128.676C1292.93 128.676 1290.84 129.449 1289.22 130.996C1287.6 132.465 1286.75 134.089 1286.75 135.712V161.691H1291.54V162H1275.92V161.691H1280.64V136.563C1280.64 131.537 1277.16 128.676 1274.07 128.676C1269.58 128.676 1266.64 130.841 1265.33 135.171V161.691H1270.05V162H1254.51V161.691H1259.22V129.372H1254.51V129.063H1265.33V134.398C1266.64 130.3 1270.12 128.367 1274.07 128.367C1280.79 128.367 1284.97 130.609 1286.51 135.016C1287.37 130.919 1291.54 128.367 1295.48 128.367C1303.99 128.367 1308.24 132.156 1308.24 139.655V161.691H1312.96ZM1352.71 159.603L1352.94 159.68C1352.56 161.227 1350.55 162.619 1347.84 162.619C1344.67 162.619 1342.82 160.995 1342.2 157.67C1341.27 160.84 1337.4 162.619 1333.07 162.619C1327.27 162.619 1322.87 160.222 1322.87 154.578C1322.87 150.789 1324.41 148.006 1326.66 146.769C1329.05 145.454 1330.75 144.99 1332.69 144.758C1337.71 144.294 1340.57 143.753 1341.35 143.212C1341.58 142.98 1341.73 142.671 1341.81 142.439V136.563C1341.81 130.919 1339.1 128.676 1335.78 128.676C1333.54 128.676 1332.45 129.836 1332.45 132.156C1332.45 133.006 1333 134.243 1333 134.939C1333 136.408 1331.91 137.568 1329.75 137.568C1327.66 137.568 1326.73 136.099 1326.73 134.243C1326.73 131.382 1330.21 128.367 1335.78 128.367C1343.9 128.367 1347.92 133.006 1347.92 142.361V158.985C1347.92 160.686 1348.61 161.536 1349.93 161.536C1351.17 161.536 1352.33 160.531 1352.71 159.603ZM1341.81 156.665V143.444C1340.73 144.526 1335.7 144.681 1334.16 144.99C1330.6 145.686 1328.82 148.856 1328.82 154.578C1328.82 159.603 1330.68 162.077 1334.47 162.077C1338.25 162.077 1341.81 159.526 1341.81 156.665ZM1397.06 161.691V162H1386.23V158.366C1385.54 160.763 1383.06 162.696 1379.12 162.696C1374.71 162.696 1370.92 160.995 1367.75 157.516C1364.58 154.036 1362.96 150.093 1362.96 145.686C1362.96 141.279 1364.58 137.336 1367.75 133.779C1370.92 130.145 1374.71 128.367 1379.12 128.367C1381.98 128.367 1384.3 129.372 1386.23 131.46V105.481H1381.51V105.172H1392.34V161.691H1397.06ZM1386.23 156.51V132.001C1384.45 129.759 1382.06 128.676 1379.12 128.676C1376.49 128.676 1374.48 129.295 1373.09 130.455C1370.46 132.697 1369.14 137.722 1369.14 145.686C1369.14 153.495 1370.46 158.443 1373.09 160.686C1374.48 161.845 1376.49 162.387 1379.12 162.387C1383.52 162.387 1386.23 159.835 1386.23 156.51ZM1436.04 143.444V143.676H1413.46C1413.39 144.062 1413.39 144.758 1413.39 145.609C1413.39 150.248 1413.62 153.65 1414.08 155.815C1414.62 157.98 1415.47 159.603 1416.79 160.686C1418.1 161.845 1420.04 162.387 1422.51 162.387C1427.69 162.387 1432.25 159.449 1435.11 154.887L1435.35 155.041C1432.33 159.68 1427.69 162.696 1422.51 162.696C1418.1 162.696 1414.39 161.072 1411.38 157.748C1408.44 154.423 1406.97 150.325 1406.97 145.609C1406.97 140.815 1408.44 136.717 1411.38 133.393C1414.39 130.068 1418.1 128.367 1422.51 128.367C1432.1 128.367 1436.12 137.645 1436.04 143.444ZM1413.46 143.367H1429.86C1429.7 136.485 1428.77 132.156 1427.15 130.455C1425.99 129.295 1424.44 128.676 1422.51 128.676C1420.11 128.676 1418.18 129.295 1416.79 130.455C1414.7 132.233 1413.62 136.563 1413.46 143.367ZM1483.75 162.696C1479.34 162.696 1475.55 160.995 1472.38 157.67C1469.21 154.346 1467.66 150.248 1467.66 145.531C1467.66 140.815 1469.21 136.717 1472.38 133.393C1475.55 130.068 1479.34 128.367 1483.75 128.367C1488.23 128.367 1492.02 130.068 1495.19 133.393C1498.36 136.717 1499.91 140.815 1499.91 145.531C1499.91 150.248 1498.36 154.346 1495.19 157.67C1492.02 160.995 1488.23 162.696 1483.75 162.696ZM1493.72 145.531C1493.72 137.8 1492.41 132.774 1489.78 130.455C1488.38 129.295 1486.37 128.676 1483.75 128.676C1481.12 128.676 1479.11 129.295 1477.79 130.455C1475.16 132.697 1473.85 137.722 1473.85 145.531C1473.85 154.5 1475.01 158.289 1477.79 160.686C1479.11 161.845 1481.12 162.387 1483.75 162.387C1486.45 162.387 1488.46 161.845 1489.78 160.686C1492.48 158.443 1493.72 154.423 1493.72 145.531ZM1534.58 110.198C1534.58 112.053 1533.12 113.754 1531.26 113.754C1529.1 113.754 1528.01 112.904 1528.01 111.125C1528.01 110.12 1528.94 108.806 1528.94 107.491C1528.94 106.022 1527.86 104.94 1526.23 104.94C1523.68 104.94 1521.52 107.646 1521.52 114.063V129.063H1528.4V129.372H1521.52V161.691H1526.23V162H1510.69V161.691H1515.41V129.372H1509.61V129.063H1515.41V127.207C1515.41 111.048 1519.82 104.476 1527.86 104.476C1531.49 104.476 1534.58 107.028 1534.58 110.198ZM1588.62 159.603L1588.85 159.68C1588.47 161.227 1586.46 162.619 1583.75 162.619C1580.58 162.619 1578.73 160.995 1578.11 157.67C1577.18 160.84 1573.31 162.619 1568.98 162.619C1563.19 162.619 1558.78 160.222 1558.78 154.578C1558.78 150.789 1560.32 148.006 1562.57 146.769C1564.96 145.454 1566.66 144.99 1568.6 144.758C1573.62 144.294 1576.48 143.753 1577.26 143.212C1577.49 142.98 1577.64 142.671 1577.72 142.439V136.563C1577.72 130.919 1575.02 128.676 1571.69 128.676C1569.45 128.676 1568.37 129.836 1568.37 132.156C1568.37 133.006 1568.91 134.243 1568.91 134.939C1568.91 136.408 1567.82 137.568 1565.66 137.568C1563.57 137.568 1562.64 136.099 1562.64 134.243C1562.64 131.382 1566.12 128.367 1571.69 128.367C1579.81 128.367 1583.83 133.006 1583.83 142.361V158.985C1583.83 160.686 1584.53 161.536 1585.84 161.536C1587.08 161.536 1588.24 160.531 1588.62 159.603ZM1577.72 156.665V143.444C1576.64 144.526 1571.61 144.681 1570.07 144.99C1566.51 145.686 1564.73 148.856 1564.73 154.578C1564.73 159.603 1566.59 162.077 1570.38 162.077C1574.16 162.077 1577.72 159.526 1577.72 156.665ZM1641.46 151.871C1641.46 158.366 1637.74 162.696 1630.63 162.696C1629.09 162.696 1627.46 162.387 1625.76 161.691C1624.06 160.995 1622.82 160.608 1622.13 160.608C1620.89 160.608 1619.65 161.459 1619.42 162.077H1619.11V151.253H1619.42C1619.34 154.114 1620.35 156.742 1622.51 158.985C1624.76 161.227 1627.46 162.387 1630.63 162.387C1635.04 162.387 1637.98 159.99 1637.98 155.583C1637.98 151.485 1634.96 148.933 1629.16 147C1623.05 144.913 1620.19 142.903 1620.19 138.264C1620.19 132.388 1624.21 128.367 1629.16 128.367C1630.71 128.367 1633.11 129.14 1635.5 129.14C1636.59 129.14 1637.13 128.754 1637.13 128.058H1637.44V136.795H1637.13C1637.13 131.769 1633.26 128.676 1629.16 128.676C1625.37 128.676 1623.05 130.609 1623.05 134.011C1623.05 137.8 1625.92 140.583 1631.71 142.361C1637.98 144.294 1641.46 147.155 1641.46 151.871ZM1685.77 145.763C1685.77 150.17 1684.14 154.036 1680.97 157.516C1677.8 160.995 1674.09 162.696 1669.69 162.696C1666.83 162.696 1664.43 161.691 1662.5 159.603V185.582H1667.29V185.891H1651.67V185.582H1656.39V129.372H1651.67V129.063H1662.5V131.46C1664.43 129.372 1666.83 128.367 1669.69 128.367C1674.02 128.367 1677.8 130.145 1680.97 133.779C1684.14 137.336 1685.77 141.356 1685.77 145.763ZM1679.58 145.763C1679.58 137.722 1678.27 132.619 1675.64 130.377C1674.32 129.218 1672.31 128.676 1669.69 128.676C1666.67 128.676 1664.27 129.759 1662.5 132.001V158.134C1663.5 160.918 1666.52 162.387 1669.69 162.387C1672.31 162.387 1674.32 161.845 1675.64 160.686C1678.27 158.443 1679.58 153.495 1679.58 145.763ZM1732.78 161.691V162H1721.87V156.665C1720.56 160.763 1717.08 162.696 1713.14 162.696C1705.17 162.696 1700.46 158.443 1700.46 150.325V129.372H1695.74V129.063H1706.57V154.5C1706.57 159.526 1710.05 162.387 1713.14 162.387C1717.7 162.387 1720.56 160.222 1721.87 155.892V129.372H1717.16V129.063H1727.98V161.691H1732.78ZM1778.24 161.691V162H1762.63V161.691H1767.34V136.563C1767.34 131.537 1763.86 128.676 1760.77 128.676C1756.29 128.676 1753.35 130.841 1751.96 135.171V161.691H1756.75V162H1741.21V161.691H1745.93V129.372H1741.13V129.063H1751.96V134.398C1753.27 130.3 1756.75 128.367 1760.69 128.367C1768.66 128.367 1773.37 133.006 1773.37 141.279V161.691H1778.24ZM1836.36 155.273L1836.59 155.428C1833.42 160.299 1829.25 162.696 1823.91 162.696C1819.5 162.696 1815.72 160.995 1812.55 157.67C1809.38 154.346 1807.83 150.248 1807.83 145.531C1807.83 140.815 1809.38 136.717 1812.55 133.393C1815.72 130.068 1819.5 128.367 1823.91 128.367C1830.48 128.367 1833.96 131.46 1833.96 135.403C1833.96 137.568 1832.96 138.65 1830.87 138.65C1829.01 138.65 1827.85 137.49 1827.85 135.944C1827.85 134.784 1828.7 133.779 1828.7 132.233C1828.7 129.527 1827.62 128.676 1823.91 128.676C1821.28 128.676 1819.27 129.295 1817.96 130.455C1815.17 132.851 1814.01 136.64 1814.01 145.531C1814.01 154.5 1815.17 158.289 1817.96 160.686C1819.27 161.845 1821.28 162.387 1823.91 162.387C1829.17 162.387 1833.34 159.99 1836.36 155.273ZM1863.32 162.696C1858.91 162.696 1855.12 160.995 1851.95 157.67C1848.78 154.346 1847.24 150.248 1847.24 145.531C1847.24 140.815 1848.78 136.717 1851.95 133.393C1855.12 130.068 1858.91 128.367 1863.32 128.367C1867.8 128.367 1871.59 130.068 1874.76 133.393C1877.93 136.717 1879.48 140.815 1879.48 145.531C1879.48 150.248 1877.93 154.346 1874.76 157.67C1871.59 160.995 1867.8 162.696 1863.32 162.696ZM1873.29 145.531C1873.29 137.8 1871.98 132.774 1869.35 130.455C1867.96 129.295 1865.95 128.676 1863.32 128.676C1860.69 128.676 1858.68 129.295 1857.37 130.455C1854.74 132.697 1853.42 137.722 1853.42 145.531C1853.42 154.5 1854.58 158.289 1857.37 160.686C1858.68 161.845 1860.69 162.387 1863.32 162.387C1866.02 162.387 1868.04 161.845 1869.35 160.686C1872.06 158.443 1873.29 154.423 1873.29 145.531ZM1909.17 155.737L1909.48 155.892C1908.32 160.454 1905.85 162.696 1902.06 162.696C1897.81 162.696 1895.72 160.144 1895.72 155.119V129.372H1889.92V129.063H1895.72V119.862C1898.97 119.398 1900.9 118.238 1901.52 116.306H1901.83V129.063H1908.71V129.372H1901.83V159.294C1901.83 160.763 1902.6 161.536 1904.07 161.536C1906.24 161.536 1908.25 159.449 1909.17 155.737ZM1937.33 155.737L1937.64 155.892C1936.48 160.454 1934.01 162.696 1930.22 162.696C1925.96 162.696 1923.88 160.144 1923.88 155.119V129.372H1918.08V129.063H1923.88V119.862C1927.12 119.398 1929.06 118.238 1929.68 116.306H1929.99V129.063H1936.87V129.372H1929.99V159.294C1929.99 160.763 1930.76 161.536 1932.23 161.536C1934.39 161.536 1936.4 159.449 1937.33 155.737ZM1964.25 162.696C1959.84 162.696 1956.06 160.995 1952.89 157.67C1949.72 154.346 1948.17 150.248 1948.17 145.531C1948.17 140.815 1949.72 136.717 1952.89 133.393C1956.06 130.068 1959.84 128.367 1964.25 128.367C1968.74 128.367 1972.52 130.068 1975.69 133.393C1978.86 136.717 1980.41 140.815 1980.41 145.531C1980.41 150.248 1978.86 154.346 1975.69 157.67C1972.52 160.995 1968.74 162.696 1964.25 162.696ZM1974.22 145.531C1974.22 137.8 1972.91 132.774 1970.28 130.455C1968.89 129.295 1966.88 128.676 1964.25 128.676C1961.62 128.676 1959.61 129.295 1958.3 130.455C1955.67 132.697 1954.35 137.722 1954.35 145.531C1954.35 154.5 1955.51 158.289 1958.3 160.686C1959.61 161.845 1961.62 162.387 1964.25 162.387C1966.96 162.387 1968.97 161.845 1970.28 160.686C1972.99 158.443 1974.22 154.423 1974.22 145.531ZM2028.27 161.691V162H2012.66V161.691H2017.37V136.563C2017.37 131.537 2013.89 128.676 2010.8 128.676C2006.32 128.676 2003.38 130.841 2001.99 135.171V161.691H2006.78V162H1991.24V161.691H1995.96V129.372H1991.16V129.063H2001.99V134.398C2003.3 130.3 2006.78 128.367 2010.72 128.367C2018.69 128.367 2023.4 133.006 2023.4 141.279V161.691H2028.27ZM2084.15 145.686C2084.15 137.8 2082.83 132.697 2080.28 130.455C2078.81 129.295 2076.8 128.676 2074.25 128.676C2071.39 128.676 2068.99 129.759 2067.06 132.001V158.134C2068.07 160.918 2071 162.387 2074.17 162.387C2076.88 162.387 2078.89 161.845 2080.2 160.686C2082.83 158.521 2084.15 153.495 2084.15 145.686ZM2061.34 162H2061.03V105.481H2056.24V105.172H2067.06V131.537C2068.92 129.449 2071.31 128.367 2074.33 128.367C2078.66 128.367 2082.45 130.145 2085.62 133.779C2088.79 137.336 2090.41 141.279 2090.41 145.686C2090.41 150.093 2088.79 154.036 2085.62 157.516C2082.45 160.995 2078.66 162.696 2074.25 162.696C2071.31 162.696 2068.92 161.691 2067.14 159.603C2066.13 158.598 2065.28 158.134 2064.51 158.134C2062.42 158.134 2061.34 159.449 2061.34 162ZM2116.62 161.691V162H2101V161.691H2105.8V105.481H2101V105.172H2111.83V161.691H2116.62ZM2155.55 143.444V143.676H2132.98C2132.9 144.062 2132.9 144.758 2132.9 145.609C2132.9 150.248 2133.13 153.65 2133.59 155.815C2134.14 157.98 2134.99 159.603 2136.3 160.686C2137.62 161.845 2139.55 162.387 2142.02 162.387C2147.2 162.387 2151.76 159.449 2154.63 154.887L2154.86 155.041C2151.84 159.68 2147.2 162.696 2142.02 162.696C2137.62 162.696 2133.9 161.072 2130.89 157.748C2127.95 154.423 2126.48 150.325 2126.48 145.609C2126.48 140.815 2127.95 136.717 2130.89 133.393C2133.9 130.068 2137.62 128.367 2142.02 128.367C2151.61 128.367 2155.63 137.645 2155.55 143.444ZM2132.98 143.367H2149.37C2149.21 136.485 2148.29 132.156 2146.66 130.455C2145.5 129.295 2143.96 128.676 2142.02 128.676C2139.63 128.676 2137.69 129.295 2136.3 130.455C2134.21 132.233 2133.13 136.563 2132.98 143.367ZM2202.96 161.691V162H2187.35V161.691H2192.06V136.563C2192.06 131.537 2188.58 128.676 2185.49 128.676C2181.01 128.676 2178.07 130.841 2176.68 135.171V161.691H2181.47V162H2165.93V161.691H2170.64V129.372H2165.85V129.063H2176.68V134.398C2177.99 130.3 2181.47 128.367 2185.41 128.367C2193.38 128.367 2198.09 133.006 2198.09 141.279V161.691H2202.96ZM2247.02 161.691V162H2236.2V158.366C2235.5 160.763 2233.03 162.696 2229.08 162.696C2224.68 162.696 2220.89 160.995 2217.72 157.516C2214.55 154.036 2212.92 150.093 2212.92 145.686C2212.92 141.279 2214.55 137.336 2217.72 133.779C2220.89 130.145 2224.68 128.367 2229.08 128.367C2231.94 128.367 2234.26 129.372 2236.2 131.46V105.481H2231.48V105.172H2242.31V161.691H2247.02ZM2236.2 156.51V132.001C2234.42 129.759 2232.02 128.676 2229.08 128.676C2226.46 128.676 2224.44 129.295 2223.05 130.455C2220.42 132.697 2219.11 137.722 2219.11 145.686C2219.11 153.495 2220.42 158.443 2223.05 160.686C2224.44 161.845 2226.46 162.387 2229.08 162.387C2233.49 162.387 2236.2 159.835 2236.2 156.51ZM2260.57 163.237C2258.48 163.237 2256.78 161.459 2256.78 159.217C2256.78 156.974 2258.48 155.196 2260.57 155.196C2262.73 155.196 2264.44 156.974 2264.44 159.217C2264.44 161.459 2262.73 163.237 2260.57 163.237ZM2334.07 110.429V123.573H2333.76C2333.76 116.151 2329.66 110.739 2321 110.739H2311.03V135.403H2314.35C2320.23 135.403 2323.55 132.233 2323.55 127.053H2323.86V143.985H2323.55C2323.55 138.959 2320.23 135.635 2314.35 135.635H2311.03V161.691H2318.14V162H2296.11V161.691H2303.14V110.739H2296.11V110.429H2334.07ZM2369.2 143.444V143.676H2346.62C2346.54 144.062 2346.54 144.758 2346.54 145.609C2346.54 150.248 2346.77 153.65 2347.24 155.815C2347.78 157.98 2348.63 159.603 2349.94 160.686C2351.26 161.845 2353.19 162.387 2355.67 162.387C2360.85 162.387 2365.41 159.449 2368.27 154.887L2368.5 155.041C2365.48 159.68 2360.85 162.696 2355.67 162.696C2351.26 162.696 2347.55 161.072 2344.53 157.748C2341.59 154.423 2340.12 150.325 2340.12 145.609C2340.12 140.815 2341.59 136.717 2344.53 133.393C2347.55 130.068 2351.26 128.367 2355.67 128.367C2365.25 128.367 2369.27 137.645 2369.2 143.444ZM2346.62 143.367H2363.01C2362.86 136.485 2361.93 132.156 2360.3 130.455C2359.14 129.295 2357.6 128.676 2355.67 128.676C2353.27 128.676 2351.34 129.295 2349.94 130.455C2347.86 132.233 2346.77 136.563 2346.62 143.367ZM2410.88 159.603L2411.12 159.68C2410.73 161.227 2408.72 162.619 2406.01 162.619C2402.84 162.619 2400.99 160.995 2400.37 157.67C2399.44 160.84 2395.58 162.619 2391.25 162.619C2385.45 162.619 2381.04 160.222 2381.04 154.578C2381.04 150.789 2382.59 148.006 2384.83 146.769C2387.23 145.454 2388.93 144.99 2390.86 144.758C2395.89 144.294 2398.75 143.753 2399.52 143.212C2399.75 142.98 2399.91 142.671 2399.98 142.439V136.563C2399.98 130.919 2397.28 128.676 2393.95 128.676C2391.71 128.676 2390.63 129.836 2390.63 132.156C2390.63 133.006 2391.17 134.243 2391.17 134.939C2391.17 136.408 2390.09 137.568 2387.92 137.568C2385.83 137.568 2384.91 136.099 2384.91 134.243C2384.91 131.382 2388.39 128.367 2393.95 128.367C2402.07 128.367 2406.09 133.006 2406.09 142.361V158.985C2406.09 160.686 2406.79 161.536 2408.1 161.536C2409.34 161.536 2410.5 160.531 2410.88 159.603ZM2399.98 156.665V143.444C2398.9 144.526 2393.88 144.681 2392.33 144.99C2388.77 145.686 2386.99 148.856 2386.99 154.578C2386.99 159.603 2388.85 162.077 2392.64 162.077C2396.43 162.077 2399.98 159.526 2399.98 156.665ZM2437.62 155.737L2437.93 155.892C2436.77 160.454 2434.29 162.696 2430.5 162.696C2426.25 162.696 2424.16 160.144 2424.16 155.119V129.372H2418.37V129.063H2424.16V119.862C2427.41 119.398 2429.34 118.238 2429.96 116.306H2430.27V129.063H2437.15V129.372H2430.27V159.294C2430.27 160.763 2431.05 161.536 2432.51 161.536C2434.68 161.536 2436.69 159.449 2437.62 155.737ZM2483.09 161.691V162H2472.19V156.665C2470.88 160.763 2467.4 162.696 2463.46 162.696C2455.49 162.696 2450.78 158.443 2450.78 150.325V129.372H2446.06V129.063H2456.88V154.5C2456.88 159.526 2460.36 162.387 2463.46 162.387C2468.02 162.387 2470.88 160.222 2472.19 155.892V129.372H2467.48V129.063H2478.3V161.691H2483.09ZM2514.8 132.929C2514.8 134.707 2513.33 136.176 2511.55 136.176C2509.62 136.176 2508.38 135.094 2508.38 133.779C2508.38 132.774 2509.23 131.692 2509.23 130.996C2509.23 129.913 2508.61 129.372 2507.3 129.372C2505.21 129.372 2503.51 131.305 2502.27 135.248V161.691H2507.07V162H2491.45V161.691H2496.17V129.372H2491.45V129.063H2502.27V134.243C2503.59 130.3 2505.99 128.367 2509.46 128.367C2513.02 128.367 2514.8 129.913 2514.8 132.929ZM2540.68 161.691V162H2525.06V161.691H2529.78V129.372H2525.06V129.063H2535.89V161.691H2540.68ZM2532.79 119.244C2530.71 119.244 2529 117.465 2529 115.223C2529 112.981 2530.71 111.203 2532.79 111.203C2534.96 111.203 2536.66 112.981 2536.66 115.223C2536.66 117.465 2534.96 119.244 2532.79 119.244ZM2586.84 161.691V162H2571.22V161.691H2575.94V136.563C2575.94 131.537 2572.46 128.676 2569.37 128.676C2564.88 128.676 2561.94 130.841 2560.55 135.171V161.691H2565.35V162H2549.81V161.691H2554.52V129.372H2549.73V129.063H2560.55V134.398C2561.87 130.3 2565.35 128.367 2569.29 128.367C2577.25 128.367 2581.97 133.006 2581.97 141.279V161.691H2586.84ZM2632.75 131.846C2632.75 133.083 2631.59 134.475 2630.36 134.475C2629.04 134.475 2628.04 133.547 2628.04 132.619C2628.04 131.769 2628.66 131.228 2628.66 130.687C2628.66 129.836 2628.19 129.449 2627.26 129.449C2625.49 129.449 2624.02 130.764 2622.86 133.315C2624.56 135.635 2625.41 138.109 2625.41 140.815C2625.41 144.217 2624.17 147.155 2621.62 149.552C2619.15 151.949 2616.13 153.186 2612.65 153.186C2608.63 153.186 2605.38 151.717 2602.91 148.701C2601.21 149.861 2600.36 151.64 2600.36 153.882C2600.36 158.598 2602.75 160.995 2607.47 160.995H2616.36C2627.19 160.995 2631.75 163.469 2631.75 171.742C2631.75 181.02 2621.39 186.664 2613.19 186.432C2608.01 186.432 2603.84 185.427 2600.51 183.34C2597.27 181.252 2595.64 178.778 2595.64 175.762C2595.64 173.598 2596.41 171.433 2597.88 169.345C2599.43 167.258 2601.29 165.943 2603.53 165.402C2599.28 164.242 2597.19 161.768 2597.19 157.98C2597.19 154.036 2599.04 150.866 2602.75 148.469C2600.9 146.227 2599.97 143.676 2599.97 140.815C2599.97 137.336 2601.21 134.398 2603.68 132.001C2606.16 129.604 2609.17 128.367 2612.65 128.367C2616.75 128.367 2620 129.913 2622.55 133.006C2624.09 129.913 2626.26 128.367 2628.97 128.367C2631.05 128.367 2632.75 129.681 2632.75 131.846ZM2619.61 140.738C2619.61 135.016 2618.76 131.382 2616.98 129.836C2615.98 129.063 2614.58 128.676 2612.65 128.676C2610.8 128.676 2609.4 129.063 2608.4 129.836C2606.62 131.382 2605.77 135.016 2605.77 140.738C2605.77 147.232 2606.47 149.939 2608.4 151.562C2609.4 152.413 2610.87 152.877 2612.65 152.877C2614.51 152.877 2615.98 152.413 2616.98 151.562C2618.91 149.939 2619.61 147.232 2619.61 140.738ZM2628.35 175.067C2628.35 169.5 2625.72 165.789 2620.07 165.789H2606.78C2605.85 165.789 2605 165.711 2604.15 165.557C2602.06 166.871 2600.51 170.273 2600.51 174.835C2600.51 182.334 2604.76 186.123 2613.19 186.123C2617.21 186.123 2620.77 185.118 2623.78 183.185C2626.8 181.252 2628.35 178.546 2628.35 175.067ZM2683.1 151.871C2683.1 158.366 2679.39 162.696 2672.27 162.696C2670.73 162.696 2669.1 162.387 2667.4 161.691C2665.7 160.995 2664.47 160.608 2663.77 160.608C2662.53 160.608 2661.3 161.459 2661.06 162.077H2660.75V151.253H2661.06C2660.99 154.114 2661.99 156.742 2664.16 158.985C2666.4 161.227 2669.1 162.387 2672.27 162.387C2676.68 162.387 2679.62 159.99 2679.62 155.583C2679.62 151.485 2676.6 148.933 2670.81 147C2664.7 144.913 2661.84 142.903 2661.84 138.264C2661.84 132.388 2665.86 128.367 2670.81 128.367C2672.35 128.367 2674.75 129.14 2677.15 129.14C2678.23 129.14 2678.77 128.754 2678.77 128.058H2679.08V136.795H2678.77C2678.77 131.769 2674.9 128.676 2670.81 128.676C2667.02 128.676 2664.7 130.609 2664.7 134.011C2664.7 137.8 2667.56 140.583 2673.36 142.361C2679.62 144.294 2683.1 147.155 2683.1 151.871ZM2709.71 161.691V162H2694.09V161.691H2698.8V129.372H2694.09V129.063H2704.91V161.691H2709.71ZM2701.82 119.244C2699.73 119.244 2698.03 117.465 2698.03 115.223C2698.03 112.981 2699.73 111.203 2701.82 111.203C2703.98 111.203 2705.68 112.981 2705.68 115.223C2705.68 117.465 2703.98 119.244 2701.82 119.244ZM2754.55 161.691V162H2743.73V158.366C2743.03 160.763 2740.56 162.696 2736.61 162.696C2732.21 162.696 2728.42 160.995 2725.25 157.516C2722.08 154.036 2720.45 150.093 2720.45 145.686C2720.45 141.279 2722.08 137.336 2725.25 133.779C2728.42 130.145 2732.21 128.367 2736.61 128.367C2739.47 128.367 2741.79 129.372 2743.73 131.46V105.481H2739.01V105.172H2749.83V161.691H2754.55ZM2743.73 156.51V132.001C2741.95 129.759 2739.55 128.676 2736.61 128.676C2733.98 128.676 2731.97 129.295 2730.58 130.455C2727.95 132.697 2726.64 137.722 2726.64 145.686C2726.64 153.495 2727.95 158.443 2730.58 160.686C2731.97 161.845 2733.98 162.387 2736.61 162.387C2741.02 162.387 2743.73 159.835 2743.73 156.51ZM2793.54 143.444V143.676H2770.96C2770.88 144.062 2770.88 144.758 2770.88 145.609C2770.88 150.248 2771.12 153.65 2771.58 155.815C2772.12 157.98 2772.97 159.603 2774.29 160.686C2775.6 161.845 2777.53 162.387 2780.01 162.387C2785.19 162.387 2789.75 159.449 2792.61 154.887L2792.84 155.041C2789.83 159.68 2785.19 162.696 2780.01 162.696C2775.6 162.696 2771.89 161.072 2768.87 157.748C2765.93 154.423 2764.47 150.325 2764.47 145.609C2764.47 140.815 2765.93 136.717 2768.87 133.393C2771.89 130.068 2775.6 128.367 2780.01 128.367C2789.59 128.367 2793.61 137.645 2793.54 143.444ZM2770.96 143.367H2787.35C2787.2 136.485 2786.27 132.156 2784.65 130.455C2783.49 129.295 2781.94 128.676 2780.01 128.676C2777.61 128.676 2775.68 129.295 2774.29 130.455C2772.2 132.233 2771.12 136.563 2770.96 143.367ZM2848.12 151.871C2848.12 158.366 2844.41 162.696 2837.3 162.696C2835.75 162.696 2834.13 162.387 2832.43 161.691C2830.73 160.995 2829.49 160.608 2828.79 160.608C2827.56 160.608 2826.32 161.459 2826.09 162.077H2825.78V151.253H2826.09C2826.01 154.114 2827.02 156.742 2829.18 158.985C2831.42 161.227 2834.13 162.387 2837.3 162.387C2841.71 162.387 2844.64 159.99 2844.64 155.583C2844.64 151.485 2841.63 148.933 2835.83 147C2829.72 144.913 2826.86 142.903 2826.86 138.264C2826.86 132.388 2830.88 128.367 2835.83 128.367C2837.38 128.367 2839.77 129.14 2842.17 129.14C2843.25 129.14 2843.79 128.754 2843.79 128.058H2844.1V136.795H2843.79C2843.79 131.769 2839.93 128.676 2835.83 128.676C2832.04 128.676 2829.72 130.609 2829.72 134.011C2829.72 137.8 2832.58 140.583 2838.38 142.361C2844.64 144.294 2848.12 147.155 2848.12 151.871ZM2889.03 143.444V143.676H2866.46C2866.38 144.062 2866.38 144.758 2866.38 145.609C2866.38 150.248 2866.61 153.65 2867.07 155.815C2867.62 157.98 2868.47 159.603 2869.78 160.686C2871.1 161.845 2873.03 162.387 2875.5 162.387C2880.68 162.387 2885.24 159.449 2888.1 154.887L2888.34 155.041C2885.32 159.68 2880.68 162.696 2875.5 162.696C2871.1 162.696 2867.38 161.072 2864.37 157.748C2861.43 154.423 2859.96 150.325 2859.96 145.609C2859.96 140.815 2861.43 136.717 2864.37 133.393C2867.38 130.068 2871.1 128.367 2875.5 128.367C2885.09 128.367 2889.11 137.645 2889.03 143.444ZM2866.46 143.367H2882.85C2882.69 136.485 2881.76 132.156 2880.14 130.455C2878.98 129.295 2877.44 128.676 2875.5 128.676C2873.11 128.676 2871.17 129.295 2869.78 130.455C2867.69 132.233 2866.61 136.563 2866.46 143.367ZM2930.72 159.603L2930.95 159.68C2930.57 161.227 2928.56 162.619 2925.85 162.619C2922.68 162.619 2920.83 160.995 2920.21 157.67C2919.28 160.84 2915.41 162.619 2911.08 162.619C2905.28 162.619 2900.88 160.222 2900.88 154.578C2900.88 150.789 2902.42 148.006 2904.67 146.769C2907.06 145.454 2908.76 144.99 2910.7 144.758C2915.72 144.294 2918.58 143.753 2919.36 143.212C2919.59 142.98 2919.74 142.671 2919.82 142.439V136.563C2919.82 130.919 2917.11 128.676 2913.79 128.676C2911.55 128.676 2910.46 129.836 2910.46 132.156C2910.46 133.006 2911.01 134.243 2911.01 134.939C2911.01 136.408 2909.92 137.568 2907.76 137.568C2905.67 137.568 2904.74 136.099 2904.74 134.243C2904.74 131.382 2908.22 128.367 2913.79 128.367C2921.91 128.367 2925.93 133.006 2925.93 142.361V158.985C2925.93 160.686 2926.62 161.536 2927.94 161.536C2929.18 161.536 2930.34 160.531 2930.72 159.603ZM2919.82 156.665V143.444C2918.74 144.526 2913.71 144.681 2912.17 144.99C2908.61 145.686 2906.83 148.856 2906.83 154.578C2906.83 159.603 2908.69 162.077 2912.47 162.077C2916.26 162.077 2919.82 159.526 2919.82 156.665ZM2997.72 161.691V162H2982.18V161.691H2986.89V136.563C2986.89 131.537 2983.42 128.676 2980.25 128.676C2977.69 128.676 2975.61 129.449 2973.98 130.996C2972.36 132.465 2971.51 134.089 2971.51 135.712V161.691H2976.3V162H2960.68V161.691H2965.4V136.563C2965.4 131.537 2961.92 128.676 2958.83 128.676C2954.34 128.676 2951.41 130.841 2950.09 135.171V161.691H2954.81V162H2939.27V161.691H2943.98V129.372H2939.27V129.063H2950.09V134.398C2951.41 130.3 2954.89 128.367 2958.83 128.367C2965.56 128.367 2969.73 130.609 2971.28 135.016C2972.13 130.919 2976.3 128.367 2980.25 128.367C2988.75 128.367 2993 132.156 2993 139.655V161.691H2997.72ZM3059.88 145.763C3059.88 150.17 3058.26 154.036 3055.09 157.516C3051.92 160.995 3048.21 162.696 3043.8 162.696C3040.94 162.696 3038.54 161.691 3036.61 159.603V185.582H3041.4V185.891H3025.78V185.582H3030.5V129.372H3025.78V129.063H3036.61V131.46C3038.54 129.372 3040.94 128.367 3043.8 128.367C3048.13 128.367 3051.92 130.145 3055.09 133.779C3058.26 137.336 3059.88 141.356 3059.88 145.763ZM3053.7 145.763C3053.7 137.722 3052.38 132.619 3049.75 130.377C3048.44 129.218 3046.43 128.676 3043.8 128.676C3040.78 128.676 3038.39 129.759 3036.61 132.001V158.134C3037.61 160.918 3040.63 162.387 3043.8 162.387C3046.43 162.387 3048.44 161.845 3049.75 160.686C3052.38 158.443 3053.7 153.495 3053.7 145.763ZM3088.33 162.696C3083.93 162.696 3080.14 160.995 3076.97 157.67C3073.8 154.346 3072.25 150.248 3072.25 145.531C3072.25 140.815 3073.8 136.717 3076.97 133.393C3080.14 130.068 3083.93 128.367 3088.33 128.367C3092.82 128.367 3096.61 130.068 3099.78 133.393C3102.95 136.717 3104.49 140.815 3104.49 145.531C3104.49 150.248 3102.95 154.346 3099.78 157.67C3096.61 160.995 3092.82 162.696 3088.33 162.696ZM3098.31 145.531C3098.31 137.8 3096.99 132.774 3094.36 130.455C3092.97 129.295 3090.96 128.676 3088.33 128.676C3085.7 128.676 3083.69 129.295 3082.38 130.455C3079.75 132.697 3078.44 137.722 3078.44 145.531C3078.44 154.5 3079.6 158.289 3082.38 160.686C3083.69 161.845 3085.7 162.387 3088.33 162.387C3091.04 162.387 3093.05 161.845 3094.36 160.686C3097.07 158.443 3098.31 154.423 3098.31 145.531ZM3145.4 155.273L3145.63 155.428C3142.46 160.299 3138.29 162.696 3132.95 162.696C3128.54 162.696 3124.76 160.995 3121.59 157.67C3118.42 154.346 3116.87 150.248 3116.87 145.531C3116.87 140.815 3118.42 136.717 3121.59 133.393C3124.76 130.068 3128.54 128.367 3132.95 128.367C3139.52 128.367 3143 131.46 3143 135.403C3143 137.568 3142 138.65 3139.91 138.65C3138.05 138.65 3136.89 137.49 3136.89 135.944C3136.89 134.784 3137.74 133.779 3137.74 132.233C3137.74 129.527 3136.66 128.676 3132.95 128.676C3130.32 128.676 3128.31 129.295 3127 130.455C3124.21 132.851 3123.05 136.64 3123.05 145.531C3123.05 154.5 3124.21 158.289 3127 160.686C3128.31 161.845 3130.32 162.387 3132.95 162.387C3138.21 162.387 3142.38 159.99 3145.4 155.273ZM3192.38 161.691V162H3174.91V161.691H3179.63L3165.48 144.294V161.691H3170.27V162H3154.65V161.691H3159.37V105.481H3154.65V105.172H3165.48V143.83L3178.62 131.924C3180.48 130.223 3180.94 129.372 3179.94 129.372H3175.22V129.063H3186.74V129.372H3183.26C3182.25 129.372 3180.94 130.223 3179.16 131.846L3169.57 140.506L3187.13 161.691H3192.38ZM3224.91 143.444V143.676H3202.33C3202.25 144.062 3202.25 144.758 3202.25 145.609C3202.25 150.248 3202.48 153.65 3202.95 155.815C3203.49 157.98 3204.34 159.603 3205.65 160.686C3206.97 161.845 3208.9 162.387 3211.38 162.387C3216.56 162.387 3221.12 159.449 3223.98 154.887L3224.21 155.041C3221.19 159.68 3216.56 162.696 3211.38 162.696C3206.97 162.696 3203.26 161.072 3200.24 157.748C3197.3 154.423 3195.83 150.325 3195.83 145.609C3195.83 140.815 3197.3 136.717 3200.24 133.393C3203.26 130.068 3206.97 128.367 3211.38 128.367C3220.96 128.367 3224.98 137.645 3224.91 143.444ZM3202.33 143.367H3218.72C3218.57 136.485 3217.64 132.156 3216.01 130.455C3214.85 129.295 3213.31 128.676 3211.38 128.676C3208.98 128.676 3207.05 129.295 3205.65 130.455C3203.57 132.233 3202.48 136.563 3202.33 143.367ZM3254.15 155.737L3254.46 155.892C3253.3 160.454 3250.82 162.696 3247.03 162.696C3242.78 162.696 3240.69 160.144 3240.69 155.119V129.372H3234.9V129.063H3240.69V119.862C3243.94 119.398 3245.87 118.238 3246.49 116.306H3246.8V129.063H3253.68V129.372H3246.8V159.294C3246.8 160.763 3247.58 161.536 3249.04 161.536C3251.21 161.536 3253.22 159.449 3254.15 155.737ZM3287.95 151.871C3287.95 158.366 3284.24 162.696 3277.12 162.696C3275.58 162.696 3273.95 162.387 3272.25 161.691C3270.55 160.995 3269.32 160.608 3268.62 160.608C3267.38 160.608 3266.15 161.459 3265.91 162.077H3265.6V151.253H3265.91C3265.84 154.114 3266.84 156.742 3269.01 158.985C3271.25 161.227 3273.95 162.387 3277.12 162.387C3281.53 162.387 3284.47 159.99 3284.47 155.583C3284.47 151.485 3281.45 148.933 3275.66 147C3269.55 144.913 3266.69 142.903 3266.69 138.264C3266.69 132.388 3270.71 128.367 3275.66 128.367C3277.2 128.367 3279.6 129.14 3282 129.14C3283.08 129.14 3283.62 128.754 3283.62 128.058H3283.93V136.795H3283.62C3283.62 131.769 3279.75 128.676 3275.66 128.676C3271.87 128.676 3269.55 130.609 3269.55 134.011C3269.55 137.8 3272.41 140.583 3278.21 142.361C3284.47 144.294 3287.95 147.155 3287.95 151.871ZM3307.52 159.912C3307.52 161.923 3306.67 164.242 3304.97 166.871C3303.27 169.577 3301.41 171.201 3299.32 171.819L3299.25 171.587C3301.64 170.737 3303.96 168.417 3303.96 165.943C3303.96 164.32 3303.19 163.005 3301.64 161.923C3300.48 161.072 3299.94 160.067 3299.94 158.907C3299.94 156.82 3301.57 155.119 3303.65 155.119C3306.13 155.119 3307.52 156.897 3307.52 159.912ZM3371.66 145.763C3371.66 150.17 3370.04 154.036 3366.87 157.516C3363.7 160.995 3359.99 162.696 3355.58 162.696C3352.72 162.696 3350.32 161.691 3348.39 159.603V185.582H3353.18V185.891H3337.57V185.582H3342.28V129.372H3337.57V129.063H3348.39V131.46C3350.32 129.372 3352.72 128.367 3355.58 128.367C3359.91 128.367 3363.7 130.145 3366.87 133.779C3370.04 137.336 3371.66 141.356 3371.66 145.763ZM3365.48 145.763C3365.48 137.722 3364.16 132.619 3361.53 130.377C3360.22 129.218 3358.21 128.676 3355.58 128.676C3352.56 128.676 3350.17 129.759 3348.39 132.001V158.134C3349.39 160.918 3352.41 162.387 3355.58 162.387C3358.21 162.387 3360.22 161.845 3361.53 160.686C3364.16 158.443 3365.48 153.495 3365.48 145.763ZM3413.8 159.603L3414.03 159.68C3413.65 161.227 3411.63 162.619 3408.93 162.619C3405.76 162.619 3403.9 160.995 3403.28 157.67C3402.36 160.84 3398.49 162.619 3394.16 162.619C3388.36 162.619 3383.96 160.222 3383.96 154.578C3383.96 150.789 3385.5 148.006 3387.74 146.769C3390.14 145.454 3391.84 144.99 3393.77 144.758C3398.8 144.294 3401.66 143.753 3402.43 143.212C3402.67 142.98 3402.82 142.671 3402.9 142.439V136.563C3402.9 130.919 3400.19 128.676 3396.87 128.676C3394.63 128.676 3393.54 129.836 3393.54 132.156C3393.54 133.006 3394.08 134.243 3394.08 134.939C3394.08 136.408 3393 137.568 3390.84 137.568C3388.75 137.568 3387.82 136.099 3387.82 134.243C3387.82 131.382 3391.3 128.367 3396.87 128.367C3404.99 128.367 3409.01 133.006 3409.01 142.361V158.985C3409.01 160.686 3409.7 161.536 3411.02 161.536C3412.25 161.536 3413.41 160.531 3413.8 159.603ZM3402.9 156.665V143.444C3401.82 144.526 3396.79 144.681 3395.24 144.99C3391.69 145.686 3389.91 148.856 3389.91 154.578C3389.91 159.603 3391.76 162.077 3395.55 162.077C3399.34 162.077 3402.9 159.526 3402.9 156.665ZM3440.53 155.737L3440.84 155.892C3439.68 160.454 3437.21 162.696 3433.42 162.696C3429.17 162.696 3427.08 160.144 3427.08 155.119V129.372H3421.28V129.063H3427.08V119.862C3430.33 119.398 3432.26 118.238 3432.88 116.306H3433.19V129.063H3440.07V129.372H3433.19V159.294C3433.19 160.763 3433.96 161.536 3435.43 161.536C3437.59 161.536 3439.61 159.449 3440.53 155.737ZM3479.9 155.273L3480.13 155.428C3476.96 160.299 3472.79 162.696 3467.45 162.696C3463.05 162.696 3459.26 160.995 3456.09 157.67C3452.92 154.346 3451.37 150.248 3451.37 145.531C3451.37 140.815 3452.92 136.717 3456.09 133.393C3459.26 130.068 3463.05 128.367 3467.45 128.367C3474.03 128.367 3477.5 131.46 3477.5 135.403C3477.5 137.568 3476.5 138.65 3474.41 138.65C3472.56 138.65 3471.4 137.49 3471.4 135.944C3471.4 134.784 3472.25 133.779 3472.25 132.233C3472.25 129.527 3471.16 128.676 3467.45 128.676C3464.82 128.676 3462.81 129.295 3461.5 130.455C3458.72 132.851 3457.56 136.64 3457.56 145.531C3457.56 154.5 3458.72 158.289 3461.5 160.686C3462.81 161.845 3464.82 162.387 3467.45 162.387C3472.71 162.387 3476.89 159.99 3479.9 155.273ZM3526.27 161.691V162H3510.65V161.691H3515.37V136.563C3515.37 131.537 3511.89 128.676 3508.79 128.676C3504.31 128.676 3501.37 130.841 3499.98 135.171V161.691H3504.77V162H3489.23V161.691H3493.95V105.481H3489.23V105.172H3499.98V134.398C3501.29 130.3 3504.77 128.367 3508.72 128.367C3516.68 128.367 3521.4 133.006 3521.4 141.279V161.691H3526.27ZM1064.81 218.763C1064.81 223.17 1063.19 227.036 1060.02 230.516C1056.85 233.995 1053.14 235.696 1048.73 235.696C1045.87 235.696 1043.47 234.691 1041.54 232.603V258.582H1046.33V258.891H1030.72V258.582H1035.43V202.372H1030.72V202.063H1041.54V204.46C1043.47 202.372 1045.87 201.367 1048.73 201.367C1053.06 201.367 1056.85 203.145 1060.02 206.779C1063.19 210.336 1064.81 214.356 1064.81 218.763ZM1058.63 218.763C1058.63 210.722 1057.31 205.619 1054.68 203.377C1053.37 202.218 1051.36 201.676 1048.73 201.676C1045.72 201.676 1043.32 202.759 1041.54 205.001V231.134C1042.55 233.918 1045.56 235.387 1048.73 235.387C1051.36 235.387 1053.37 234.845 1054.68 233.686C1057.31 231.443 1058.63 226.495 1058.63 218.763ZM1093.27 235.696C1088.86 235.696 1085.07 233.995 1081.9 230.67C1078.73 227.346 1077.18 223.248 1077.18 218.531C1077.18 213.815 1078.73 209.717 1081.9 206.393C1085.07 203.068 1088.86 201.367 1093.27 201.367C1097.75 201.367 1101.54 203.068 1104.71 206.393C1107.88 209.717 1109.42 213.815 1109.42 218.531C1109.42 223.248 1107.88 227.346 1104.71 230.67C1101.54 233.995 1097.75 235.696 1093.27 235.696ZM1103.24 218.531C1103.24 210.8 1101.93 205.774 1099.3 203.455C1097.9 202.295 1095.89 201.676 1093.27 201.676C1090.64 201.676 1088.63 202.295 1087.31 203.455C1084.68 205.697 1083.37 210.722 1083.37 218.531C1083.37 227.5 1084.53 231.289 1087.31 233.686C1088.63 234.845 1090.64 235.387 1093.27 235.387C1095.97 235.387 1097.98 234.845 1099.3 233.686C1102 231.443 1103.24 227.423 1103.24 218.531ZM1150.33 228.273L1150.56 228.428C1147.39 233.299 1143.22 235.696 1137.88 235.696C1133.48 235.696 1129.69 233.995 1126.52 230.67C1123.35 227.346 1121.8 223.248 1121.8 218.531C1121.8 213.815 1123.35 209.717 1126.52 206.393C1129.69 203.068 1133.48 201.367 1137.88 201.367C1144.46 201.367 1147.93 204.46 1147.93 208.403C1147.93 210.568 1146.93 211.65 1144.84 211.65C1142.99 211.65 1141.83 210.49 1141.83 208.944C1141.83 207.784 1142.68 206.779 1142.68 205.233C1142.68 202.527 1141.59 201.676 1137.88 201.676C1135.25 201.676 1133.24 202.295 1131.93 203.455C1129.15 205.851 1127.99 209.64 1127.99 218.531C1127.99 227.5 1129.15 231.289 1131.93 233.686C1133.24 234.845 1135.25 235.387 1137.88 235.387C1143.14 235.387 1147.32 232.99 1150.33 228.273ZM1197.32 234.691V235H1179.84V234.691H1184.56L1170.41 217.294V234.691H1175.2V235H1159.59V234.691H1164.3V178.481H1159.59V178.172H1170.41V216.83L1183.55 204.924C1185.41 203.223 1185.87 202.372 1184.87 202.372H1180.15V202.063H1191.67V202.372H1188.19C1187.19 202.372 1185.87 203.223 1184.09 204.846L1174.51 213.506L1192.06 234.691H1197.32ZM1229.84 216.444V216.676H1207.26C1207.18 217.062 1207.18 217.758 1207.18 218.609C1207.18 223.248 1207.42 226.65 1207.88 228.815C1208.42 230.98 1209.27 232.603 1210.59 233.686C1211.9 234.845 1213.83 235.387 1216.31 235.387C1221.49 235.387 1226.05 232.449 1228.91 227.887L1229.14 228.041C1226.13 232.68 1221.49 235.696 1216.31 235.696C1211.9 235.696 1208.19 234.072 1205.17 230.748C1202.24 227.423 1200.77 223.325 1200.77 218.609C1200.77 213.815 1202.24 209.717 1205.17 206.393C1208.19 203.068 1211.9 201.367 1216.31 201.367C1225.9 201.367 1229.92 210.645 1229.84 216.444ZM1207.26 216.367H1223.65C1223.5 209.485 1222.57 205.156 1220.95 203.455C1219.79 202.295 1218.24 201.676 1216.31 201.676C1213.91 201.676 1211.98 202.295 1210.59 203.455C1208.5 205.233 1207.42 209.563 1207.26 216.367ZM1259.08 228.737L1259.39 228.892C1258.23 233.454 1255.75 235.696 1251.97 235.696C1247.71 235.696 1245.63 233.144 1245.63 228.119V202.372H1239.83V202.063H1245.63V192.862C1248.87 192.398 1250.81 191.238 1251.43 189.306H1251.73V202.063H1258.62V202.372H1251.73V232.294C1251.73 233.763 1252.51 234.536 1253.98 234.536C1256.14 234.536 1258.15 232.449 1259.08 228.737ZM1292.88 224.871C1292.88 231.366 1289.17 235.696 1282.06 235.696C1280.51 235.696 1278.89 235.387 1277.19 234.691C1275.48 233.995 1274.25 233.608 1273.55 233.608C1272.31 233.608 1271.08 234.459 1270.85 235.077H1270.54V224.253H1270.85C1270.77 227.114 1271.77 229.742 1273.94 231.985C1276.18 234.227 1278.89 235.387 1282.06 235.387C1286.46 235.387 1289.4 232.99 1289.4 228.583C1289.4 224.485 1286.39 221.933 1280.59 220C1274.48 217.913 1271.62 215.903 1271.62 211.264C1271.62 205.388 1275.64 201.367 1280.59 201.367C1282.13 201.367 1284.53 202.14 1286.93 202.14C1288.01 202.14 1288.55 201.754 1288.55 201.058H1288.86V209.795H1288.55C1288.55 204.769 1284.69 201.676 1280.59 201.676C1276.8 201.676 1274.48 203.609 1274.48 207.011C1274.48 210.8 1277.34 213.583 1283.14 215.361C1289.4 217.294 1292.88 220.155 1292.88 224.871ZM1375.3 202.063V202.372H1371.82C1370.81 202.372 1370.35 202.836 1369.42 205.619L1358.9 235.619H1358.44L1347.15 209.872L1338.11 235.619H1337.64L1323.03 202.372H1318.85V202.063H1333.47V202.372H1329.14L1340.5 227.81L1347 209.408L1343.83 202.372H1340.19V202.063H1354.73V202.372H1349.94L1361.3 227.732L1369.11 205.619C1369.88 203.455 1369.81 202.372 1368.88 202.372H1365.4V202.063H1375.3ZM1396.94 234.691V235H1381.33V234.691H1386.04V202.372H1381.33V202.063H1392.15V234.691H1396.94ZM1389.06 192.244C1386.97 192.244 1385.27 190.465 1385.27 188.223C1385.27 185.981 1386.97 184.203 1389.06 184.203C1391.22 184.203 1392.92 185.981 1392.92 188.223C1392.92 190.465 1391.22 192.244 1389.06 192.244ZM1424.93 228.737L1425.24 228.892C1424.08 233.454 1421.61 235.696 1417.82 235.696C1413.57 235.696 1411.48 233.144 1411.48 228.119V202.372H1405.68V202.063H1411.48V192.862C1414.73 192.398 1416.66 191.238 1417.28 189.306H1417.59V202.063H1424.47V202.372H1417.59V232.294C1417.59 233.763 1418.36 234.536 1419.83 234.536C1422 234.536 1424.01 232.449 1424.93 228.737ZM1471.26 234.691V235H1455.64V234.691H1460.36V209.563C1460.36 204.537 1456.88 201.676 1453.79 201.676C1449.3 201.676 1446.36 203.841 1444.97 208.171V234.691H1449.77V235H1434.23V234.691H1438.94V178.481H1434.23V178.172H1444.97V207.398C1446.29 203.3 1449.77 201.367 1453.71 201.367C1461.67 201.367 1466.39 206.006 1466.39 214.279V234.691H1471.26ZM1519.17 234.691H1523.89V184.589C1523.89 180.105 1522.34 177.863 1519.17 177.863C1514.76 177.863 1511.67 180.723 1511.67 186.986V202.063H1518.47V202.372H1511.67V234.691H1516.39V235H1500.69V234.691H1505.56V202.372H1499.69V202.063H1505.56V200.285C1505.56 191.934 1506.64 186.058 1508.89 182.656C1511.13 179.177 1514.69 177.476 1519.56 177.476C1521.8 177.476 1523.81 177.94 1525.66 178.79L1529.68 177.476L1529.99 177.631V234.691H1534.79V235H1519.17V234.691ZM1574.47 232.603L1574.71 232.68C1574.32 234.227 1572.31 235.619 1569.6 235.619C1566.43 235.619 1564.58 233.995 1563.96 230.67C1563.03 233.84 1559.17 235.619 1554.84 235.619C1549.04 235.619 1544.63 233.222 1544.63 227.578C1544.63 223.789 1546.18 221.006 1548.42 219.769C1550.82 218.454 1552.52 217.99 1554.45 217.758C1559.48 217.294 1562.34 216.753 1563.11 216.212C1563.34 215.98 1563.5 215.671 1563.57 215.439V209.563C1563.57 203.919 1560.87 201.676 1557.54 201.676C1555.3 201.676 1554.22 202.836 1554.22 205.156C1554.22 206.006 1554.76 207.243 1554.76 207.939C1554.76 209.408 1553.68 210.568 1551.51 210.568C1549.42 210.568 1548.5 209.099 1548.5 207.243C1548.5 204.382 1551.98 201.367 1557.54 201.367C1565.66 201.367 1569.68 206.006 1569.68 215.361V231.985C1569.68 233.686 1570.38 234.536 1571.69 234.536C1572.93 234.536 1574.09 233.531 1574.47 232.603ZM1563.57 229.665V216.444C1562.49 217.526 1557.47 217.681 1555.92 217.99C1552.36 218.686 1550.58 221.856 1550.58 227.578C1550.58 232.603 1552.44 235.077 1556.23 235.077C1560.02 235.077 1563.57 232.526 1563.57 229.665ZM1617.12 218.763C1617.12 223.17 1615.49 227.036 1612.32 230.516C1609.15 233.995 1605.44 235.696 1601.04 235.696C1598.17 235.696 1595.78 234.691 1593.84 232.603V258.582H1598.64V258.891H1583.02V258.582H1587.74V202.372H1583.02V202.063H1593.84V204.46C1595.78 202.372 1598.17 201.367 1601.04 201.367C1605.36 201.367 1609.15 203.145 1612.32 206.779C1615.49 210.336 1617.12 214.356 1617.12 218.763ZM1610.93 218.763C1610.93 210.722 1609.62 205.619 1606.99 203.377C1605.67 202.218 1603.66 201.676 1601.04 201.676C1598.02 201.676 1595.62 202.759 1593.84 205.001V231.134C1594.85 233.918 1597.87 235.387 1601.04 235.387C1603.66 235.387 1605.67 234.845 1606.99 233.686C1609.62 231.443 1610.93 226.495 1610.93 218.763ZM1652.45 224.871C1652.45 231.366 1648.74 235.696 1641.63 235.696C1640.08 235.696 1638.46 235.387 1636.76 234.691C1635.05 233.995 1633.82 233.608 1633.12 233.608C1631.88 233.608 1630.65 234.459 1630.42 235.077H1630.11V224.253H1630.42C1630.34 227.114 1631.34 229.742 1633.51 231.985C1635.75 234.227 1638.46 235.387 1641.63 235.387C1646.03 235.387 1648.97 232.99 1648.97 228.583C1648.97 224.485 1645.96 221.933 1640.16 220C1634.05 217.913 1631.19 215.903 1631.19 211.264C1631.19 205.388 1635.21 201.367 1640.16 201.367C1641.7 201.367 1644.1 202.14 1646.5 202.14C1647.58 202.14 1648.12 201.754 1648.12 201.058H1648.43V209.795H1648.12C1648.12 204.769 1644.26 201.676 1640.16 201.676C1636.37 201.676 1634.05 203.609 1634.05 207.011C1634.05 210.8 1636.91 213.583 1642.71 215.361C1648.97 217.294 1652.45 220.155 1652.45 224.871ZM1700.07 235.696C1695.67 235.696 1691.88 233.995 1688.71 230.67C1685.54 227.346 1683.99 223.248 1683.99 218.531C1683.99 213.815 1685.54 209.717 1688.71 206.393C1691.88 203.068 1695.67 201.367 1700.07 201.367C1704.56 201.367 1708.35 203.068 1711.52 206.393C1714.69 209.717 1716.23 213.815 1716.23 218.531C1716.23 223.248 1714.69 227.346 1711.52 230.67C1708.35 233.995 1704.56 235.696 1700.07 235.696ZM1710.05 218.531C1710.05 210.8 1708.73 205.774 1706.1 203.455C1704.71 202.295 1702.7 201.676 1700.07 201.676C1697.44 201.676 1695.43 202.295 1694.12 203.455C1691.49 205.697 1690.18 210.722 1690.18 218.531C1690.18 227.5 1691.34 231.289 1694.12 233.686C1695.43 234.845 1697.44 235.387 1700.07 235.387C1702.78 235.387 1704.79 234.845 1706.1 233.686C1708.81 231.443 1710.05 227.423 1710.05 218.531ZM1764.1 234.691V235H1748.48V234.691H1753.19V209.563C1753.19 204.537 1749.72 201.676 1746.62 201.676C1742.14 201.676 1739.2 203.841 1737.81 208.171V234.691H1742.6V235H1727.06V234.691H1731.78V202.372H1726.98V202.063H1737.81V207.398C1739.12 203.3 1742.6 201.367 1746.55 201.367C1754.51 201.367 1759.23 206.006 1759.23 214.279V234.691H1764.1ZM1811 228.737L1811.31 228.892C1810.15 233.454 1807.68 235.696 1803.89 235.696C1799.63 235.696 1797.55 233.144 1797.55 228.119V202.372H1791.75V202.063H1797.55V192.862C1800.79 192.398 1802.73 191.238 1803.35 189.306H1803.65V202.063H1810.54V202.372H1803.65V232.294C1803.65 233.763 1804.43 234.536 1805.9 234.536C1808.06 234.536 1810.07 232.449 1811 228.737ZM1857.33 234.691V235H1841.71V234.691H1846.43V209.563C1846.43 204.537 1842.95 201.676 1839.85 201.676C1835.37 201.676 1832.43 203.841 1831.04 208.171V234.691H1835.83V235H1820.29V234.691H1825.01V178.481H1820.29V178.172H1831.04V207.398C1832.35 203.3 1835.83 201.367 1839.78 201.367C1847.74 201.367 1852.46 206.006 1852.46 214.279V234.691H1857.33ZM1896.28 216.444V216.676H1873.71C1873.63 217.062 1873.63 217.758 1873.63 218.609C1873.63 223.248 1873.86 226.65 1874.32 228.815C1874.87 230.98 1875.72 232.603 1877.03 233.686C1878.34 234.845 1880.28 235.387 1882.75 235.387C1887.93 235.387 1892.49 232.449 1895.35 227.887L1895.59 228.041C1892.57 232.68 1887.93 235.696 1882.75 235.696C1878.34 235.696 1874.63 234.072 1871.62 230.748C1868.68 227.423 1867.21 223.325 1867.21 218.609C1867.21 213.815 1868.68 209.717 1871.62 206.393C1874.63 203.068 1878.34 201.367 1882.75 201.367C1892.34 201.367 1896.36 210.645 1896.28 216.444ZM1873.71 216.367H1890.1C1889.94 209.485 1889.01 205.156 1887.39 203.455C1886.23 202.295 1884.68 201.676 1882.75 201.676C1880.35 201.676 1878.42 202.295 1877.03 203.455C1874.94 205.233 1873.86 209.563 1873.71 216.367ZM1941.82 234.691V235H1926.2V234.691H1931V178.481H1926.2V178.172H1937.03V234.691H1941.82ZM1980.75 216.444V216.676H1958.18C1958.1 217.062 1958.1 217.758 1958.1 218.609C1958.1 223.248 1958.33 226.65 1958.8 228.815C1959.34 230.98 1960.19 232.603 1961.5 233.686C1962.82 234.845 1964.75 235.387 1967.22 235.387C1972.4 235.387 1976.97 232.449 1979.83 227.887L1980.06 228.041C1977.04 232.68 1972.4 235.696 1967.22 235.696C1962.82 235.696 1959.11 234.072 1956.09 230.748C1953.15 227.423 1951.68 223.325 1951.68 218.609C1951.68 213.815 1953.15 209.717 1956.09 206.393C1959.11 203.068 1962.82 201.367 1967.22 201.367C1976.81 201.367 1980.83 210.645 1980.75 216.444ZM1958.18 216.367H1974.57C1974.41 209.485 1973.49 205.156 1971.86 203.455C1970.7 202.295 1969.16 201.676 1967.22 201.676C1964.83 201.676 1962.89 202.295 1961.5 203.455C1959.41 205.233 1958.33 209.563 1958.18 216.367ZM2027.95 204.846C2027.95 206.083 2026.79 207.475 2025.55 207.475C2024.24 207.475 2023.23 206.547 2023.23 205.619C2023.23 204.769 2023.85 204.228 2023.85 203.687C2023.85 202.836 2023.39 202.449 2022.46 202.449C2020.68 202.449 2019.21 203.764 2018.05 206.315C2019.76 208.635 2020.61 211.109 2020.61 213.815C2020.61 217.217 2019.37 220.155 2016.82 222.552C2014.34 224.949 2011.33 226.186 2007.85 226.186C2003.83 226.186 2000.58 224.717 1998.11 221.701C1996.41 222.861 1995.55 224.64 1995.55 226.882C1995.55 231.598 1997.95 233.995 2002.67 233.995H2011.56C2022.38 233.995 2026.95 236.469 2026.95 244.742C2026.95 254.02 2016.59 259.664 2008.39 259.432C2003.21 259.432 1999.03 258.427 1995.71 256.34C1992.46 254.252 1990.84 251.778 1990.84 248.762C1990.84 246.598 1991.61 244.433 1993.08 242.345C1994.63 240.258 1996.48 238.943 1998.72 238.402C1994.47 237.242 1992.38 234.768 1992.38 230.98C1992.38 227.036 1994.24 223.866 1997.95 221.469C1996.1 219.227 1995.17 216.676 1995.17 213.815C1995.17 210.336 1996.41 207.398 1998.88 205.001C2001.35 202.604 2004.37 201.367 2007.85 201.367C2011.95 201.367 2015.19 202.913 2017.74 206.006C2019.29 202.913 2021.46 201.367 2024.16 201.367C2026.25 201.367 2027.95 202.681 2027.95 204.846ZM2014.81 213.738C2014.81 208.016 2013.96 204.382 2012.18 202.836C2011.17 202.063 2009.78 201.676 2007.85 201.676C2005.99 201.676 2004.6 202.063 2003.6 202.836C2001.82 204.382 2000.97 208.016 2000.97 213.738C2000.97 220.232 2001.66 222.939 2003.6 224.562C2004.6 225.413 2006.07 225.877 2007.85 225.877C2009.7 225.877 2011.17 225.413 2012.18 224.562C2014.11 222.939 2014.81 220.232 2014.81 213.738ZM2023.54 248.067C2023.54 242.5 2020.91 238.789 2015.27 238.789H2001.97C2001.04 238.789 2000.19 238.711 1999.34 238.557C1997.26 239.871 1995.71 243.273 1995.71 247.835C1995.71 255.334 1999.96 259.123 2008.39 259.123C2012.41 259.123 2015.97 258.118 2018.98 256.185C2022 254.252 2023.54 251.546 2023.54 248.067ZM2058.6 224.871C2058.6 231.366 2054.88 235.696 2047.77 235.696C2046.22 235.696 2044.6 235.387 2042.9 234.691C2041.2 233.995 2039.96 233.608 2039.27 233.608C2038.03 233.608 2036.79 234.459 2036.56 235.077H2036.25V224.253H2036.56C2036.48 227.114 2037.49 229.742 2039.65 231.985C2041.9 234.227 2044.6 235.387 2047.77 235.387C2052.18 235.387 2055.12 232.99 2055.12 228.583C2055.12 224.485 2052.1 221.933 2046.3 220C2040.19 217.913 2037.33 215.903 2037.33 211.264C2037.33 205.388 2041.35 201.367 2046.3 201.367C2047.85 201.367 2050.25 202.14 2052.64 202.14C2053.72 202.14 2054.27 201.754 2054.27 201.058H2054.58V209.795H2054.27C2054.27 204.769 2050.4 201.676 2046.3 201.676C2042.51 201.676 2040.19 203.609 2040.19 207.011C2040.19 210.8 2043.05 213.583 2048.85 215.361C2055.12 217.294 2058.6 220.155 2058.6 224.871ZM2078.17 232.912C2078.17 234.923 2077.32 237.242 2075.61 239.871C2073.91 242.577 2072.06 244.201 2069.97 244.819L2069.89 244.587C2072.29 243.737 2074.61 241.417 2074.61 238.943C2074.61 237.32 2073.84 236.005 2072.29 234.923C2071.13 234.072 2070.59 233.067 2070.59 231.907C2070.59 229.82 2072.21 228.119 2074.3 228.119C2076.77 228.119 2078.17 229.897 2078.17 232.912ZM2133.65 183.198C2133.65 185.053 2132.18 186.754 2130.32 186.754C2128.16 186.754 2127.08 185.904 2127.08 184.125C2127.08 183.12 2128.01 181.806 2128.01 180.491C2128.01 179.022 2126.92 177.94 2125.3 177.94C2122.75 177.94 2120.58 180.646 2120.58 187.063V202.063H2127.46V202.372H2120.58V234.691H2125.3V235H2109.76V234.691H2114.47V202.372H2108.68V202.063H2114.47V200.207C2114.47 184.048 2118.88 177.476 2126.92 177.476C2130.56 177.476 2133.65 180.028 2133.65 183.198ZM2159.95 205.929C2159.95 207.707 2158.48 209.176 2156.7 209.176C2154.77 209.176 2153.53 208.094 2153.53 206.779C2153.53 205.774 2154.38 204.692 2154.38 203.996C2154.38 202.913 2153.76 202.372 2152.45 202.372C2150.36 202.372 2148.66 204.305 2147.42 208.248V234.691H2152.21V235H2136.6V234.691H2141.31V202.372H2136.6V202.063H2147.42V207.243C2148.73 203.3 2151.13 201.367 2154.61 201.367C2158.17 201.367 2159.95 202.913 2159.95 205.929ZM2185.63 235.696C2181.22 235.696 2177.43 233.995 2174.26 230.67C2171.09 227.346 2169.55 223.248 2169.55 218.531C2169.55 213.815 2171.09 209.717 2174.26 206.393C2177.43 203.068 2181.22 201.367 2185.63 201.367C2190.11 201.367 2193.9 203.068 2197.07 206.393C2200.24 209.717 2201.79 213.815 2201.79 218.531C2201.79 223.248 2200.24 227.346 2197.07 230.67C2193.9 233.995 2190.11 235.696 2185.63 235.696ZM2195.6 218.531C2195.6 210.8 2194.29 205.774 2191.66 203.455C2190.27 202.295 2188.26 201.676 2185.63 201.676C2183 201.676 2180.99 202.295 2179.68 203.455C2177.05 205.697 2175.73 210.722 2175.73 218.531C2175.73 227.5 2176.89 231.289 2179.68 233.686C2180.99 234.845 2183 235.387 2185.63 235.387C2188.34 235.387 2190.35 234.845 2191.66 233.686C2194.37 231.443 2195.6 227.423 2195.6 218.531ZM2249.65 234.691V235H2234.04V234.691H2238.75V209.563C2238.75 204.537 2235.27 201.676 2232.18 201.676C2227.7 201.676 2224.76 203.841 2223.37 208.171V234.691H2228.16V235H2212.62V234.691H2217.34V202.372H2212.54V202.063H2223.37V207.398C2224.68 203.3 2228.16 201.367 2232.1 201.367C2240.07 201.367 2244.78 206.006 2244.78 214.279V234.691H2249.65ZM2276.86 228.737L2277.17 228.892C2276.01 233.454 2273.53 235.696 2269.74 235.696C2265.49 235.696 2263.4 233.144 2263.4 228.119V202.372H2257.61V202.063H2263.4V192.862C2266.65 192.398 2268.58 191.238 2269.2 189.306H2269.51V202.063H2276.39V202.372H2269.51V232.294C2269.51 233.763 2270.29 234.536 2271.75 234.536C2273.92 234.536 2275.93 232.449 2276.86 228.737ZM2339.87 218.763C2339.87 223.17 2338.25 227.036 2335.08 230.516C2331.91 233.995 2328.19 235.696 2323.79 235.696C2320.93 235.696 2318.53 234.691 2316.6 232.603V258.582H2321.39V258.891H2305.77V258.582H2310.49V202.372H2305.77V202.063H2316.6V204.46C2318.53 202.372 2320.93 201.367 2323.79 201.367C2328.12 201.367 2331.91 203.145 2335.08 206.779C2338.25 210.336 2339.87 214.356 2339.87 218.763ZM2333.68 218.763C2333.68 210.722 2332.37 205.619 2329.74 203.377C2328.43 202.218 2326.42 201.676 2323.79 201.676C2320.77 201.676 2318.38 202.759 2316.6 205.001V231.134C2317.6 233.918 2320.62 235.387 2323.79 235.387C2326.42 235.387 2328.43 234.845 2329.74 233.686C2332.37 231.443 2333.68 226.495 2333.68 218.763ZM2366.16 234.691V235H2350.54V234.691H2355.33V178.481H2350.54V178.172H2361.36V234.691H2366.16ZM2405.09 216.444V216.676H2382.51C2382.44 217.062 2382.44 217.758 2382.44 218.609C2382.44 223.248 2382.67 226.65 2383.13 228.815C2383.67 230.98 2384.52 232.603 2385.84 233.686C2387.15 234.845 2389.08 235.387 2391.56 235.387C2396.74 235.387 2401.3 232.449 2404.16 227.887L2404.39 228.041C2401.38 232.68 2396.74 235.696 2391.56 235.696C2387.15 235.696 2383.44 234.072 2380.43 230.748C2377.49 227.423 2376.02 223.325 2376.02 218.609C2376.02 213.815 2377.49 209.717 2380.43 206.393C2383.44 203.068 2387.15 201.367 2391.56 201.367C2401.15 201.367 2405.17 210.645 2405.09 216.444ZM2382.51 216.367H2398.9C2398.75 209.485 2397.82 205.156 2396.2 203.455C2395.04 202.295 2393.49 201.676 2391.56 201.676C2389.16 201.676 2387.23 202.295 2385.84 203.455C2383.75 205.233 2382.67 209.563 2382.51 216.367ZM2446.78 232.603L2447.01 232.68C2446.62 234.227 2444.61 235.619 2441.91 235.619C2438.74 235.619 2436.88 233.995 2436.26 230.67C2435.34 233.84 2431.47 235.619 2427.14 235.619C2421.34 235.619 2416.93 233.222 2416.93 227.578C2416.93 223.789 2418.48 221.006 2420.72 219.769C2423.12 218.454 2424.82 217.99 2426.75 217.758C2431.78 217.294 2434.64 216.753 2435.41 216.212C2435.64 215.98 2435.8 215.671 2435.88 215.439V209.563C2435.88 203.919 2433.17 201.676 2429.85 201.676C2427.6 201.676 2426.52 202.836 2426.52 205.156C2426.52 206.006 2427.06 207.243 2427.06 207.939C2427.06 209.408 2425.98 210.568 2423.82 210.568C2421.73 210.568 2420.8 209.099 2420.8 207.243C2420.8 204.382 2424.28 201.367 2429.85 201.367C2437.96 201.367 2441.98 206.006 2441.98 215.361V231.985C2441.98 233.686 2442.68 234.536 2443.99 234.536C2445.23 234.536 2446.39 233.531 2446.78 232.603ZM2435.88 229.665V216.444C2434.79 217.526 2429.77 217.681 2428.22 217.99C2424.67 218.686 2422.89 221.856 2422.89 227.578C2422.89 232.603 2424.74 235.077 2428.53 235.077C2432.32 235.077 2435.88 232.526 2435.88 229.665ZM2473.51 228.737L2473.82 228.892C2472.66 233.454 2470.19 235.696 2466.4 235.696C2462.15 235.696 2460.06 233.144 2460.06 228.119V202.372H2454.26V202.063H2460.06V192.862C2463.31 192.398 2465.24 191.238 2465.86 189.306H2466.17V202.063H2473.05V202.372H2466.17V232.294C2466.17 233.763 2466.94 234.536 2468.41 234.536C2470.57 234.536 2472.58 232.449 2473.51 228.737ZM2507.31 224.871C2507.31 231.366 2503.6 235.696 2496.49 235.696C2494.94 235.696 2493.32 235.387 2491.62 234.691C2489.92 233.995 2488.68 233.608 2487.98 233.608C2486.75 233.608 2485.51 234.459 2485.28 235.077H2484.97V224.253H2485.28C2485.2 227.114 2486.21 229.742 2488.37 231.985C2490.61 234.227 2493.32 235.387 2496.49 235.387C2500.9 235.387 2503.83 232.99 2503.83 228.583C2503.83 224.485 2500.82 221.933 2495.02 220C2488.91 217.913 2486.05 215.903 2486.05 211.264C2486.05 205.388 2490.07 201.367 2495.02 201.367C2496.57 201.367 2498.96 202.14 2501.36 202.14C2502.44 202.14 2502.98 201.754 2502.98 201.058H2503.29V209.795H2502.98C2502.98 204.769 2499.12 201.676 2495.02 201.676C2491.23 201.676 2488.91 203.609 2488.91 207.011C2488.91 210.8 2491.77 213.583 2497.57 215.361C2503.83 217.294 2507.31 220.155 2507.31 224.871ZM2568.62 232.603L2568.85 232.68C2568.46 234.227 2566.45 235.619 2563.75 235.619C2560.58 235.619 2558.72 233.995 2558.1 230.67C2557.18 233.84 2553.31 235.619 2548.98 235.619C2543.18 235.619 2538.77 233.222 2538.77 227.578C2538.77 223.789 2540.32 221.006 2542.56 219.769C2544.96 218.454 2546.66 217.99 2548.59 217.758C2553.62 217.294 2556.48 216.753 2557.25 216.212C2557.49 215.98 2557.64 215.671 2557.72 215.439V209.563C2557.72 203.919 2555.01 201.676 2551.69 201.676C2549.44 201.676 2548.36 202.836 2548.36 205.156C2548.36 206.006 2548.9 207.243 2548.9 207.939C2548.9 209.408 2547.82 210.568 2545.66 210.568C2543.57 210.568 2542.64 209.099 2542.64 207.243C2542.64 204.382 2546.12 201.367 2551.69 201.367C2559.81 201.367 2563.83 206.006 2563.83 215.361V231.985C2563.83 233.686 2564.52 234.536 2565.84 234.536C2567.07 234.536 2568.23 233.531 2568.62 232.603ZM2557.72 229.665V216.444C2556.64 217.526 2551.61 217.681 2550.06 217.99C2546.51 218.686 2544.73 221.856 2544.73 227.578C2544.73 232.603 2546.58 235.077 2550.37 235.077C2554.16 235.077 2557.72 232.526 2557.72 229.665ZM2614.28 234.691V235H2598.66V234.691H2603.38V209.563C2603.38 204.537 2599.9 201.676 2596.8 201.676C2592.32 201.676 2589.38 203.841 2587.99 208.171V234.691H2592.78V235H2577.24V234.691H2581.96V202.372H2577.16V202.063H2587.99V207.398C2589.3 203.3 2592.78 201.367 2596.73 201.367C2604.69 201.367 2609.41 206.006 2609.41 214.279V234.691H2614.28ZM2658.34 234.691V235H2647.51V231.366C2646.81 233.763 2644.34 235.696 2640.4 235.696C2635.99 235.696 2632.2 233.995 2629.03 230.516C2625.86 227.036 2624.24 223.093 2624.24 218.686C2624.24 214.279 2625.86 210.336 2629.03 206.779C2632.2 203.145 2635.99 201.367 2640.4 201.367C2643.26 201.367 2645.58 202.372 2647.51 204.46V178.481H2642.79V178.172H2653.62V234.691H2658.34ZM2647.51 229.51V205.001C2645.73 202.759 2643.34 201.676 2640.4 201.676C2637.77 201.676 2635.76 202.295 2634.37 203.455C2631.74 205.697 2630.42 210.722 2630.42 218.686C2630.42 226.495 2631.74 231.443 2634.37 233.686C2635.76 234.845 2637.77 235.387 2640.4 235.387C2644.8 235.387 2647.51 232.835 2647.51 229.51ZM2744.78 234.691V235H2729.24V234.691H2733.95V209.563C2733.95 204.537 2730.48 201.676 2727.31 201.676C2724.75 201.676 2722.67 202.449 2721.04 203.996C2719.42 205.465 2718.57 207.089 2718.57 208.712V234.691H2723.36V235H2707.74V234.691H2712.46V209.563C2712.46 204.537 2708.98 201.676 2705.89 201.676C2701.4 201.676 2698.47 203.841 2697.15 208.171V234.691H2701.87V235H2686.33V234.691H2691.04V202.372H2686.33V202.063H2697.15V207.398C2698.47 203.3 2701.95 201.367 2705.89 201.367C2712.61 201.367 2716.79 203.609 2718.34 208.016C2719.19 203.919 2723.36 201.367 2727.31 201.367C2735.81 201.367 2740.06 205.156 2740.06 212.655V234.691H2744.78ZM2783.84 216.444V216.676H2761.26C2761.18 217.062 2761.18 217.758 2761.18 218.609C2761.18 223.248 2761.42 226.65 2761.88 228.815C2762.42 230.98 2763.27 232.603 2764.59 233.686C2765.9 234.845 2767.83 235.387 2770.31 235.387C2775.49 235.387 2780.05 232.449 2782.91 227.887L2783.14 228.041C2780.13 232.68 2775.49 235.696 2770.31 235.696C2765.9 235.696 2762.19 234.072 2759.17 230.748C2756.24 227.423 2754.77 223.325 2754.77 218.609C2754.77 213.815 2756.24 209.717 2759.17 206.393C2762.19 203.068 2765.9 201.367 2770.31 201.367C2779.89 201.367 2783.92 210.645 2783.84 216.444ZM2761.26 216.367H2777.65C2777.5 209.485 2776.57 205.156 2774.95 203.455C2773.79 202.295 2772.24 201.676 2770.31 201.676C2767.91 201.676 2765.98 202.295 2764.59 203.455C2762.5 205.233 2761.42 209.563 2761.26 216.367ZM2813.08 228.737L2813.39 228.892C2812.23 233.454 2809.75 235.696 2805.97 235.696C2801.71 235.696 2799.63 233.144 2799.63 228.119V202.372H2793.83V202.063H2799.63V192.862C2802.87 192.398 2804.81 191.238 2805.42 189.306H2805.73V202.063H2812.61V202.372H2805.73V232.294C2805.73 233.763 2806.51 234.536 2807.98 234.536C2810.14 234.536 2812.15 232.449 2813.08 228.737ZM2853.68 232.603L2853.92 232.68C2853.53 234.227 2851.52 235.619 2848.81 235.619C2845.64 235.619 2843.79 233.995 2843.17 230.67C2842.24 233.84 2838.38 235.619 2834.05 235.619C2828.25 235.619 2823.84 233.222 2823.84 227.578C2823.84 223.789 2825.39 221.006 2827.63 219.769C2830.02 218.454 2831.73 217.99 2833.66 217.758C2838.68 217.294 2841.55 216.753 2842.32 216.212C2842.55 215.98 2842.7 215.671 2842.78 215.439V209.563C2842.78 203.919 2840.08 201.676 2836.75 201.676C2834.51 201.676 2833.43 202.836 2833.43 205.156C2833.43 206.006 2833.97 207.243 2833.97 207.939C2833.97 209.408 2832.89 210.568 2830.72 210.568C2828.63 210.568 2827.71 209.099 2827.71 207.243C2827.71 204.382 2831.18 201.367 2836.75 201.367C2844.87 201.367 2848.89 206.006 2848.89 215.361V231.985C2848.89 233.686 2849.59 234.536 2850.9 234.536C2852.14 234.536 2853.3 233.531 2853.68 232.603ZM2842.78 229.665V216.444C2841.7 217.526 2836.67 217.681 2835.13 217.99C2831.57 218.686 2829.79 221.856 2829.79 227.578C2829.79 232.603 2831.65 235.077 2835.44 235.077C2839.23 235.077 2842.78 232.526 2842.78 229.665ZM2877.77 234.691V235H2862.15V234.691H2866.95V178.481H2862.15V178.172H2872.98V234.691H2877.77ZM2933.54 224.408V235H2905.79L2926.66 202.372H2919.01C2911.82 202.372 2908.72 205.465 2908.72 211.65H2908.41V202.063H2933.31L2912.36 234.691H2921.94C2929.44 234.691 2933.23 231.289 2933.23 224.408H2933.54ZM2960.83 234.691V235H2945.21V234.691H2949.93V202.372H2945.21V202.063H2956.03V234.691H2960.83ZM2952.94 192.244C2950.85 192.244 2949.15 190.465 2949.15 188.223C2949.15 185.981 2950.85 184.203 2952.94 184.203C2955.11 184.203 2956.81 185.981 2956.81 188.223C2956.81 190.465 2955.11 192.244 2952.94 192.244ZM3003.97 218.763C3003.97 223.17 3002.35 227.036 2999.18 230.516C2996.01 233.995 2992.3 235.696 2987.89 235.696C2985.03 235.696 2982.63 234.691 2980.7 232.603V258.582H2985.49V258.891H2969.88V258.582H2974.59V202.372H2969.88V202.063H2980.7V204.46C2982.63 202.372 2985.03 201.367 2987.89 201.367C2992.22 201.367 2996.01 203.145 2999.18 206.779C3002.35 210.336 3003.97 214.356 3003.97 218.763ZM2997.79 218.763C2997.79 210.722 2996.47 205.619 2993.84 203.377C2992.53 202.218 2990.52 201.676 2987.89 201.676C2984.87 201.676 2982.48 202.759 2980.7 205.001V231.134C2981.7 233.918 2984.72 235.387 2987.89 235.387C2990.52 235.387 2992.53 234.845 2993.84 233.686C2996.47 231.443 2997.79 226.495 2997.79 218.763ZM3039.31 224.871C3039.31 231.366 3035.6 235.696 3028.48 235.696C3026.94 235.696 3025.31 235.387 3023.61 234.691C3021.91 233.995 3020.67 233.608 3019.98 233.608C3018.74 233.608 3017.5 234.459 3017.27 235.077H3016.96V224.253H3017.27C3017.19 227.114 3018.2 229.742 3020.36 231.985C3022.61 234.227 3025.31 235.387 3028.48 235.387C3032.89 235.387 3035.83 232.99 3035.83 228.583C3035.83 224.485 3032.81 221.933 3027.01 220C3020.9 217.913 3018.04 215.903 3018.04 211.264C3018.04 205.388 3022.06 201.367 3027.01 201.367C3028.56 201.367 3030.96 202.14 3033.35 202.14C3034.44 202.14 3034.98 201.754 3034.98 201.058H3035.29V209.795H3034.98C3034.98 204.769 3031.11 201.676 3027.01 201.676C3023.22 201.676 3020.9 203.609 3020.9 207.011C3020.9 210.8 3023.77 213.583 3029.56 215.361C3035.83 217.294 3039.31 220.155 3039.31 224.871ZM3054.78 236.237C3052.69 236.237 3050.99 234.459 3050.99 232.217C3050.99 229.974 3052.69 228.196 3054.78 228.196C3056.94 228.196 3058.64 229.974 3058.64 232.217C3058.64 234.459 3056.94 236.237 3054.78 236.237Z" fill="black"/>
</svg>
