<svg width="3267" height="4096" viewBox="0 0 3267 4096" fill="none" xmlns="http://www.w3.org/2000/svg">
<path d="M157.76 3880.18C157.76 3896.3 158.193 3910.25 159.06 3922.04C160.1 3933.65 161.833 3943.27 164.26 3950.9C166.86 3958.35 170.413 3963.9 174.92 3967.54C179.427 3971.18 185.32 3973 192.6 3973C199.88 3973 205.773 3971.18 210.28 3967.54C214.787 3963.9 218.253 3958.35 220.68 3950.9C223.28 3943.27 225.013 3933.65 225.88 3922.04C226.92 3910.25 227.44 3896.3 227.44 3880.18C227.44 3864.06 226.92 3850.19 225.88 3838.58C225.013 3826.97 223.28 3817.43 220.68 3809.98C218.253 3802.35 214.787 3796.72 210.28 3793.08C205.773 3789.44 199.88 3787.62 192.6 3787.62C185.32 3787.62 179.427 3789.44 174.92 3793.08C170.413 3796.72 166.86 3802.35 164.26 3809.98C161.833 3817.43 160.1 3826.97 159.06 3838.58C158.193 3850.19 157.76 3864.06 157.76 3880.18ZM131.76 3880.18C131.76 3869.78 132.54 3858.95 134.1 3847.68C135.833 3836.24 138.953 3825.84 143.46 3816.48C147.967 3806.95 154.12 3799.15 161.92 3793.08C169.893 3787.01 180.12 3783.98 192.6 3783.98C205.08 3783.98 215.22 3787.01 223.02 3793.08C230.993 3799.15 237.233 3806.95 241.74 3816.48C246.247 3825.84 249.28 3836.24 250.84 3847.68C252.573 3858.95 253.44 3869.78 253.44 3880.18C253.44 3890.75 252.573 3901.76 250.84 3913.2C249.28 3924.47 246.247 3934.87 241.74 3944.4C237.233 3953.76 230.993 3961.47 223.02 3967.54C215.22 3973.61 205.08 3976.64 192.6 3976.64C180.12 3976.64 169.893 3973.61 161.92 3967.54C154.12 3961.47 147.967 3953.76 143.46 3944.4C138.953 3934.87 135.833 3924.47 134.1 3913.2C132.54 3901.76 131.76 3890.75 131.76 3880.18ZM358.618 3973H239.798V3969.36C246.558 3963.64 252.711 3958.35 258.258 3953.5C263.978 3948.65 269.265 3943.88 274.118 3939.2C279.145 3934.52 283.911 3929.75 288.418 3924.9C292.925 3920.05 297.518 3914.85 302.198 3909.3C313.291 3895.78 320.831 3882.69 324.818 3870.04C328.978 3857.39 331.058 3845.69 331.058 3834.94C331.058 3819.34 328.371 3807.55 322.998 3799.58C317.798 3791.61 309.478 3787.62 298.038 3787.62C289.198 3787.62 281.918 3789.61 276.198 3793.6C270.478 3797.41 267.618 3802.79 267.618 3809.72C267.618 3812.15 268.138 3814.66 269.178 3817.26C270.391 3819.69 270.998 3822.2 270.998 3824.8C270.998 3827.75 269.958 3830 267.878 3831.56C265.798 3832.95 263.371 3833.64 260.598 3833.64C256.958 3833.64 253.838 3832.69 251.238 3830.78C248.638 3828.87 247.338 3825.41 247.338 3820.38C247.338 3815.87 248.638 3811.45 251.238 3807.12C253.838 3802.61 257.391 3798.71 261.898 3795.42C266.405 3791.95 271.778 3789.18 278.018 3787.1C284.258 3785.02 290.931 3783.98 298.038 3783.98C308.091 3783.98 316.671 3785.45 323.778 3788.4C331.058 3791.35 337.038 3795.25 341.718 3800.1C346.398 3804.78 349.865 3810.15 352.118 3816.22C354.371 3822.29 355.498 3828.53 355.498 3834.94C355.498 3842.74 354.371 3850.02 352.118 3856.78C349.865 3863.37 346.745 3869.61 342.758 3875.5C338.945 3881.39 334.525 3887.03 329.498 3892.4C324.471 3897.77 319.185 3903.15 313.638 3908.52C305.838 3916.32 298.125 3923.77 290.498 3930.88C283.045 3937.99 274.811 3945.61 265.798 3953.76H325.338C335.565 3953.76 342.931 3951.33 347.438 3946.48C351.945 3941.45 354.718 3934.61 355.758 3925.94H358.618V3973ZM370.716 3962.08C370.716 3958.27 372.016 3955.06 374.616 3952.46C377.39 3949.69 380.683 3948.3 384.496 3948.3C388.31 3948.3 391.516 3949.69 394.116 3952.46C396.89 3955.06 398.276 3958.27 398.276 3962.08C398.276 3965.89 396.89 3969.19 394.116 3971.96C391.516 3974.56 388.31 3975.86 384.496 3975.86C380.683 3975.86 377.39 3974.56 374.616 3971.96C372.016 3969.19 370.716 3965.89 370.716 3962.08Z" fill="white"/>
</svg>
