<svg width="4176" height="700" viewBox="0 0 4176 700" fill="none" xmlns="http://www.w3.org/2000/svg">
<path d="M184.355 173.901L151.618 260.506H217.092L184.355 173.901ZM87.6324 347.408H113.822L194.177 134.319H201.319L282.269 347.408H308.756V351.574H217.092V347.408H250.127L218.878 264.672H149.833L118.584 347.408H151.618V351.574H87.6324V347.408ZM320.223 347.408H353.258V143.843H320.223V139.676H383.912L484.504 301.873H485.099V143.843H452.064V139.676H522.598V143.843H489.563V355.741H483.611L358.317 156.045H357.722V347.408H390.757V351.574H320.223V347.408ZM498.991 347.408H532.026V143.843H498.991V139.676H669.224V191.163H665.95C663.371 183.425 660.593 176.679 657.617 170.925C654.641 164.973 651.07 160.013 646.903 156.045C642.737 151.878 637.776 148.803 632.023 146.819C626.269 144.835 619.325 143.843 611.19 143.843H561.787V235.804H581.131C587.679 235.804 593.234 235.209 597.798 234.019C602.361 232.828 606.23 230.646 609.404 227.471C612.777 224.098 615.555 219.634 617.737 214.079C620.118 208.325 622.4 200.984 624.582 192.056H627.856V284.612H624.582C623.194 278.858 621.706 273.303 620.118 267.946C618.729 262.589 616.646 257.827 613.869 253.661C611.289 249.494 607.718 246.221 603.155 243.84C598.79 241.26 593.036 239.971 585.893 239.971H561.787V347.408H618.035C628.947 347.408 637.975 345.126 645.118 340.563C652.459 335.801 658.411 330.246 662.974 323.897C667.537 317.349 670.91 310.603 673.093 303.659C675.275 296.715 676.664 290.961 677.259 286.398H680.533V351.574H498.991V347.408ZM657.945 139.676H747.525V143.843H716.574L777.882 316.456H778.477L818.059 206.638L795.44 143.843H770.441V139.676H859.724V143.843H827.285L888.592 316.456H889.187L951.685 143.843H919.841V139.676H983.53V143.843H956.745L879.664 356.038H872.224L821.035 213.186H820.44L768.656 356.038H760.62L684.73 143.843H657.945V139.676ZM1013.2 347.408H1046.23V143.843H1028.97C1025.01 143.843 1020.54 144.24 1015.58 145.033C1010.62 145.629 1005.56 147.513 1000.4 150.688C995.442 153.862 990.582 158.922 985.82 165.866C981.256 172.612 977.288 182.036 973.915 194.139H970.642V139.676H1151.59V194.139H1148.31C1144.94 182.036 1140.87 172.612 1136.11 165.866C1131.55 158.922 1126.69 153.862 1121.53 150.688C1116.57 147.513 1111.61 145.629 1106.65 145.033C1101.69 144.24 1097.22 143.843 1093.26 143.843H1076V347.408H1109.03V351.574H1013.2V347.408ZM1198.13 173.901L1165.4 260.506H1230.87L1198.13 173.901ZM1101.41 347.408H1127.6L1207.95 134.319H1215.1L1296.05 347.408H1322.53V351.574H1230.87V347.408H1263.91L1232.66 264.672H1163.61L1132.36 347.408H1165.4V351.574H1101.41V347.408ZM1292.54 347.408H1325.57V143.843H1292.54V139.676H1385.99V143.843H1355.33V238.483H1358.31L1448.19 143.843H1417.24V139.676H1478.84V143.843H1454.14L1378.55 223.9L1486.58 347.408H1506.22V351.574H1420.21V347.408H1447L1357.72 242.649H1355.33V347.408H1385.99V351.574H1292.54V347.408ZM1474.44 347.408H1507.48V143.843H1474.44V139.676H1644.67V191.163H1641.4C1638.82 183.425 1636.04 176.679 1633.07 170.925C1630.09 164.973 1626.52 160.013 1622.35 156.045C1618.19 151.878 1613.23 148.803 1607.47 146.819C1601.72 144.835 1594.77 143.843 1586.64 143.843H1537.24V235.804H1556.58C1563.13 235.804 1568.68 235.209 1573.25 234.019C1577.81 232.828 1581.68 230.646 1584.85 227.471C1588.23 224.098 1591 219.634 1593.19 214.079C1595.57 208.325 1597.85 200.984 1600.03 192.056H1603.31V284.612H1600.03C1598.64 278.858 1597.16 273.303 1595.57 267.946C1594.18 262.589 1592.1 257.827 1589.32 253.661C1586.74 249.494 1583.17 246.221 1578.6 243.84C1574.24 241.26 1568.49 239.971 1561.34 239.971H1537.24V347.408H1593.48C1604.4 347.408 1613.42 345.126 1620.57 340.563C1627.91 335.801 1633.86 330.246 1638.42 323.897C1642.99 317.349 1646.36 310.603 1648.54 303.659C1650.72 296.715 1652.11 290.961 1652.71 286.398H1655.98V351.574H1474.44V347.408ZM142.393 469.328C142.393 487.184 143.583 502.759 145.964 516.052C148.345 529.346 152.313 540.456 157.868 549.385C163.424 558.313 170.566 564.959 179.296 569.324C188.026 573.689 198.839 575.872 211.736 575.872C224.434 575.872 235.147 573.689 243.877 569.324C252.806 564.959 260.047 558.313 265.603 549.385C271.158 540.456 275.126 529.346 277.507 516.052C279.888 502.759 281.079 487.184 281.079 469.328C281.079 455.638 280.186 442.444 278.4 429.746C276.614 416.849 273.142 405.441 267.984 395.521C263.024 385.402 255.98 377.366 246.853 371.414C237.925 365.462 226.219 362.486 211.736 362.486C197.252 362.486 185.447 365.462 176.32 371.414C167.392 377.366 160.348 385.402 155.19 395.521C150.23 405.441 146.857 416.849 145.071 429.746C143.285 442.444 142.393 455.638 142.393 469.328ZM108.167 469.328C108.167 453.455 111.243 438.773 117.393 425.282C123.742 411.79 131.778 400.084 141.5 390.164C151.42 380.243 162.531 372.505 174.832 366.95C187.133 361.196 199.434 358.319 211.736 358.319C224.83 358.319 237.528 361.196 249.83 366.95C262.329 372.505 273.44 380.243 283.162 390.164C292.884 400.084 300.622 411.79 306.375 425.282C312.327 438.773 315.304 453.455 315.304 469.328C315.304 483.216 312.625 496.807 307.268 510.1C301.911 523.393 294.57 535.199 285.245 545.516C275.92 555.833 264.908 564.166 252.21 570.515C239.711 576.864 226.219 580.038 211.736 580.038C196.855 580.038 183.066 576.963 170.368 570.812C157.67 564.662 146.658 556.527 137.333 546.409C128.206 536.091 121.064 524.286 115.905 510.993C110.747 497.501 108.167 483.613 108.167 469.328ZM303.111 571.408H336.146V367.843H303.111V363.676H366.799L467.391 525.873H467.986V367.843H434.952V363.676H505.485V367.843H472.451V579.741H466.498L341.205 380.045H340.61V571.408H373.644V575.574H303.111V571.408ZM588.362 571.408H621.397V367.843H604.136C600.168 367.843 595.704 368.24 590.743 369.033C585.783 369.629 580.724 371.513 575.565 374.688C570.605 377.862 565.744 382.922 560.982 389.866C556.419 396.612 552.451 406.036 549.078 418.139H545.804V363.676H726.751V418.139H723.477C720.104 406.036 716.037 396.612 711.275 389.866C706.712 382.922 701.851 377.862 696.692 374.688C691.732 371.513 686.772 369.629 681.812 369.033C676.852 368.24 672.388 367.843 668.419 367.843H651.158V571.408H684.193V575.574H588.362V571.408ZM773.296 397.901L740.559 484.506H806.033L773.296 397.901ZM676.573 571.408H702.763L783.118 358.319H790.26L871.21 571.408H897.697V575.574H806.033V571.408H839.068L807.819 488.672H738.774L707.525 571.408H740.559V575.574H676.573V571.408ZM868.594 571.408H901.629V367.843H868.594V363.676H964.424V367.843H931.39V571.408H964.424V575.574H868.594V571.408ZM944.394 571.408H977.429V367.843H944.394V363.676H1040.22V367.843H1007.19V571.408H1060.16C1077.62 571.408 1091.31 565.952 1101.23 555.039C1111.15 544.127 1118.4 529.246 1122.96 510.398H1126.23V575.574H944.394V571.408ZM1154.97 469.328C1154.97 487.184 1156.16 502.759 1158.54 516.052C1160.93 529.346 1164.89 540.456 1170.45 549.385C1176 558.313 1183.15 564.959 1191.88 569.324C1200.61 573.689 1211.42 575.872 1224.32 575.872C1237.01 575.872 1247.73 573.689 1256.46 569.324C1265.39 564.959 1272.63 558.313 1278.18 549.385C1283.74 540.456 1287.71 529.346 1290.09 516.052C1292.47 502.759 1293.66 487.184 1293.66 469.328C1293.66 455.638 1292.77 442.444 1290.98 429.746C1289.2 416.849 1285.72 405.441 1280.56 395.521C1275.6 385.402 1268.56 377.366 1259.43 371.414C1250.51 365.462 1238.8 362.486 1224.32 362.486C1209.83 362.486 1198.03 365.462 1188.9 371.414C1179.97 377.366 1172.93 385.402 1167.77 395.521C1162.81 405.441 1159.44 416.849 1157.65 429.746C1155.87 442.444 1154.97 455.638 1154.97 469.328ZM1120.75 469.328C1120.75 453.455 1123.82 438.773 1129.97 425.282C1136.32 411.79 1144.36 400.084 1154.08 390.164C1164 380.243 1175.11 372.505 1187.41 366.95C1199.71 361.196 1212.02 358.319 1224.32 358.319C1237.41 358.319 1250.11 361.196 1262.41 366.95C1274.91 372.505 1286.02 380.243 1295.74 390.164C1305.46 400.084 1313.2 411.79 1318.96 425.282C1324.91 438.773 1327.88 453.455 1327.88 469.328C1327.88 483.216 1325.21 496.807 1319.85 510.1C1314.49 523.393 1307.15 535.199 1297.83 545.516C1288.5 555.833 1277.49 564.166 1264.79 570.515C1252.29 576.864 1238.8 580.038 1224.32 580.038C1209.44 580.038 1195.65 576.963 1182.95 570.812C1170.25 564.662 1159.24 556.527 1149.91 546.409C1140.79 536.091 1133.64 524.286 1128.49 510.993C1123.33 497.501 1120.75 483.613 1120.75 469.328ZM1381.17 459.804H1408.55C1414.1 459.804 1419.16 459.11 1423.72 457.721C1428.29 456.332 1432.16 453.951 1435.33 450.578C1438.7 447.007 1441.28 442.245 1443.07 436.293C1444.85 430.341 1445.75 422.801 1445.75 413.675C1445.75 403.358 1444.36 395.124 1441.58 388.973C1439 382.624 1435.53 377.862 1431.16 374.688C1427 371.513 1422.24 369.43 1416.88 368.438C1411.72 367.446 1406.56 366.95 1401.4 366.95C1397.83 366.95 1394.16 367.049 1390.39 367.248C1386.82 367.248 1383.75 367.446 1381.17 367.843V459.804ZM1318.37 571.408H1351.4V367.843H1318.37V363.676H1374.92C1377.3 363.676 1379.68 363.676 1382.06 363.676C1384.44 363.478 1386.82 363.28 1389.2 363.081C1391.58 363.081 1393.96 363.081 1396.34 363.081C1398.72 362.883 1401.11 362.784 1403.49 362.784C1415.19 362.784 1425.51 363.478 1434.44 364.867C1443.37 366.057 1451.7 369.728 1459.44 375.878C1466.38 381.235 1471.24 387.287 1474.02 394.033C1477 400.778 1478.48 407.127 1478.48 413.08C1478.48 416.056 1477.89 419.925 1476.7 424.686C1475.71 429.25 1473.33 434.011 1469.56 438.972C1465.98 443.733 1460.73 448.197 1453.78 452.364C1446.84 456.332 1437.61 459.011 1426.1 460.399V460.995C1429.28 461.391 1433.55 462.185 1438.9 463.375C1444.46 464.368 1450.01 466.153 1455.57 468.732C1461.32 471.312 1466.58 474.784 1471.34 479.149C1476.1 483.315 1479.48 488.771 1481.46 495.517C1482.65 499.485 1483.44 504.049 1483.84 509.207C1484.44 514.167 1484.83 519.326 1485.03 524.683C1485.43 530.04 1485.73 535.199 1485.92 540.159C1486.32 545.119 1486.92 549.285 1487.71 552.658C1488.9 557.817 1490.79 562.479 1493.36 566.646C1495.94 570.812 1500.11 572.896 1505.86 572.896C1508.44 572.896 1511.12 572.4 1513.9 571.408C1516.68 570.416 1519.16 568.828 1521.34 566.646L1524.02 569.92C1523.03 570.713 1521.84 571.606 1520.45 572.598C1519.26 573.392 1517.67 574.185 1515.69 574.979C1513.7 575.773 1511.22 576.368 1508.25 576.765C1505.47 577.36 1502 577.657 1497.83 577.657C1489.89 577.657 1483.25 576.665 1477.89 574.681C1472.73 572.697 1468.56 569.82 1465.39 566.051C1462.21 562.083 1459.83 557.321 1458.25 551.765C1456.86 546.012 1455.87 539.365 1455.27 531.826L1453.19 504.743C1452.39 494.823 1450.41 487.085 1447.24 481.53C1444.06 475.974 1440.29 471.907 1435.93 469.328C1431.76 466.748 1427.39 465.26 1422.83 464.864C1418.27 464.268 1414.3 463.971 1410.93 463.971H1381.17V571.408H1414.2V575.574H1318.37V571.408ZM1495.35 571.408H1528.39V367.843H1495.35V363.676H1591.18V367.843H1558.15V571.408H1591.18V575.574H1495.35V571.408ZM1568.47 571.408H1601.51V367.843H1568.47V363.676H1632.16L1732.75 525.873H1733.35V367.843H1700.31V363.676H1770.85V367.843H1737.81V579.741H1731.86L1606.57 380.045H1605.97V571.408H1639.01V575.574H1568.47V571.408ZM1968.66 499.684H1944.85V567.241H1941.28C1939.1 565.059 1937.31 563.571 1935.93 562.777C1934.54 561.983 1932.35 561.587 1929.38 561.587C1925.81 561.587 1922.14 562.579 1918.37 564.563C1914.8 566.348 1910.53 568.432 1905.57 570.812C1900.81 573.193 1895.15 575.277 1888.61 577.062C1882.06 579.046 1874.12 580.038 1864.8 580.038C1850.71 580.038 1838.21 577.757 1827.3 573.193C1816.39 568.432 1805.87 560.991 1795.75 550.873C1785.83 540.952 1777.6 529.246 1771.05 515.755C1764.5 502.263 1761.23 487.085 1761.23 470.221C1761.23 458.911 1762.52 448.793 1765.1 439.864C1767.68 430.738 1770.75 422.801 1774.32 416.056C1778.09 409.31 1781.86 403.655 1785.63 399.092C1789.6 394.529 1792.88 390.957 1795.45 388.378C1804.38 379.45 1814.6 372.208 1826.11 366.652C1837.62 361.097 1850.71 358.319 1865.39 358.319C1872.93 358.319 1879.08 358.915 1883.84 360.105C1888.8 361.295 1893.07 362.684 1896.64 364.272C1900.21 365.66 1903.39 366.95 1906.17 368.14C1909.14 369.331 1912.41 369.926 1915.99 369.926C1919.95 369.926 1922.73 369.43 1924.32 368.438C1926.1 367.248 1927.79 365.66 1929.38 363.676H1933.84V423.198H1930.57C1929.78 418.04 1928.19 411.988 1925.81 405.044C1923.62 398.1 1920.05 391.453 1915.09 385.104C1910.33 378.755 1903.88 373.398 1895.75 369.033C1887.81 364.668 1877.59 362.486 1865.09 362.486C1850.21 362.486 1838.21 365.66 1829.08 372.009C1820.16 378.16 1813.11 386.394 1807.95 396.711C1802.99 406.83 1799.62 418.337 1797.84 431.234C1796.25 444.13 1795.45 457.126 1795.45 470.221C1795.45 479.149 1795.85 488.077 1796.64 497.005C1797.44 505.934 1798.73 514.366 1800.51 522.302C1802.5 530.238 1805.18 537.579 1808.55 544.325C1811.92 551.071 1816.29 556.825 1821.64 561.587C1827.6 566.944 1833.75 570.713 1840.1 572.896C1846.44 574.88 1854.68 575.872 1864.8 575.872C1870.95 575.872 1877.1 574.88 1883.25 572.896C1889.4 570.713 1894.86 567.539 1899.62 563.372C1904.58 559.206 1908.55 553.948 1911.52 547.599C1914.7 541.052 1916.28 533.413 1916.28 524.683V499.684H1877.89V495.517H1968.66V499.684Z" fill="black"/>
<path d="M3695.94 254.366H3703.76C3705.35 254.366 3706.8 254.168 3708.1 253.771C3709.41 253.374 3710.51 252.694 3711.42 251.73C3712.38 250.71 3713.12 249.349 3713.63 247.648C3714.14 245.948 3714.39 243.794 3714.39 241.186C3714.39 238.238 3714 235.886 3713.2 234.129C3712.47 232.315 3711.47 230.954 3710.23 230.047C3709.04 229.14 3707.68 228.545 3706.15 228.261C3704.67 227.978 3703.2 227.836 3701.72 227.836C3700.7 227.836 3699.65 227.865 3698.58 227.921C3697.56 227.921 3696.68 227.978 3695.94 228.091V254.366ZM3695.94 286.253C3696.62 286.309 3697.36 286.394 3698.15 286.508C3699 286.564 3700.19 286.593 3701.72 286.593C3704.39 286.593 3706.66 286.338 3708.53 285.828C3710.45 285.317 3712.01 284.439 3713.2 283.192C3714.45 281.888 3715.36 280.187 3715.92 278.09C3716.49 275.992 3716.77 273.356 3716.77 270.182C3716.77 265.647 3715.81 262.075 3713.88 259.468C3711.96 256.86 3709.09 255.556 3705.3 255.556H3695.94V286.253ZM3678 286.253H3687.44V228.091H3678V226.901H3692.88C3693.73 226.901 3694.58 226.901 3695.43 226.901C3696.34 226.844 3697.25 226.787 3698.15 226.731C3699.06 226.731 3699.94 226.731 3700.79 226.731C3701.64 226.674 3702.46 226.646 3703.25 226.646C3707.39 226.646 3710.79 227.156 3713.46 228.176C3716.12 229.14 3718.22 230.359 3719.75 231.833C3721.28 233.25 3722.33 234.809 3722.9 236.509C3723.46 238.153 3723.75 239.656 3723.75 241.016C3723.75 242.887 3723.32 244.616 3722.47 246.203C3721.68 247.79 3720.57 249.179 3719.16 250.369C3717.79 251.56 3716.21 252.524 3714.39 253.261C3712.58 253.997 3710.68 254.479 3708.7 254.706V254.876C3710.74 255.046 3712.81 255.5 3714.9 256.237C3717.06 256.917 3718.99 257.909 3720.69 259.213C3722.44 260.46 3723.86 262.019 3724.94 263.889C3726.01 265.76 3726.55 267.914 3726.55 270.352C3726.55 272.903 3726.07 275.255 3725.11 277.409C3724.14 279.507 3722.7 281.321 3720.77 282.851C3718.84 284.382 3716.41 285.601 3713.46 286.508C3710.51 287.358 3707.08 287.783 3703.17 287.783C3702.38 287.783 3701.58 287.755 3700.79 287.698C3700.05 287.698 3699.26 287.67 3698.41 287.613C3697.56 287.556 3696.68 287.5 3695.77 287.443C3694.86 287.443 3693.9 287.443 3692.88 287.443H3678V286.253ZM3738.37 286.253H3747.81V261.849L3728.68 228.091H3720.94V226.901H3746.96V228.091H3738.46L3755.46 258.022L3771.53 228.091H3762.95V226.901H3781.14V228.091H3772.89L3756.31 259.128V286.253H3765.75V287.443H3738.37V286.253ZM3839.59 287.443H3838.32C3837.92 286.99 3837.47 286.593 3836.96 286.253C3836.45 285.856 3835.66 285.657 3834.58 285.657C3833.73 285.657 3832.79 285.828 3831.77 286.168C3830.81 286.451 3829.67 286.791 3828.37 287.188C3827.12 287.585 3825.71 287.925 3824.12 288.208C3822.53 288.549 3820.77 288.719 3818.85 288.719C3815.28 288.719 3811.79 288.067 3808.39 286.763C3805.04 285.459 3801.87 283.333 3798.86 280.386C3796.09 277.608 3793.76 274.32 3791.89 270.522C3790.02 266.724 3789.09 262.331 3789.09 257.342C3789.09 253.09 3789.85 249.037 3791.38 245.183C3792.91 241.328 3795.04 237.927 3797.76 234.979C3800.48 232.031 3803.68 229.707 3807.37 228.006C3811.05 226.249 3815.08 225.37 3819.44 225.37C3821.2 225.37 3822.76 225.54 3824.12 225.88C3825.48 226.221 3826.7 226.617 3827.78 227.071C3828.85 227.468 3829.84 227.836 3830.75 228.176C3831.66 228.516 3832.54 228.687 3833.39 228.687C3834.52 228.687 3835.31 228.516 3835.77 228.176C3836.28 227.78 3836.73 227.354 3837.13 226.901H3838.4V243.907H3837.47C3836.96 241.753 3836.31 239.627 3835.51 237.53C3834.72 235.432 3833.61 233.59 3832.2 232.003C3830.78 230.359 3828.97 229.055 3826.76 228.091C3824.6 227.071 3821.91 226.561 3818.68 226.561C3815.67 226.561 3813.09 227.043 3810.94 228.006C3808.79 228.913 3806.97 230.16 3805.5 231.748C3804.02 233.278 3802.83 235.092 3801.93 237.19C3801.08 239.23 3800.42 241.413 3799.97 243.737C3799.52 246.005 3799.21 248.329 3799.03 250.71C3798.92 253.034 3798.86 255.245 3798.86 257.342C3798.86 263.294 3799.35 268.226 3800.31 272.137C3801.27 276.049 3802.61 279.138 3804.31 281.406C3806.06 283.673 3808.16 285.261 3810.6 286.168C3813.04 287.075 3815.73 287.528 3818.68 287.528C3822.48 287.528 3825.54 286.99 3827.86 285.913C3830.18 284.835 3832.06 283.447 3833.47 281.746C3834.89 279.989 3835.97 278.033 3836.7 275.879C3837.44 273.668 3838.09 271.486 3838.66 269.331H3839.59V287.443ZM3853.34 254.366H3861.17C3862.75 254.366 3864.2 254.168 3865.5 253.771C3866.81 253.374 3867.91 252.694 3868.82 251.73C3869.78 250.71 3870.52 249.349 3871.03 247.648C3871.54 245.948 3871.79 243.794 3871.79 241.186C3871.79 238.238 3871.4 235.886 3870.6 234.129C3869.87 232.315 3868.88 230.954 3867.63 230.047C3866.44 229.14 3865.08 228.545 3863.55 228.261C3862.07 227.978 3860.6 227.836 3859.12 227.836C3858.1 227.836 3857.06 227.865 3855.98 227.921C3854.96 227.921 3854.08 227.978 3853.34 228.091V254.366ZM3835.4 286.253H3844.84V228.091H3835.4V226.901H3851.56C3852.24 226.901 3852.92 226.901 3853.6 226.901C3854.28 226.844 3854.96 226.787 3855.64 226.731C3856.32 226.731 3857 226.731 3857.68 226.731C3858.36 226.674 3859.04 226.646 3859.72 226.646C3863.06 226.646 3866.01 226.844 3868.56 227.241C3871.11 227.581 3873.5 228.63 3875.71 230.387C3877.69 231.918 3879.08 233.647 3879.87 235.574C3880.72 237.501 3881.15 239.315 3881.15 241.016C3881.15 241.866 3880.98 242.972 3880.64 244.332C3880.35 245.636 3879.67 246.997 3878.6 248.414C3877.58 249.774 3876.07 251.05 3874.09 252.24C3872.11 253.374 3869.47 254.139 3866.18 254.536V254.706C3867.09 254.819 3868.31 255.046 3869.84 255.386C3871.43 255.67 3873.01 256.18 3874.6 256.917C3876.24 257.654 3877.75 258.646 3879.11 259.893C3880.47 261.083 3881.43 262.642 3882 264.57C3882.34 265.703 3882.57 267.007 3882.68 268.481C3882.85 269.898 3882.96 271.372 3883.02 272.903C3883.13 274.433 3883.22 275.907 3883.27 277.324C3883.39 278.742 3883.56 279.932 3883.78 280.896C3884.12 282.37 3884.66 283.702 3885.4 284.892C3886.14 286.083 3887.33 286.678 3888.97 286.678C3889.71 286.678 3890.47 286.536 3891.27 286.253C3892.06 285.969 3892.77 285.516 3893.39 284.892L3894.16 285.828C3893.87 286.054 3893.53 286.309 3893.14 286.593C3892.8 286.82 3892.34 287.046 3891.78 287.273C3891.21 287.5 3890.5 287.67 3889.65 287.783C3888.86 287.953 3887.87 288.038 3886.67 288.038C3884.41 288.038 3882.51 287.755 3880.98 287.188C3879.5 286.621 3878.31 285.799 3877.41 284.722C3876.5 283.588 3875.82 282.228 3875.37 280.641C3874.97 278.997 3874.69 277.098 3874.52 274.944L3873.92 267.206C3873.69 264.371 3873.13 262.16 3872.22 260.573C3871.31 258.986 3870.24 257.824 3868.99 257.087C3867.8 256.35 3866.55 255.925 3865.25 255.811C3863.94 255.641 3862.81 255.556 3861.85 255.556H3853.34V286.253H3862.78V287.443H3835.4V286.253ZM3910.71 236.679L3901.36 261.424H3920.06L3910.71 236.679ZM3883.08 286.253H3890.56L3913.52 225.37H3915.56L3938.69 286.253H3946.25V287.443H3920.06V286.253H3929.5L3920.58 262.614H3900.85L3891.92 286.253H3901.36V287.443H3883.08V286.253ZM3937.94 286.253H3947.38V228.091H3937.94V226.901H3965.32V228.091H3955.88V286.253H3965.32V287.443H3937.94V286.253ZM4022.86 265.76H4016.06V285.062H4015.04C4014.41 284.439 4013.9 284.014 4013.51 283.787C4013.11 283.56 4012.49 283.447 4011.64 283.447C4010.62 283.447 4009.57 283.73 4008.49 284.297C4007.47 284.807 4006.25 285.402 4004.83 286.083C4003.47 286.763 4001.86 287.358 3999.99 287.868C3998.12 288.435 3995.85 288.719 3993.18 288.719C3989.16 288.719 3985.59 288.067 3982.47 286.763C3979.35 285.402 3976.35 283.277 3973.46 280.386C3970.62 277.551 3968.27 274.207 3966.4 270.352C3964.53 266.497 3963.59 262.16 3963.59 257.342C3963.59 254.111 3963.96 251.22 3964.7 248.669C3965.44 246.061 3966.31 243.794 3967.33 241.866C3968.41 239.939 3969.49 238.323 3970.57 237.02C3971.7 235.716 3972.63 234.695 3973.37 233.958C3975.92 231.408 3978.84 229.338 3982.13 227.751C3985.42 226.164 3989.16 225.37 3993.35 225.37C3995.51 225.37 3997.27 225.54 3998.63 225.88C4000.04 226.221 4001.26 226.617 4002.28 227.071C4003.3 227.468 4004.21 227.836 4005 228.176C4005.85 228.516 4006.79 228.687 4007.81 228.687C4008.94 228.687 4009.74 228.545 4010.19 228.261C4010.7 227.921 4011.18 227.468 4011.64 226.901H4012.91V243.907H4011.98C4011.75 242.433 4011.3 240.704 4010.62 238.72C4009.99 236.736 4008.97 234.837 4007.55 233.023C4006.19 231.209 4004.35 229.679 4002.03 228.431C3999.76 227.184 3996.84 226.561 3993.27 226.561C3989.02 226.561 3985.59 227.468 3982.98 229.282C3980.43 231.039 3978.42 233.392 3976.94 236.339C3975.53 239.23 3974.56 242.518 3974.05 246.203C3973.6 249.888 3973.37 253.601 3973.37 257.342C3973.37 259.893 3973.48 262.444 3973.71 264.995C3973.94 267.546 3974.31 269.955 3974.82 272.223C3975.38 274.49 3976.15 276.587 3977.11 278.515C3978.08 280.442 3979.32 282.086 3980.85 283.447C3982.55 284.977 3984.31 286.054 3986.13 286.678C3987.94 287.245 3990.29 287.528 3993.18 287.528C3994.94 287.528 3996.7 287.245 3998.46 286.678C4000.21 286.054 4001.77 285.147 4003.13 283.957C4004.55 282.766 4005.68 281.264 4006.53 279.45C4007.44 277.579 4007.89 275.397 4007.89 272.903V265.76H3996.93V264.57H4022.86V265.76ZM3687.61 349.253H3697.05V291.091H3687.61V289.901H3706.75L3722.48 335.648H3722.65L3738.38 289.901H3757.17V291.091H3747.73V349.253H3757.17V350.443H3729.79V349.253H3739.23V291.601H3739.06L3718.74 350.528L3698.5 292.197H3698.33V349.253H3707.77V350.443H3687.61V349.253ZM3805.39 350.443H3804.12C3803.72 349.99 3803.27 349.593 3802.76 349.253C3802.25 348.856 3801.45 348.657 3800.38 348.657C3799.53 348.657 3798.59 348.828 3797.57 349.168C3796.61 349.451 3795.47 349.791 3794.17 350.188C3792.92 350.585 3791.5 350.925 3789.92 351.208C3788.33 351.549 3786.57 351.719 3784.65 351.719C3781.07 351.719 3777.59 351.067 3774.19 349.763C3770.84 348.459 3767.67 346.333 3764.66 343.386C3761.89 340.608 3759.56 337.32 3757.69 333.522C3755.82 329.724 3754.88 325.331 3754.88 320.342C3754.88 316.09 3755.65 312.037 3757.18 308.183C3758.71 304.328 3760.84 300.927 3763.56 297.979C3766.28 295.031 3769.48 292.707 3773.17 291.006C3776.85 289.249 3780.88 288.37 3785.24 288.37C3787 288.37 3788.56 288.54 3789.92 288.88C3791.28 289.221 3792.5 289.617 3793.57 290.071C3794.65 290.468 3795.64 290.836 3796.55 291.176C3797.46 291.516 3798.34 291.687 3799.19 291.687C3800.32 291.687 3801.11 291.516 3801.57 291.176C3802.08 290.78 3802.53 290.354 3802.93 289.901H3804.2V306.907H3803.27C3802.76 304.753 3802.11 302.627 3801.31 300.53C3800.52 298.432 3799.41 296.59 3798 295.003C3796.58 293.359 3794.76 292.055 3792.55 291.091C3790.4 290.071 3787.71 289.561 3784.48 289.561C3781.47 289.561 3778.89 290.043 3776.74 291.006C3774.58 291.913 3772.77 293.16 3771.3 294.748C3769.82 296.278 3768.63 298.092 3767.72 300.19C3766.87 302.23 3766.22 304.413 3765.77 306.737C3765.31 309.005 3765 311.329 3764.83 313.71C3764.72 316.034 3764.66 318.245 3764.66 320.342C3764.66 326.294 3765.14 331.226 3766.11 335.137C3767.07 339.049 3768.4 342.138 3770.11 344.406C3771.86 346.673 3773.96 348.261 3776.4 349.168C3778.83 350.075 3781.53 350.528 3784.48 350.528C3788.27 350.528 3791.33 349.99 3793.66 348.913C3795.98 347.835 3797.85 346.447 3799.27 344.746C3800.69 342.989 3801.77 341.033 3802.5 338.879C3803.24 336.668 3803.89 334.486 3804.46 332.331H3805.39V350.443ZM3819.14 349.253C3820.1 349.366 3821.21 349.451 3822.46 349.508C3823.76 349.564 3825.18 349.593 3826.71 349.593C3828.64 349.593 3830.54 349.508 3832.41 349.338C3834.33 349.111 3836.15 348.686 3837.85 348.062C3839.61 347.382 3841.22 346.447 3842.69 345.256C3844.23 344.009 3845.59 342.393 3846.78 340.409C3848.59 337.348 3849.84 334.23 3850.52 331.056C3851.25 327.825 3851.62 324.31 3851.62 320.512C3851.62 316.034 3851.2 311.981 3850.35 308.353C3849.5 304.668 3848.08 301.55 3846.1 298.999C3844.17 296.392 3841.59 294.379 3838.36 292.962C3835.13 291.545 3831.13 290.836 3826.37 290.836C3824.95 290.836 3823.65 290.865 3822.46 290.921C3821.32 290.978 3820.22 291.035 3819.14 291.091V349.253ZM3801.2 349.253H3810.64V291.091H3801.2V289.901H3817.02C3817.81 289.901 3818.6 289.901 3819.4 289.901C3820.19 289.844 3820.98 289.787 3821.78 289.731C3822.57 289.731 3823.36 289.731 3824.16 289.731C3824.95 289.674 3825.74 289.646 3826.54 289.646C3828.24 289.646 3829.74 289.674 3831.05 289.731C3832.41 289.787 3833.65 289.901 3834.79 290.071C3835.98 290.184 3837.08 290.383 3838.1 290.666C3839.18 290.893 3840.31 291.205 3841.5 291.601C3844.96 292.735 3847.94 294.266 3850.43 296.193C3852.98 298.064 3855.05 300.246 3856.64 302.741C3858.28 305.235 3859.47 307.956 3860.21 310.904C3861 313.851 3861.4 316.941 3861.4 320.172C3861.4 323.913 3860.95 327.286 3860.04 330.291C3859.13 333.238 3857.89 335.874 3856.3 338.199C3854.71 340.466 3852.84 342.45 3850.69 344.151C3848.59 345.795 3846.32 347.127 3843.88 348.147C3842.52 348.771 3841.22 349.253 3839.97 349.593C3838.78 349.933 3837.54 350.188 3836.23 350.358C3834.98 350.528 3833.6 350.642 3832.07 350.698C3830.54 350.755 3828.78 350.783 3826.79 350.783C3825.94 350.783 3825.04 350.755 3824.07 350.698C3823.11 350.698 3822.15 350.67 3821.18 350.613C3820.22 350.556 3819.25 350.5 3818.29 350.443C3817.38 350.443 3816.5 350.443 3815.65 350.443H3801.2V349.253ZM3859.48 349.253H3868.92V291.091H3859.48V289.901H3908.12V304.611H3907.18C3906.45 302.4 3905.65 300.473 3904.8 298.829C3903.95 297.129 3902.93 295.711 3901.74 294.578C3900.55 293.387 3899.14 292.508 3897.49 291.942C3895.85 291.375 3893.86 291.091 3891.54 291.091H3877.42V317.366H3882.95C3884.82 317.366 3886.41 317.196 3887.71 316.856C3889.02 316.516 3890.12 315.892 3891.03 314.985C3891.99 314.021 3892.79 312.746 3893.41 311.159C3894.09 309.515 3894.74 307.417 3895.37 304.866H3896.3V331.311H3895.37C3894.97 329.667 3894.54 328.08 3894.09 326.549C3893.69 325.019 3893.1 323.658 3892.3 322.468C3891.57 321.277 3890.55 320.342 3889.24 319.662C3888 318.925 3886.35 318.556 3884.31 318.556H3877.42V349.253H3893.49C3896.61 349.253 3899.19 348.601 3901.23 347.297C3903.33 345.936 3905.03 344.349 3906.33 342.535C3907.64 340.665 3908.6 338.737 3909.23 336.753C3909.85 334.769 3910.25 333.125 3910.42 331.821H3911.35V350.443H3859.48V349.253ZM3933.3 299.679L3923.94 324.424H3942.65L3933.3 299.679ZM3905.66 349.253H3913.15L3936.1 288.37H3938.14L3961.27 349.253H3968.84V350.443H3942.65V349.253H3952.09L3943.16 325.614H3923.43L3914.51 349.253H3923.94V350.443H3905.66V349.253ZM3959.51 349.253H3968.94V291.091H3959.51V289.901H3977.7L4006.44 336.243H4006.61V291.091H3997.17V289.901H4017.33V291.091H4007.89V351.634H4006.19L3970.39 294.578H3970.22V349.253H3979.66V350.443H3959.51V349.253ZM4010.95 364.983C4012.59 363.793 4013.92 362.631 4014.95 361.497C4016.02 360.42 4016.84 359.371 4017.41 358.351C4018.03 357.387 4018.43 356.509 4018.6 355.715C4018.83 354.921 4018.94 354.241 4018.94 353.674C4018.94 351.86 4018.43 350.386 4017.41 349.253C4016.45 350.67 4015.23 351.378 4013.75 351.378C4012.68 351.378 4011.63 350.982 4010.61 350.188C4009.59 349.394 4009.08 348.261 4009.08 346.787C4009.08 345.483 4009.56 344.349 4010.52 343.386C4011.54 342.422 4012.79 341.94 4014.26 341.94C4015.34 341.94 4016.31 342.195 4017.16 342.705C4018.06 343.215 4018.83 343.867 4019.45 344.661C4020.08 345.455 4020.53 346.39 4020.81 347.467C4021.15 348.544 4021.32 349.621 4021.32 350.698C4021.32 352.342 4020.98 353.958 4020.3 355.545C4019.62 357.189 4018.8 358.691 4017.84 360.052C4016.87 361.412 4015.82 362.603 4014.69 363.623C4013.56 364.643 4012.56 365.437 4011.71 366.004L4010.95 364.983ZM3490.37 413.253H3499.8V355.091H3490.37V353.901H3509.5L3525.23 399.648H3525.4L3541.13 353.901H3559.92V355.091H3550.48V413.253H3559.92V414.443H3532.54V413.253H3541.98V355.601H3541.81L3521.49 414.528L3501.25 356.197H3501.08V413.253H3510.52V414.443H3490.37V413.253ZM3578.64 363.679L3569.28 388.424H3587.99L3578.64 363.679ZM3551 413.253H3558.49L3581.44 352.37H3583.48L3606.61 413.253H3614.18V414.443H3587.99V413.253H3597.43L3588.5 389.614H3568.77L3559.85 413.253H3569.28V414.443H3551V413.253ZM3623.55 381.366H3631.38C3632.96 381.366 3634.41 381.168 3635.71 380.771C3637.02 380.374 3638.12 379.694 3639.03 378.73C3639.99 377.71 3640.73 376.349 3641.24 374.648C3641.75 372.948 3642 370.794 3642 368.186C3642 365.238 3641.61 362.886 3640.81 361.129C3640.08 359.315 3639.08 357.954 3637.84 357.047C3636.65 356.14 3635.29 355.545 3633.76 355.261C3632.28 354.978 3630.81 354.836 3629.33 354.836C3628.31 354.836 3627.27 354.865 3626.19 354.921C3625.17 354.921 3624.29 354.978 3623.55 355.091V381.366ZM3605.61 413.253H3615.05V355.091H3605.61V353.901H3621.77C3622.45 353.901 3623.13 353.901 3623.81 353.901C3624.49 353.844 3625.17 353.787 3625.85 353.731C3626.53 353.731 3627.21 353.731 3627.89 353.731C3628.57 353.674 3629.25 353.646 3629.93 353.646C3633.27 353.646 3636.22 353.844 3638.77 354.241C3641.32 354.581 3643.7 355.63 3645.92 357.387C3647.9 358.918 3649.29 360.647 3650.08 362.574C3650.93 364.501 3651.36 366.315 3651.36 368.016C3651.36 368.866 3651.19 369.972 3650.85 371.332C3650.56 372.636 3649.88 373.997 3648.81 375.414C3647.79 376.774 3646.28 378.05 3644.3 379.24C3642.32 380.374 3639.68 381.139 3636.39 381.536V381.706C3637.3 381.819 3638.52 382.046 3640.05 382.386C3641.64 382.67 3643.22 383.18 3644.81 383.917C3646.45 384.654 3647.96 385.646 3649.32 386.893C3650.68 388.083 3651.64 389.642 3652.21 391.57C3652.55 392.703 3652.77 394.007 3652.89 395.481C3653.06 396.898 3653.17 398.372 3653.23 399.903C3653.34 401.433 3653.43 402.907 3653.48 404.324C3653.6 405.742 3653.77 406.932 3653.99 407.896C3654.33 409.37 3654.87 410.702 3655.61 411.892C3656.35 413.083 3657.54 413.678 3659.18 413.678C3659.92 413.678 3660.68 413.536 3661.48 413.253C3662.27 412.969 3662.98 412.516 3663.6 411.892L3664.37 412.828C3664.08 413.054 3663.74 413.309 3663.35 413.593C3663.01 413.82 3662.55 414.046 3661.99 414.273C3661.42 414.5 3660.71 414.67 3659.86 414.783C3659.07 414.953 3658.08 415.038 3656.88 415.038C3654.62 415.038 3652.72 414.755 3651.19 414.188C3649.71 413.621 3648.52 412.799 3647.62 411.722C3646.71 410.588 3646.03 409.228 3645.58 407.641C3645.18 405.997 3644.9 404.098 3644.73 401.944L3644.13 394.206C3643.9 391.371 3643.34 389.16 3642.43 387.573C3641.52 385.986 3640.45 384.824 3639.2 384.087C3638.01 383.35 3636.76 382.925 3635.46 382.811C3634.15 382.641 3633.02 382.556 3632.06 382.556H3623.55V413.253H3632.99V414.443H3605.61V413.253ZM3656.18 413.253H3665.62V355.091H3656.18V353.901H3683.56V355.091H3674.12V413.253H3683.56V414.443H3656.18V413.253ZM3677.83 413.253H3687.27V355.091H3677.83V353.901H3726.47V368.611H3725.54C3724.8 366.4 3724.01 364.473 3723.16 362.829C3722.31 361.129 3721.29 359.711 3720.09 358.578C3718.9 357.387 3717.49 356.508 3715.84 355.942C3714.2 355.375 3712.22 355.091 3709.89 355.091H3695.78V381.366H3701.3C3703.17 381.366 3704.76 381.196 3706.06 380.856C3707.37 380.516 3708.47 379.892 3709.38 378.985C3710.34 378.021 3711.14 376.746 3711.76 375.159C3712.44 373.515 3713.09 371.417 3713.72 368.866H3714.65V395.311H3713.72C3713.32 393.667 3712.9 392.08 3712.44 390.549C3712.05 389.019 3711.45 387.658 3710.66 386.468C3709.92 385.277 3708.9 384.342 3707.6 383.662C3706.35 382.925 3704.7 382.556 3702.66 382.556H3695.78V413.253H3711.85C3714.96 413.253 3717.54 412.601 3719.58 411.297C3721.68 409.936 3723.38 408.349 3724.69 406.535C3725.99 404.665 3726.95 402.737 3727.58 400.753C3728.2 398.769 3728.6 397.125 3728.77 395.821H3729.7V414.443H3677.83V413.253ZM3759.61 363.679L3750.26 388.424H3768.97L3759.61 363.679ZM3731.98 413.253H3739.46L3762.42 352.37H3764.46L3787.59 413.253H3795.15V414.443H3768.97V413.253H3778.4L3769.48 389.614H3749.75L3740.82 413.253H3750.26V414.443H3731.98V413.253ZM3786.24 413.253H3795.68V355.091H3786.24V353.901H3805.38L3821.11 399.648H3821.28L3837.01 353.901H3855.8V355.091H3846.36V413.253H3855.8V414.443H3828.42V413.253H3837.86V355.601H3837.69L3817.37 414.528L3797.13 356.197H3796.96V413.253H3806.4V414.443H3786.24V413.253ZM3849.52 413.253H3858.96V355.091H3849.52V353.901H3898.16V368.611H3897.22C3896.48 366.4 3895.69 364.473 3894.84 362.829C3893.99 361.129 3892.97 359.711 3891.78 358.578C3890.59 357.387 3889.17 356.508 3887.53 355.942C3885.88 355.375 3883.9 355.091 3881.57 355.091H3867.46V381.366H3872.99C3874.86 381.366 3876.44 381.196 3877.75 380.856C3879.05 380.516 3880.16 379.892 3881.06 378.985C3882.03 378.021 3882.82 376.746 3883.45 375.159C3884.13 373.515 3884.78 371.417 3885.4 368.866H3886.34V395.311H3885.4C3885 393.667 3884.58 392.08 3884.13 390.549C3883.73 389.019 3883.13 387.658 3882.34 386.468C3881.6 385.277 3880.58 384.342 3879.28 383.662C3878.03 382.925 3876.39 382.556 3874.35 382.556H3867.46V413.253H3883.53C3886.65 413.253 3889.23 412.601 3891.27 411.297C3893.37 409.936 3895.07 408.349 3896.37 406.535C3897.67 404.665 3898.64 402.737 3899.26 400.753C3899.88 398.769 3900.28 397.125 3900.45 395.821H3901.39V414.443H3849.52V413.253ZM3898.33 413.253H3907.77V355.091H3898.33V353.901H3925.71V355.091H3916.28V413.253H3931.41C3936.4 413.253 3940.31 411.694 3943.15 408.576C3945.98 405.458 3948.05 401.207 3949.35 395.821H3950.29V414.443H3898.33V413.253ZM3945.75 413.253H3955.18V355.091H3945.75V353.901H3973.13V355.091H3963.69V413.253H3973.13V414.443H3945.75V413.253ZM3967.4 413.253H3976.84V355.091H3967.4V353.901H4016.04V368.611H4015.1C4014.37 366.4 4013.57 364.473 4012.72 362.829C4011.87 361.129 4010.85 359.711 4009.66 358.578C4008.47 357.387 4007.06 356.508 4005.41 355.942C4003.77 355.375 4001.78 355.091 3999.46 355.091H3985.34V381.366H3990.87C3992.74 381.366 3994.33 381.196 3995.63 380.856C3996.94 380.516 3998.04 379.892 3998.95 378.985C3999.91 378.021 4000.71 376.746 4001.33 375.159C4002.01 373.515 4002.66 371.417 4003.29 368.866H4004.22V395.311H4003.29C4002.89 393.667 4002.46 392.08 4002.01 390.549C4001.61 389.019 4001.02 387.658 4000.22 386.468C3999.49 385.277 3998.47 384.342 3997.16 383.662C3995.92 382.925 3994.27 382.556 3992.23 382.556H3985.34V413.253H4001.41C4004.53 413.253 4007.11 412.601 4009.15 411.297C4011.25 409.936 4012.95 408.349 4014.25 406.535C4015.56 404.665 4016.52 402.737 4017.15 400.753C4017.77 398.769 4018.17 397.125 4018.34 395.821H4019.27V414.443H3967.4V413.253ZM3761.34 460.161H3762.27C3762.9 463.223 3763.69 465.802 3764.65 467.899C3765.67 469.997 3766.78 471.726 3767.97 473.086C3769.16 474.447 3770.41 475.495 3771.71 476.232C3773.02 476.969 3774.32 477.508 3775.62 477.848C3776.98 478.188 3778.26 478.386 3779.45 478.443C3780.7 478.5 3781.86 478.528 3782.94 478.528C3785.94 478.528 3788.41 478.075 3790.33 477.168C3792.26 476.261 3793.79 475.127 3794.92 473.766C3796.06 472.349 3796.85 470.847 3797.31 469.26C3797.76 467.616 3797.99 466.114 3797.99 464.753C3797.99 462.769 3797.62 461.068 3796.88 459.651C3796.14 458.234 3795.21 457.044 3794.07 456.08C3792.94 455.06 3791.69 454.238 3790.33 453.614C3789.03 452.99 3787.78 452.509 3786.59 452.168L3776.81 449.192C3772.22 447.775 3768.74 445.904 3766.35 443.58C3764.03 441.256 3762.87 438.138 3762.87 434.227C3762.87 431.676 3763.32 429.323 3764.23 427.169C3765.14 424.958 3766.41 423.059 3768.06 421.472C3769.7 419.885 3771.65 418.638 3773.92 417.731C3776.25 416.824 3778.77 416.37 3781.49 416.37C3783.47 416.37 3785.12 416.54 3786.42 416.88C3787.78 417.221 3788.94 417.617 3789.91 418.071C3790.87 418.468 3791.72 418.836 3792.46 419.176C3793.25 419.516 3794.05 419.687 3794.84 419.687C3795.58 419.687 3796.06 419.601 3796.29 419.431C3796.57 419.205 3796.94 418.694 3797.39 417.901H3798.58V433.292H3797.56C3797.22 431.251 3796.63 429.295 3795.78 427.424C3794.98 425.497 3793.93 423.825 3792.63 422.408C3791.33 420.934 3789.74 419.772 3787.87 418.921C3786.05 418.014 3783.93 417.561 3781.49 417.561C3780.13 417.561 3778.63 417.759 3776.98 418.156C3775.34 418.496 3773.81 419.12 3772.39 420.027C3770.97 420.934 3769.78 422.124 3768.82 423.598C3767.91 425.072 3767.46 426.943 3767.46 429.21C3767.46 431.024 3767.83 432.583 3768.57 433.887C3769.3 435.134 3770.24 436.211 3771.37 437.118C3772.56 437.968 3773.87 438.705 3775.28 439.329C3776.76 439.896 3778.23 440.406 3779.7 440.859L3789.99 444.09C3791.07 444.431 3792.43 444.884 3794.07 445.451C3795.72 446.018 3797.31 446.868 3798.84 448.002C3800.42 449.136 3801.76 450.638 3802.83 452.509C3803.97 454.379 3804.53 456.76 3804.53 459.651C3804.53 462.316 3804.02 464.866 3803 467.304C3802.04 469.685 3800.62 471.811 3798.75 473.681C3796.88 475.495 3794.61 476.969 3791.95 478.103C3789.28 479.18 3786.28 479.719 3782.94 479.719C3781.75 479.719 3780.7 479.69 3779.79 479.634C3778.88 479.634 3778.03 479.577 3777.24 479.463C3776.44 479.35 3775.65 479.208 3774.86 479.038C3774.06 478.925 3773.19 478.727 3772.22 478.443C3771.09 478.103 3769.87 477.706 3768.57 477.253C3767.26 476.799 3766.13 476.572 3765.16 476.572C3764.31 476.572 3763.72 476.742 3763.38 477.083C3763.09 477.423 3762.84 477.876 3762.61 478.443H3761.34V460.161ZM3828.17 427.679L3818.82 452.424H3837.52L3828.17 427.679ZM3800.54 477.253H3808.02L3830.98 416.37H3833.02L3856.15 477.253H3863.71V478.443H3837.52V477.253H3846.96L3838.04 453.614H3818.31L3809.38 477.253H3818.82V478.443H3800.54V477.253ZM3851.8 417.901H3879.18V419.091H3869.75V460.161C3869.75 463.563 3870.03 466.454 3870.6 468.835C3871.22 471.159 3872.13 473.058 3873.32 474.532C3874.51 475.949 3875.98 476.969 3877.74 477.593C3879.5 478.216 3881.51 478.528 3883.78 478.528C3886.95 478.528 3889.76 478.075 3892.19 477.168C3894.63 476.204 3896.73 474.532 3898.49 472.151C3899.05 471.414 3899.54 470.677 3899.93 469.94C3900.39 469.203 3900.75 468.353 3901.04 467.389C3901.38 466.369 3901.63 465.178 3901.8 463.818C3901.97 462.401 3902.06 460.672 3902.06 458.631V419.091H3892.62V417.901H3912.77V419.091H3903.33V460.331C3903.33 462.712 3903.08 464.895 3902.57 466.879C3902.06 468.806 3901.01 470.819 3899.42 472.916C3897.89 474.957 3895.77 476.601 3893.04 477.848C3890.32 479.095 3886.72 479.719 3882.25 479.719C3875.44 479.719 3870.23 478.046 3866.6 474.702C3863.03 471.357 3861.24 466.227 3861.24 459.311V419.091H3851.8V417.901ZM3902.47 417.901H3928.74V419.091H3919.3L3938.18 468.409L3956.8 419.091H3947.53V417.901H3965.9V419.091H3958.25L3935.37 479.719H3933.25L3910.12 419.091H3902.47V417.901ZM3990.19 401.83C3991.32 400.469 3992.12 399.562 3992.57 399.109C3993.08 398.655 3993.73 398.429 3994.53 398.429C3995.32 398.429 3996 398.741 3996.57 399.364C3997.13 399.931 3997.42 400.611 3997.42 401.405C3997.42 402.028 3997.22 402.51 3996.82 402.85C3996.48 403.19 3996.17 403.474 3995.89 403.701L3981.35 414.074H3980.16L3990.19 401.83ZM3956.35 477.253H3965.79V419.091H3956.35V417.901H4004.99V432.611H4004.05C4003.31 430.4 4002.52 428.473 4001.67 426.829C4000.82 425.129 3999.8 423.711 3998.61 422.578C3997.42 421.387 3996 420.508 3994.36 419.942C3992.71 419.375 3990.73 419.091 3988.4 419.091H3974.29V445.366H3979.82C3981.69 445.366 3983.27 445.196 3984.58 444.856C3985.88 444.516 3986.99 443.892 3987.89 442.985C3988.86 442.021 3989.65 440.746 3990.28 439.159C3990.96 437.515 3991.61 435.417 3992.23 432.866H3993.17V459.311H3992.23C3991.83 457.667 3991.41 456.08 3990.96 454.549C3990.56 453.019 3989.96 451.658 3989.17 450.468C3988.43 449.277 3987.41 448.342 3986.11 447.662C3984.86 446.925 3983.22 446.556 3981.18 446.556H3974.29V477.253H3990.36C3993.48 477.253 3996.06 476.601 3998.1 475.297C4000.2 473.936 4001.9 472.349 4003.2 470.535C4004.5 468.665 4005.47 466.737 4006.09 464.753C4006.71 462.769 4007.11 461.125 4007.28 459.821H4008.22V478.443H3956.35V477.253Z" fill="black"/>
</svg>
