<svg width="3000" height="400" viewBox="0 0 3000 400" fill="none" xmlns="http://www.w3.org/2000/svg">
<path d="M436.043 196.31C436.522 196.374 436.838 196.611 437.351 196.676C437.997 196.758 440.332 196.918 440.628 196.516C441.487 193.816 442.591 191.149 442.861 188.314C441.028 189.597 440.306 192.234 438.284 193.218L436.031 196.321L436.043 196.31ZM439.305 210.008C439.177 210.126 438.283 210.348 438.029 210.271C436.439 208.84 436.199 208.663 436.875 206.617C437.615 204.361 439.115 202.147 439.157 199.695C438.497 199.96 438.128 199.654 437.547 199.619C436.374 199.527 435.663 199.387 434.594 199.221C433.492 199.043 433.114 199.801 432.476 200.627C431.544 201.81 430.6 203.554 429.917 204.939C429.624 205.543 429.83 206.279 428.951 206.681C428.223 206.417 426.723 205.248 426.879 204.436C427.034 203.647 428.095 201.482 428.531 200.659C429.064 199.661 430.478 198.205 430.398 197.126C430.376 196.812 430.152 196.545 430.131 196.231C430.038 194.625 431.591 195.583 432.269 195.151L437.821 188.539C439.769 187.182 441.094 184.569 442.788 182.833C443.735 181.862 444.175 182.048 445.264 182.831C446.778 183.922 446.628 185.72 446.448 187.416C446.182 189.881 445.226 192.756 444.599 195.274C444.506 195.64 444.101 196.251 444.091 196.497C444.074 196.911 444.748 197.442 444.826 197.736C445.146 198.97 444.177 198.842 443.594 199.413C442.497 200.5 440.919 206.061 440.255 207.816C440.118 208.169 439.386 209.944 439.305 210.019" fill="black"/>
<path d="M462.71 202.101C463.176 202.209 463.503 201.875 463.763 201.549C464.164 201.039 464.767 199.976 465.139 199.352C466.41 197.263 468.707 193.333 469.511 191.158C469.824 190.319 469.756 188.658 471.072 188.531C471.634 188.475 472.844 189.05 473.128 189.499C473.803 190.556 472.719 191.891 472.383 192.729C470.492 197.449 467.149 202.872 464.422 207.2C462.95 209.539 461.583 209.282 460.596 206.767C459.203 203.227 460.005 198.565 458.72 194.85C458.589 194.486 457.818 192.752 457.616 192.744C456.686 193.872 455.538 194.846 454.716 196.068C453.06 198.545 451.52 201.206 449.797 203.669C449.25 204.454 448.725 206.102 447.621 205.957C446.975 205.875 445.804 204.327 445.786 203.654C445.734 202.151 448.519 199.181 449.429 197.739C450.829 195.498 451.893 192.986 453.688 190.963C454.111 190.475 456.158 188.574 456.596 188.558C457.617 188.52 459.755 190.533 460.325 191.396C460.6 191.81 460.864 192.504 461.069 192.983C462.267 195.809 462.908 199.095 462.72 202.124" fill="black"/>
<path d="M460.44 92.5881C461.356 93.4985 458.145 102.344 457.409 103.951C458.718 103.981 460.036 104.089 461.357 104.131C464.97 104.253 468.656 103.974 472.319 103.997C474.929 104.012 479.379 103.954 481.771 104.375C483.918 104.763 483.737 107.03 482.847 108.574C482.137 108.4 481.386 108.953 480.948 108.98C480.039 109.022 477.975 108.257 476.325 108.336C471.532 108.559 467.495 108.376 462.702 108.319C460.529 108.288 458.092 109.288 456.191 108.081C455.843 109.781 454.941 111.314 454.351 112.915C454.138 113.477 453.562 113.309 454.373 114.036C458.903 116.189 463.749 117.727 468.304 119.813C470.02 120.599 471.697 121.809 473.4 122.661C475.585 123.756 481.672 125.355 481.592 128.209C481.55 129.809 479.351 129.621 478.198 129.306C473.509 128.043 466.575 123.542 461.559 121.493C460.258 120.959 452.593 117.92 452.115 118.405L448.648 126.109C450.378 126.536 451.962 127.003 453.481 127.949C455.504 129.195 456.913 130.663 458.607 132.288C459.557 133.199 460.98 133.178 460.316 135.213C460.035 136.087 458.683 136.01 457.924 135.935C454.81 135.643 452.666 130.695 449.242 130.3C448.25 130.182 447.413 130.922 446.099 130.735C444.985 130.578 443.326 129.761 442.819 128.71C442.159 126.141 446.538 119.739 447.339 116.802C448.48 112.635 450.521 108.65 452.003 104.384C453.472 100.141 454.66 95.6286 455.797 91.3046C457.792 91.0034 458.782 91.7264 460.407 92.5644" fill="black"/>
<path d="M382.304 184.439C382.146 184.478 381.112 185.389 381.039 185.532C380.617 186.277 380.844 189.008 380.733 190.124C380.635 191.173 380.382 192.452 380.235 193.6C380.202 193.878 379.742 193.894 380.394 194.39C380.673 194.144 381.012 194.057 381.312 193.844C382.742 192.826 385.256 189.072 385.549 187.348C385.667 186.646 385.683 185.101 385.085 184.651C384.792 184.427 382.734 184.333 382.304 184.439ZM380.768 181.667C381.405 181.692 382.053 181.752 382.691 181.766C383.933 181.816 384.139 181.689 385.47 182.303C388.155 183.542 389.037 185.011 388.49 188.048C388.433 188.348 387.834 189.87 387.674 190.245C386.243 193.526 382.918 197.404 379.246 197.896L377.82 203.586C377.573 205.28 378.464 207.377 376.051 206.922C374.36 206.608 374.435 203.888 374.589 202.55C375.085 198.548 376.705 195.318 376.537 191.099C376.425 188.294 377.847 185.505 377.763 182.577C377.754 182.241 377.521 181.884 377.507 181.391C377.492 180.662 377.433 178.475 378.101 178.311C378.822 178.206 379.408 178.408 379.997 178.802L380.769 181.644L380.768 181.667Z" fill="black"/>
<path d="M363.845 190.155C364.334 188.023 365.057 185.912 364.999 183.703L361.609 186.962L359.432 189.844L361.047 190.368L363.845 190.155ZM367.175 180.283C367.196 181.158 367.921 182.374 367.982 183.083C368.221 185.512 367.139 187.642 367.123 189.995C370.481 190.353 369.747 192.732 366.738 192.354C366.62 193.347 366.182 194.472 366.021 195.429C365.7 197.298 365.582 199.411 365.192 201.311C365.066 201.945 364.607 202.498 364.099 202.87C361.94 201.955 362.102 200.975 362.333 198.833C362.47 197.651 362.84 195.963 363.091 194.729C363.189 194.252 363.839 193.404 362.987 193.123C362.103 192.83 360.009 193.071 358.883 192.937C358.415 192.885 357.885 192.404 357.272 192.592L354.899 199.265C351.755 200.293 352.524 197.019 353.087 194.991C354.305 190.592 359.971 183.648 363.495 180.696C363.738 180.493 364.097 180.485 364.202 180.377C364.307 180.281 364.218 179.986 364.311 179.911C365.044 179.212 366.356 180.026 367.175 180.294" fill="black"/>
<path d="M435.636 95.8321C435.722 95.9252 436.547 97.986 436.593 98.2232C437.154 101.293 435.412 106.209 434.166 109.072C431.442 109.949 429.653 107.883 430.107 105.213C430.282 104.2 431.098 103.135 431.273 102.111C431.446 101.143 431.688 97.8928 430.958 97.3707C429.945 96.6468 427.017 97.0339 427.194 98.4863C423.881 98.1187 422.695 98.6427 420.308 100.62C415.105 104.938 410.121 112.481 409.11 119.566C408.845 121.438 409.189 128.51 412.143 127.776C414.61 127.158 415.063 120.868 415.416 118.765C415.517 118.197 415.962 117.722 416.027 117.198C416.158 116.162 415.244 115.218 415.625 114.079C415.969 113.039 418.045 113.246 418.954 113.484C420.972 114.024 426.543 118.436 428.215 120.049C429.715 121.487 432.043 123.496 431.374 125.676C431.038 126.783 430.329 126.027 429.984 125.979C429.204 125.87 428.384 125.915 427.704 125.552C426.98 125.165 425.338 122.791 424.474 121.984C423.458 121.047 421.982 120.147 420.909 119.242C419.481 120.216 420.2 122.126 419.948 123.651C419.699 125.12 417.495 129.816 416.288 130.597C414.436 131.8 411.03 131.507 409.034 130.71C403.378 128.434 403.635 119.202 405.373 114.397C407.463 108.633 412.308 100.368 417.1 96.5257C417.574 96.1525 418.281 96.1248 418.375 96.0165C419.158 95.1963 417.602 94.5964 421.011 93.6906C423.004 93.154 427.353 92.5547 429.301 92.8566C431.439 93.1885 433.164 94.0529 434.733 95.4264C434.993 95.6496 435.487 95.6357 435.659 95.8107" fill="black"/>
<path d="M385.744 101.613C384.845 101.397 384.417 102.019 383.889 102.603C381.64 105.056 378.767 108.56 376.733 111.224C376.402 111.659 374.986 113.462 375.31 113.766C376.724 114.248 378.134 113.464 379.256 113.408C380.502 113.346 383.356 113.987 383.997 113.094C385.421 109.42 385.711 105.521 385.744 101.613ZM389.514 113.247L391.474 114.67C390.796 116.491 389.984 116.067 388.806 116.658C387.515 117.301 387.415 119.807 386.934 121.177C386.137 123.464 385.013 126.915 384.036 128.948C383.326 130.444 381.633 132.157 381.059 133.905C380.025 135.107 376.531 134.239 376.626 132.417C376.71 130.874 380.107 125.486 380.951 123.425C381.721 121.551 382.026 119.524 383.005 117.737C380.016 117.394 377.404 118.275 374.359 117.918C373.523 117.818 372.605 116.974 371.516 117.289C371.042 119.634 368.078 121.746 367.286 123.899C366.896 124.97 367.14 125.876 366.871 126.728C366.832 126.849 365.411 128.776 365.307 128.85C364.352 129.484 361.484 128.081 361.223 127.029C360.723 124.981 362.525 122.218 363.604 120.446C364.887 118.347 367.348 116.462 367.005 114.118C366.776 112.551 369.226 112.638 369.549 112.416C369.687 112.32 369.665 111.748 369.911 111.478C374.34 106.636 378.243 101.201 382.811 96.4987C384.061 95.2154 385.908 94.6954 387.585 95.6362C388.768 96.2997 390.809 102.151 390.917 103.645C391.162 107.061 389.401 109.915 389.526 113.236" fill="black"/>
<path d="M429.959 43.6422C428.594 43.3188 429.074 43.9094 428.63 44.6423C427.838 45.9551 426.947 47.2415 426.178 48.544C422.695 54.3988 419.784 61.9121 415.653 67.1584C414.603 68.4945 413.733 68.9527 412.025 68.5148C408.466 67.5883 411.14 64.0316 411.851 61.9425C415.302 51.8403 419.817 42.3072 423.179 32.1902L424.508 30.8765C427.101 31.3274 428.146 31.5372 427.707 34.3766L426.19 39.8169C428.564 37.6038 429.929 35.4176 433.398 37.2031C433.834 37.5118 434.635 39.8966 434.71 40.527C435.496 46.6643 433.829 53.3311 433.011 59.2251C432.634 61.9213 433.656 64.9535 430.888 66.6579C429.73 65.9058 427.713 65.9149 427.555 64.2616L429.97 43.6427L429.959 43.6422Z" fill="black"/>
<path d="M265.603 198.61C265.789 198.438 266.62 196.992 266.779 196.651C267.48 195.099 267.31 193.737 267.388 192.071C267.406 191.623 267.71 191.288 267.69 190.962C267.678 190.704 267.527 189.712 267.458 189.463C267.295 188.784 266.188 187.609 265.518 187.268C264.706 186.855 262.11 186.191 261.295 186.405C261.081 186.452 260.289 187.194 260.225 187.393C259.515 191.98 261.288 196.118 263.383 200.056C264.079 199.736 264.512 199.272 265.08 198.802C265.219 198.684 265.498 198.717 265.602 198.621M258.492 201.877C258.42 201.179 257.668 200.925 257.604 200.273C257.515 199.418 257.717 198.563 258.029 197.78L258.891 197.792L258.909 197.345C257.889 195.388 257.571 193.538 257.366 191.379C257.334 191.053 257.121 190.776 257.111 190.473C256.997 188.261 257.092 185.341 259.148 184.056C260.481 183.224 261.556 183.816 262.846 184.047C265.104 184.451 266.583 184.734 268.379 186.329C269.407 187.244 270.379 188.706 270.447 190.098C270.517 191.434 270.411 193.805 270.245 195.143C270.093 196.436 268.862 199.748 267.952 200.664C266.889 201.742 263.585 203.122 262.068 203.23C260.451 203.333 259.774 202.6 258.482 201.854" fill="black"/>
<path d="M486.638 54.2985L490.804 48.7176C493.01 47.3492 495.094 42.8614 497.803 43.1937C500.29 43.4947 500.949 44.9327 501.08 47.2571C501.242 50.2325 500.452 52.901 500.219 55.6254C499.942 58.9305 500.771 62.3023 500.863 65.5887C500.892 66.5533 500.874 68.9614 500.608 69.735C499.86 71.9234 495.965 70.1433 495.538 68.4905C495.287 67.4834 495.704 66.0211 495.615 64.886C495.357 61.2458 494.549 57.6172 495.013 53.8601C495.111 53.091 496.205 51.7902 495.385 50.9956C493.175 53.8875 491.004 56.9041 489.077 59.9866C487.425 62.6318 484.946 66.6445 483.638 69.3707C482.623 71.4925 483.294 73.2222 480.347 72.9365C475.849 72.5103 478.485 69.0641 479.216 66.2139C480.49 61.2344 480.973 56.1561 482.021 51.246C482.82 47.5023 484.335 43.5072 485.087 39.8288C485.337 38.6176 484.668 37.1456 486.049 36.5062C492.419 36.3349 490.058 39.6465 489.135 43.6765C489.026 44.1651 489.171 44.7423 489.061 45.2309C488.36 48.2054 487.207 51.2739 486.615 54.3088" fill="black"/>
<path d="M561.498 54.6579L563.915 46.9007C563.325 47.3589 562.2 47.7398 561.759 48.1255C560.507 49.1734 559.394 51.2352 558.203 52.4536C557.63 53.0469 556.037 52.8152 557.089 53.9664L561.498 54.6579ZM570.507 37.7979C571.709 40.2547 570.416 42.3317 570.284 44.7912L566.723 55.3932C568.187 55.2052 569.298 56.0114 570.563 56.5997C571.19 56.8937 570.767 57.3921 570.813 57.9093C569.79 59.6834 566.427 58.5968 565.763 59.5338L560.695 75.0499C552.974 75.3801 556.955 69.9597 558.346 65.6908C559.074 63.4567 559.717 61.096 560.313 58.8119C558.62 58.8339 554.844 56.8793 553.522 57.7228L548.201 67.2349C546.651 69.5929 542.85 67.4132 543.35 65.2709C545.553 61.729 547.316 57.4412 549.582 53.9914C552.314 49.8208 556.772 46.2009 560.179 43.0991C561.423 41.9613 565.412 37.74 566.405 37.2867C567.774 36.658 569.285 37.2673 570.53 37.7876" fill="black"/>
<path d="M140.153 32.1308C140.271 32.2588 141.089 35.0811 141.127 35.5196C141.429 38.9039 141.072 43.0574 141.214 46.525C141.265 47.7818 142.062 49.4269 141.551 50.9974C141.873 51.3464 147.567 49.871 148.683 49.7139C150.079 49.5232 151.613 50.111 153.101 49.319C153.25 48.115 153.71 46.9794 154.224 45.9019C155.312 43.6263 159.039 37.5572 161.004 36.3248C162.221 35.5668 163.278 35.4858 164.682 35.6763C164.976 38.3994 162.875 39.9623 161.706 42.0107C159.792 45.3513 158.291 48.1483 157.233 51.8928C156.933 52.9676 156.148 55.2329 156.015 56.0231C155.498 58.8706 156.103 62.5247 155.639 65.4415C155.155 68.5927 152.538 67.6367 150.376 66.5084C150.579 63.6596 150.394 60.7169 150.675 57.8824C150.768 56.9674 151.199 56.2788 151.349 55.3325C151.439 54.7647 151.596 53.3482 151.164 52.95L141.384 55.7299C141.266 57.0136 141.28 58.325 141.195 59.6212C141.086 61.219 140.623 63.2843 140.471 64.8355C140.078 68.7859 141.337 72.8919 135.545 70.6438L135.522 70.3741C135.452 65.9571 136.216 61.7078 136.545 57.3852L136.11 56.7852C135.674 56.4765 135.022 56.5289 134.542 56.2184C131.755 54.4601 135.463 53.6224 136.019 52.8939C136.48 52.2849 136.478 48.9686 136.453 47.9145C136.338 43.7758 136.013 39.5727 135.914 35.3225C135.896 34.6608 135.247 34.0635 135.503 33.2671C135.925 31.9619 139.152 31.1161 140.175 32.1429" fill="black"/>
<path d="M338.395 40.7826C338.379 40.9164 337.037 41.9719 338.343 42.0913L340.109 39.1033C341.947 38.5269 343.937 37.8109 345.55 39.2198C347.639 41.0398 347.099 44.4689 347.058 46.8985C346.986 51.4891 346.662 56.2376 346.504 61.0488C346.454 62.2905 345.676 63.2565 346.772 64.7119C345.305 66.9388 342.929 65.8244 341.717 63.9162C341.981 62.6495 341.169 61.3847 341.224 60.2889C341.324 58.3435 341.574 56.0008 342.066 54.0598L342.153 44.8763C341.102 45.9323 340.476 47.599 339.883 48.9646C338.128 53.0734 336.956 57.452 335.36 61.5223C333.913 65.1953 332.141 70.5695 327.423 67.8042C326.916 66.4731 326.767 65.4476 327.081 64.0149C327.669 61.372 329.141 58.1817 329.84 55.5432C331.684 48.6482 333.002 41.7211 333.83 34.7519C333.899 34.1497 333.357 33.6799 333.526 32.824C333.568 32.624 334.107 31.458 334.343 31.4338C335.423 31.3424 338.761 31.6327 338.709 32.9414C338.609 35.4358 338.716 38.3754 338.395 40.7826Z" fill="black"/>
<path d="M186.082 38.0906C189.682 38.2793 193.506 39.0258 196.83 40.5143C197.699 40.9075 203.113 43.9359 203.143 44.2956C203.232 45.173 203.41 46.3117 202.254 46.0862C198.341 45.3137 194.244 43.2567 190.355 42.4627C189.388 42.2672 188.248 42.4682 187.223 42.3376C186.498 42.2414 185.811 41.4969 184.895 41.718L183.334 47.4255C185.544 49.0374 187.55 50.9662 189.713 52.6323C191.442 53.9561 198.383 58.3003 198.779 59.8846C198.953 60.575 198.75 61.4408 198.732 62.1683L195.928 62.5268C192.06 59.5042 187.769 56.9912 183.901 53.9686C183.173 53.4018 181.965 51.124 181.045 52.5437L178.966 60.0118C180.849 62.507 183.488 64.3266 186.038 66.0978C186.496 66.4186 187.114 66.3873 187.572 66.6969C188.586 67.3872 188.825 68.7075 189.17 69.035C189.473 69.316 190.602 68.801 190.043 70.4703C189.674 71.5759 187.356 71.2481 186.341 70.8714C184.155 70.0559 180.203 66.3353 177.878 65.0772L174.1 64.2877C173.338 62.9128 174.064 62.3928 174.169 61.4447C175.071 53.1677 180.931 36.8878 184.626 29.1032C185.727 26.7833 186.122 26.1492 188.947 26.6542C191.84 27.1731 189.108 30.4923 188.566 31.7254C187.654 33.7841 186.983 36.0092 186.116 38.0808" fill="black"/>
<path d="M410.85 246.248C411.858 246.266 412.569 246.709 413.635 246.651C413.95 246.629 414.227 246.428 414.531 246.395C415.745 246.275 417.205 246.479 418.113 245.351C419.209 243.994 418.418 239.66 416.86 239.127C414.87 238.454 412.103 240.147 410.106 238.533C408.445 237.189 408.139 235.317 408.389 233.266C408.57 231.827 409.256 230.074 409.472 228.592C409.655 227.378 409.314 226.087 409.954 224.948C411.131 224.356 412.166 224.543 413.334 224.455C414.144 224.387 415.056 223.998 415.997 224.271C417.073 224.829 420.735 224.572 420.506 226.378C420.456 226.79 420.319 226.863 419.997 227.063C419.24 227.515 417.6 226.766 416.786 226.666C415.839 226.55 413.096 226.507 412.613 227.373C412.311 227.921 412.514 228.456 412.402 229C412.063 230.768 411.08 233.765 411.259 235.464C411.301 235.824 411.657 236.724 411.967 236.814C413.301 236.52 415.307 236.488 416.676 236.722C417.221 236.811 418.835 237.649 419.303 237.993C420.01 238.525 421.38 241.246 421.591 242.14C421.907 243.474 421.832 244.513 421.355 245.794C420.489 248.123 418.869 248.854 416.472 249.128C415.47 249.245 414.48 249.059 413.53 249.01C413.317 249.002 413.097 249.195 412.918 249.187C412.582 249.174 411.648 248.711 411.333 248.474C410.364 247.763 410.372 247.293 410.828 246.247" fill="black"/>
<path d="M303.388 186.87C303.227 186.684 301.761 187.488 301.375 187.618C300.307 187.979 300.082 187.455 299.215 188.664C298.112 190.211 297.367 192.578 297.448 194.486C297.506 195.833 298.351 199.082 299.816 199.421C300.172 199.502 301.164 199.049 301.373 198.867C301.792 198.491 302.897 196.911 303.155 196.339C304.519 193.323 304.227 189.984 303.376 186.881M300.473 183.258C302.843 182.837 302.78 184.123 304.057 184.981C304.319 185.159 304.678 185.129 304.929 185.307C306.214 186.221 306.823 188.083 307.066 189.582C307.562 192.582 306.972 195.584 305.531 198.282C304.453 200.301 302.712 202.102 300.268 202.139C298.262 202.16 295.419 198.73 294.842 196.892C294.008 194.226 294.709 190.4 296.005 187.964C296.647 186.757 299.176 183.486 300.473 183.258Z" fill="black"/>
<path d="M422.95 190.746L416.147 191.382C415.623 192.705 415.851 194.025 415.686 195.352C415.183 199.511 414.703 203.122 414.587 207.43C414.556 208.213 415.053 208.95 414.224 209.78C412.905 210.276 412.466 209.485 411.936 208.445C411.293 207.153 411.048 204.32 411.23 202.848C411.563 200.117 411.786 197.325 412.153 194.606C412.249 193.881 412.754 193.016 412.544 192.101C411.497 192.238 410.67 191.891 409.748 191.698C409.126 191.561 407.807 191.497 407.313 190.962C407.098 190.718 406.804 189.675 406.458 189.348C407.393 188.119 409.302 188.845 410.76 188.792C411.501 188.765 412.178 188.355 412.977 188.566C413.192 186.536 412.34 182.625 415.426 184.463C417.243 185.544 415.641 187.765 416.703 188.121C417.278 188.312 417.731 187.894 418.121 187.943C418.3 187.961 418.515 188.194 418.76 188.215C420.458 188.35 423.258 188.372 422.939 190.746" fill="black"/>
<path d="M288.665 233.951C290.881 234.869 292.887 236.237 295.017 237.331C295.665 237.659 298.056 238.382 298.19 238.947C298.335 239.547 297.956 240.339 297.378 240.495C296.529 240.718 294.315 239.767 293.563 239.244C291.823 238.771 290.164 237.383 288.553 236.759C288.2 236.621 288.06 236.481 287.786 236.885C287.251 237.659 287.073 239.321 286.633 240.222C286.736 240.731 290.34 242.51 291.061 242.976C291.4 243.191 291.554 243.545 291.805 243.712C292.165 243.95 293.107 243.909 292.944 244.631C291.718 246.991 289.764 244.874 288.351 244.067C287.979 243.85 287.544 243.788 287.282 243.632C286.494 243.163 283.54 241.387 283.377 240.686C283.282 239.988 283.931 239.453 284.179 238.836C284.491 238.053 285.352 235.566 285.368 234.884C285.398 233.563 285.778 231.909 286.138 230.478C286.566 228.725 287.128 226.999 287.568 225.247L288.011 224.805C289.801 224.585 291.064 225.218 290.117 227.063C290.764 227.974 292.006 227.743 292.883 227.935C294.36 228.252 297.345 228.987 298.579 229.787C299.18 230.17 299.914 231.42 299.089 231.891C298.034 232.499 295.567 230.866 294.253 230.656C292.817 230.431 290.799 231.023 289.847 229.887C289.221 229.862 288.433 233.314 288.665 233.962" fill="black"/>
<path d="M274.238 112.877L278.667 112.493L279.267 112.058L281.436 103.215C279.084 105.161 276.311 108.366 274.826 111.063C274.5 111.644 274.017 111.949 274.238 112.877ZM284.76 111.717C286.411 111.604 287.495 112.521 289.124 112.956C290.089 113.207 288.922 115.222 287.96 115.464C286.828 115.744 285.23 115.097 284.056 116.137C283.081 117.005 283.651 118.149 283.416 119.26C283.003 121.181 282.506 123.548 282.029 125.389C281.038 129.147 280.339 132.066 276.208 128.898C276.295 124.756 278.233 120.834 278.286 116.702L271.433 117.19C270.343 119.219 269.001 121.137 267.824 123.107C266.983 124.519 266.608 127.473 264.068 126.553C263.526 126.364 263.131 125.328 262.24 125.472C261.915 125.179 262.88 122.909 263.114 122.37C263.963 120.477 266.042 117.524 266.573 115.719C266.755 115.098 266.08 114.321 266.398 113.381C266.601 112.784 268.117 112.419 268.788 111.595C271.557 108.198 273.507 103.694 276.831 100.119C278.751 98.0665 282.679 94.8064 285.346 97.3217C287.948 99.7672 284.78 108.402 284.771 111.707" fill="black"/>
<path d="M273.767 242.195C274.058 241.927 274.565 240.748 274.717 240.295C275.401 238.317 275.584 236.834 275.296 234.772C275.009 232.699 274.46 231.042 272.858 229.633L270.225 228.8L269.095 242.782C269.317 243.676 271.863 243.318 272.617 242.945C272.8 242.851 273.014 242.557 273.245 242.376C273.395 242.27 273.663 242.292 273.767 242.195ZM267.846 226.363C268.763 226.131 269.428 226.583 270.162 226.714C270.618 226.799 271.104 226.684 271.592 226.816C271.814 226.869 274.565 228.111 274.696 228.217C274.935 228.394 274.961 228.866 275.242 229.135C275.489 229.391 275.867 229.473 276.241 229.925C276.593 230.354 277.153 231.474 277.356 232.02C278.193 234.339 278.346 237.516 277.77 239.879C277.313 241.777 276.204 244.298 274.325 245.074C273.06 245.595 270.452 245.827 269.128 245.595C268.56 245.505 265.631 244.223 265.525 243.804C265.216 242.559 265.911 242.542 266.327 241.943C266.399 241.834 266.557 239.846 266.584 239.444C266.802 235.957 266.926 232.287 267.288 228.817C267.323 228.516 267.637 228.237 267.591 227.978C267.547 227.685 266.929 227.447 267.068 227.049C267.118 226.917 267.699 226.402 267.868 226.364" fill="black"/>
<path d="M460.322 43.8125C460.893 43.8352 461.511 43.7815 462.064 43.9717C462.827 44.2262 468.339 46.7543 468.597 47.0111C469.501 47.9547 470.161 50.782 468.171 50.9602C464.73 51.2709 458.036 43.5531 456.436 51.354C455.866 54.121 459.593 56.7458 461.304 58.7748C462.203 59.8303 462.941 60.9913 463.751 62.0432C464.912 63.546 465.799 63.7719 465.14 66.244C464.692 67.6378 461.884 66.9766 460.988 66.123C460.524 65.6787 460.441 64.9695 460.023 64.4935C457.977 62.1486 455.762 59.8082 453.471 57.7001L451.157 64.5986C451.199 64.9476 454.087 69.4996 454.534 70.0665C455.261 70.9581 456.496 71.4556 456.867 71.9746C456.942 72.0672 457.021 73.9974 457.019 74.3335C457.024 74.7706 456.939 75.2265 456.944 75.6637L453.064 75.4639L447.582 67.4136C444.424 65.9878 446.662 63.2315 447.467 60.7541C447.812 59.6923 447.978 58.3545 448.343 57.3384C449.072 55.3508 452.955 47.6187 452.891 46.4285C452.856 45.8893 452.33 45.3305 452.437 44.8755C452.639 44.0433 454.312 43.6508 454.839 43.0892C455.986 41.8579 457.497 37.9857 458.586 36.2367C459.627 34.5753 461.027 32.9059 462.153 31.3712C463.385 31.0843 466.588 31.6716 466.511 33.3267C466.491 33.8188 464.102 37.5438 463.587 38.3747C462.45 40.1891 460.871 41.5713 460.3 43.8227" fill="black"/>
<path d="M236.432 115.03C239.46 112.698 245.52 107.674 245.28 103.597C244.925 97.6118 237.714 95.8448 233.938 100.041C234.422 105.035 236.199 109.912 236.443 115.019M236.812 119.807C236.268 121.936 236.417 124.104 236.508 126.293C236.531 126.843 236.948 127.341 236.96 127.891C237.047 130.191 237.39 133.958 234.37 133.837C231.707 133.731 232.373 131.931 232.146 130.32C231.797 127.852 231.991 126.359 231.871 124.024C231.677 120.184 229.904 116.898 231.27 112.998L228.722 97.6927C228.914 96.524 232.215 94.9418 233.417 94.5864C238.223 93.1875 244.923 94.3067 247.805 98.7352C251.151 103.866 249.162 109.343 245.397 113.573C243.297 115.943 239.879 119.044 236.801 119.818" fill="black"/>
<path d="M303.193 56.9188C303.88 57.6633 300.935 61.2652 306.961 60.7329C309.84 60.4782 310.666 58.5954 311.075 55.9117C311.468 53.3842 310.457 46.7113 309.873 43.9319C309.629 42.7681 308.854 39.1633 307.781 38.8067C305.272 37.967 300.364 39.6644 299.648 42.4478C299.183 44.2555 299.154 49.1951 299.194 51.2805C299.228 52.9512 300.037 54.8657 299.524 56.7722L303.181 56.9184L303.193 56.9188ZM313.324 62.9926C312.685 63.5832 309.851 64.4111 308.907 64.4854C305.446 64.7393 303.043 63.198 300.582 63.0997C299.239 63.0461 298.685 64.3123 296.677 62.686C294.528 60.9421 295.022 58.1161 294.845 55.8123C294.458 50.9233 293.827 47.0889 294.863 42.1783C295 41.5564 294.849 40.8669 295.022 40.168C295.314 39.0369 297.524 36.9853 298.569 36.366C301.884 34.4146 310.07 34.2375 312.611 37.3751C312.867 37.6991 314.588 42.014 314.657 42.5433C315.209 46.6547 316.326 52.6372 315.752 56.6363C315.66 57.2488 315.208 59.0345 315.004 59.6538C314.761 60.3947 313.778 62.5738 313.302 63.0029" fill="black"/>
<path d="M376.527 229.225C376.12 229.32 375.747 229.955 375.553 230.328C374.507 232.382 374.089 235.547 374.211 237.837C374.271 238.859 375.157 240.788 376.325 240.734C379.266 239.473 379.636 234.973 379.481 232.11C379.385 230.313 378.575 228.724 376.516 229.224M373.237 241.731C373.13 241.614 373.164 241.336 373.057 241.208C372.136 240.129 371.424 238.891 371.292 237.418C371.083 235.079 372.146 229.8 373.599 227.909C374.426 226.833 375.221 226.304 376.6 226.55C377.223 226.653 379.692 227.67 380.239 228.017C381.222 228.65 382.154 230.278 382.411 231.42C382.914 233.681 382.375 237.346 381.417 239.469C381.158 240.053 379.528 242.43 379.056 242.759C378.653 243.034 376.709 243.46 376.24 243.408C375.961 243.374 375.213 243.042 374.928 242.885C374.741 242.788 373.313 241.812 373.249 241.731" fill="black"/>
<path d="M286.051 200.323C286.148 200.427 286.442 200.338 286.517 200.431C287.076 201.036 286.651 202.397 285.757 202.35C284.65 202.294 282.319 199.793 281.594 198.867C279.111 195.676 276.819 191.069 277.702 186.926C278.13 184.893 280.656 181.677 282.519 180.755C284.68 179.676 285.815 180.136 287.312 181.932C288.21 183.01 290.379 186.222 290.867 187.463C291.387 188.75 291.216 189.65 290.03 190.466C288.026 190.15 288.467 189.193 287.89 187.938C287.334 186.717 286.051 184.626 285.172 183.628C283.682 181.933 281.541 185.6 281.032 186.857C280.92 187.133 280.538 188.283 280.53 188.473C280.519 188.764 280.776 189.054 280.797 189.369C281.115 194.031 282.697 195.371 285.291 198.869C285.535 199.204 285.889 200.159 286.051 200.323Z" fill="black"/>
<path d="M342.743 193.166C341.611 193.457 340.273 191.88 340.18 190.856C340.101 190.024 340.402 189.207 340.146 188.323C339.772 187.042 338.109 185.474 337.498 184.229C336.672 183.299 335.092 183.584 334.381 184.564C334.037 185.043 333.677 186.216 333.597 186.795C333.562 187.108 333.799 187.364 333.81 187.644C333.819 189.952 334.582 197.209 336.077 198.77C336.184 198.887 336.543 198.867 336.757 199.122C337.131 199.574 337.411 200.706 336.664 200.889C335.137 201.265 333.497 199.395 332.84 198.193C331.013 194.848 331.036 191.174 330.857 187.515C330.813 186.651 330.506 185.932 330.662 184.83C331.202 180.84 336.45 179.896 339.208 182.37C339.824 182.921 341.211 184.948 341.717 185.742C342.477 186.915 343.449 188.388 343.192 189.778C343.554 190.801 343.01 192.09 342.754 193.155" fill="black"/>
<path d="M356.674 240.822C357.366 240.592 358.116 241.182 358.574 241.201C358.876 241.213 359.167 240.944 359.47 240.934C361.33 240.919 366.099 240.728 363.482 243.436C362.505 243.498 361.526 243.313 360.561 243.353C360.213 243.361 359.867 243.605 359.386 243.608C356.998 243.636 353.675 243.515 352.852 240.86C354.987 238.167 358.141 234.943 357.963 231.261C357.919 230.408 357.642 228.918 357.419 228.058C357.361 227.831 357.237 227.266 357.059 227.237C356.191 227.09 355.354 227.292 354.547 227.584C354.24 227.695 352.259 228.759 352.177 228.857C352 229.074 351.995 230.328 351.314 230.559C349.136 229.811 348.756 227.566 350.769 226.257C351.343 225.888 353.906 224.836 354.514 224.771C355.549 224.667 357.929 224.829 358.78 225.39C360.363 226.428 360.885 230.47 360.746 232.269C360.475 235.686 358.693 238.225 356.684 240.834" fill="black"/>
<path d="M241.14 199.413C241.785 200.111 243.958 201.24 244.923 201.749C245.362 201.979 246.988 202.515 247.161 202.678C247.452 202.959 246.894 204.292 246.33 204.393C244.08 203.788 242.129 202.701 240.121 201.646C238.801 200.193 237.287 198.833 236.613 196.924C235.736 194.458 235.164 191.388 235.617 188.75C235.896 187.092 238.365 183.617 240.109 183.451C240.66 183.395 241.901 183.456 242.422 183.589C244.296 184.089 247.482 186.502 248.652 188.072C249.003 188.535 249.687 189.649 249.743 190.189C249.887 191.64 249.776 192.744 248.08 192.296C246.727 191.939 246.891 190.064 246.21 188.905C245.349 187.459 242.749 185.495 241.027 185.986C239.848 186.32 238.534 188.654 238.276 189.787C237.906 191.464 239.095 196.194 240.008 197.743C240.155 197.995 241.033 199.285 241.141 199.402" fill="black"/>
<path d="M310.701 120.192C310.34 120.525 309.844 122.017 308.964 122.43L308.948 122.844C310.488 126.917 313.729 129.377 318.024 127.307C320.366 126.18 320.903 123.669 324.34 124.288C327.354 124.834 324.335 128.333 323.078 129.515C322.485 130.062 321.568 129.723 321.644 130.925C317.931 132.155 313.954 132.422 310.35 130.653C306.669 128.848 305.64 126.566 303.748 123.152C302.945 119.983 307.83 117.187 309.785 115.08C313.132 111.494 316.373 106.38 315.481 101.225C314.981 98.3143 312.091 98.5797 309.854 99.3195C307.617 100.059 306.924 102.003 304.413 100.357C300.329 97.6841 307.223 95.069 309.796 94.8917C312.47 94.6961 315.879 95.7285 318.01 97.3709C318.52 97.7723 320.219 100.686 320.283 101.316C320.508 103.554 319.945 107.812 319.165 109.954C318.901 110.672 315.682 116.1 315.214 116.585C314.162 117.697 311.726 119.213 310.702 120.158" fill="black"/>
<path d="M395.385 240.889C396.315 240.882 397.262 241.032 398.193 241.002C398.507 240.992 398.785 240.756 399.088 240.746C400.402 240.675 401.663 240.793 402.077 242.199L401.321 243.177C399.345 243.288 397.415 243.928 395.424 243.569C394.234 243.353 392.006 241.337 392.159 240.043C392.69 238.25 393.543 236.514 394.096 234.732C394.2 234.389 394.147 234.017 394.262 233.674C395.033 231.195 396.148 228.798 395.986 226.136C394.382 225.904 392.688 226.239 391.91 227.766C390.641 228.107 388.805 226.689 389.224 225.44C389.274 225.308 391.045 224.168 391.342 224.035C393.052 223.296 396.664 223.452 398.225 224.489C399.306 225.204 398.887 225.871 398.909 226.992C398.96 229.941 397.741 232.671 396.853 235.548C396.635 236.256 396.396 236.908 396.178 237.594C395.832 238.667 395.341 239.745 395.396 240.901" fill="black"/>
<path d="M344.503 121.369C343.133 122.558 341.615 124.11 340.25 125.736C339.885 126.181 339.514 126.222 339.672 127.024L345.636 128.338C348.213 127.5 350.557 124.624 352.705 127.802C350.819 130.965 348.141 132.393 344.439 131.954C342.365 131.703 337.508 130.444 335.943 129.228C335.563 128.932 334.004 127.29 333.959 127.009C335.447 122.575 339.737 119.789 342.16 115.785C343.792 113.083 345.546 107.596 345.313 104.461C345.282 104.102 344.871 102.629 344.57 102.583C342.099 102.171 338.105 102.605 336.646 104.899C336.061 105.817 336.111 107.354 334.911 107.956C330.338 106.877 330.935 103.147 334.185 100.6C337.967 97.6361 341.78 98.091 346.223 99.0751C352.258 101.691 349.9 111.064 347.738 115.84C347.406 116.555 344.793 121.123 344.514 121.369" fill="black"/>
<path d="M599.483 34.2037C599.539 34.7661 599.538 35.371 599.37 35.9245C598.518 38.7362 595.41 43.0599 594.049 45.9968C590.996 52.597 589.143 59.7045 587.217 66.697C587.987 66.7837 588.81 66.6486 589.566 66.7908C592.112 67.2735 594.814 67.7847 597.377 68.1448C599.817 68.4775 602.355 67.481 603.27 70.6769L601.876 72.4698C600.511 72.4153 599.073 72.5259 597.712 72.3707C596.853 72.2804 596.278 71.8205 595.664 71.7511C592.152 71.3195 586.351 71.2671 583.27 69.5867C579.871 67.7255 582.271 65.1438 583.105 62.4994C585.12 56.093 586.529 49.4272 589.467 43.1921C591.059 39.7939 593.402 36.6832 594.83 33.1776C596.778 32.3703 597.898 33.5018 599.506 34.2046" fill="black"/>
<path d="M313.442 242.066C313.518 242.965 313.447 243.623 312.6 244.071C311.265 243.558 309.682 243.081 308.565 242.162C307.816 241.55 306.553 239.807 306.241 238.91C305.155 235.819 304.814 231.727 305.421 228.581C305.507 228.125 305.361 227.582 305.513 227.14C305.767 226.377 307.875 225.497 308.633 225.595C308.934 225.629 309.204 225.887 309.515 225.944C310.807 226.152 311.633 226.208 312.887 226.807C314.404 227.54 317.635 230.223 317.418 232.018C317.37 232.375 316.597 233.207 316.28 233.283C315.918 233.37 314.435 232.638 314.267 232.352C314.057 232.007 314.185 231.329 313.861 230.733C313.184 229.451 310.498 227.977 309.141 228.304C308.768 228.39 308.377 229.752 308.315 230.176C308.055 231.935 308.531 235.988 309.032 237.755C309.572 239.67 311.428 241.716 313.453 242.066" fill="black"/>
<path d="M380.397 38.5246L388.613 41.5193C388.902 47.1886 385.563 43.2684 383.104 42.8229C382.203 42.6637 379.388 42.4504 378.878 43.1583C377.833 46.8809 376.172 50.3325 374.653 53.8681C374.109 55.1348 373.559 55.9979 373.09 57.0771C372.425 58.5966 370.029 65.548 369.045 65.7888C367.201 66.2416 366.723 65.0238 365.216 64.6162L373.955 42.4462C372.431 42.1613 371.605 41.8034 370.05 42.3126C367.507 41.1803 362.364 41.7591 363.149 37.8244C365.185 36.7742 366.521 37.8358 368.116 38.0116C370.514 38.2755 372.862 37.8427 375.153 38.8193L378.661 29.246C380.037 28.7407 382.92 28.9343 383.314 30.5634C383.603 31.7513 381.159 37.121 380.409 38.5027" fill="black"/>
<path d="M525.886 41.719C525.439 37.2085 529.298 35.9622 531.704 39.6547L531.142 41.4024C532.045 41.2256 532.723 41.9137 533.481 42.0224C535.943 42.3784 539.484 41.5004 541.292 43.3764C542.647 44.775 541.756 46.3415 540.125 46.5004C536.728 46.8352 533.254 45.7329 529.945 45.5671C528.28 52.1891 526.581 58.8098 524.849 65.4291C524.281 67.58 524.024 68.9813 523.579 71.1482C522.898 74.4485 520.985 73.8007 518.622 72.3843C518.253 71.8094 518.403 69.7315 518.502 68.9288C519.321 62.4522 522.816 54.3348 524.079 47.6855C524.192 47.0963 524.095 46.4538 524.152 45.8623C520.88 45.8772 516.596 45.706 517.518 41.4071L525.885 41.7414L525.886 41.719Z" fill="black"/>
<path d="M101.273 36.3047L101.738 38.396C101.996 38.6864 108.107 37.1603 109.363 37.1097C111.237 37.0389 113.281 36.9301 114.299 38.6401C114.752 40.2043 109.836 40.1312 108.83 40.3598C106.604 40.8423 104.435 41.8536 102.128 42.1087C102.019 42.8774 102.122 43.6658 102.012 44.4345C101.476 48.3343 102.038 52.4797 102.081 56.4698C102.142 61.9508 101.245 67.2815 102.955 72.7275C101.837 74.0721 100.009 74.3912 98.7481 73.142C98.3387 72.7336 98.4085 72.1089 98.1709 71.8866C97.9548 71.6875 97.4443 71.8464 97.3038 71.7175C97.0872 71.5296 97.3986 70.4665 97.3189 69.9368C97.2303 69.3506 96.8593 68.8204 96.8347 68.3153C96.7944 67.3614 97.5487 66.7081 97.5084 65.7542C97.3615 62.1408 96.8199 58.3099 96.851 54.726C96.8817 51.1533 97.2721 47.5501 97.3028 43.9774L87.0174 45.6728L84.1954 44.2381C84.2315 41.3714 87.3434 42.28 89.1595 41.9716C90.5917 41.7375 96.5304 40.5967 96.912 39.458C97.2815 38.3412 96.5033 36.7864 97.9167 36.1819L101.262 36.2931L101.273 36.3047Z" fill="black"/>
<path d="M267.632 37.762C272.461 36.913 276.852 41.7043 279.568 45.2187C282.167 48.5827 283.391 51.8919 282.025 56.0834L280.936 56.9698L278.569 56.2143L278.133 55.6143C279.156 49.3699 274.312 45.5465 270.497 41.484C269.454 41.2183 266.193 44.3147 265.408 45.1796C263.206 47.59 262.265 48.9753 262.52 52.4025C262.714 55.1327 266.428 63.6838 268.25 65.7508C269.365 67.0165 271.56 68.1574 272.557 69.8329C273.061 70.1331 272.172 70.7922 271.968 70.8401C265.803 72.3192 261.078 61.8568 259.424 57.2756C258.406 54.4453 257.43 51.1124 258.064 48.1352C258.918 44.136 264.117 39.6494 267.632 37.762Z" fill="black"/>
<path d="M393.674 205.844C393.272 205.827 392.776 205.897 392.4 205.77C392.344 205.757 391.438 205.172 391.395 205.136C390.578 204.252 391.844 202.308 392.089 201.22C393.308 195.947 394.539 191.201 396.291 186.062C397.001 183.984 397.8 184.184 399.388 185.379C400.013 187.398 398.754 188.894 398.183 190.574C396.91 194.388 396.304 198.353 395.244 202.175C394.89 203.461 394.093 204.605 393.663 205.843" fill="black"/>
<path d="M461.186 175.189C460.359 175.974 459.818 176.344 459.008 176.973C458.442 177.41 457.64 178.397 456.965 178.482C456.368 178.559 454.639 176.967 454.871 176.203C454.958 175.444 455.802 175.333 456.277 174.937C458.815 172.831 460.94 171.247 463.723 169.453C464.39 169.021 464.721 168.306 465.699 168.21C466.982 168.082 468.397 169.125 467.697 170.374C467.419 170.867 466.557 171.146 466.163 171.478C464.667 172.729 462.349 174.104 461.197 175.19" fill="black"/>
<path d="M388.242 66.0411L387.817 63.7946C389.512 60.9045 391.165 57.9456 392.904 55.0798C395.062 51.536 398.081 47.7578 399.843 44.0414C400.748 42.1393 400.546 39.0726 403.669 39.4215C404.918 39.561 406.124 40.5055 405.945 41.8988C405.847 42.6567 404.477 46.1087 404.051 46.9655C402.196 50.7567 398.704 55.1546 396.415 58.8836C395.193 60.885 394.178 63.5781 392.861 65.4077C391.295 67.5971 390.421 66.4642 388.243 66.0299" fill="black"/>
<path d="M410.019 13.0436C411.219 12.7442 414.653 13.4304 414.312 14.9517C414.188 15.5293 412.964 16.724 412.555 17.4359C411.844 18.6959 409.829 23.6906 408.958 23.9135C407.633 24.2527 406.196 23.2094 405.372 22.2354L405.221 21.5347C405.578 19.8908 408.514 13.4204 410.008 13.0432" fill="black"/>
<path d="M399.124 170.625C400.433 170.397 401.917 171.118 402.395 172.335C402.043 172.994 401.353 172.899 400.905 173.161C400.538 173.37 400.176 174.028 399.802 174.125C397.731 174.648 396.924 171.019 399.135 170.626" fill="black"/>
<path d="M336.682 237.668C336.765 238.378 336.632 239.47 335.84 239.663C333.713 240.183 332.122 237.374 334.847 237.035C335.636 236.932 335.825 237.802 336.682 237.668Z" fill="black"/>
<line x1="695" y1="35.6016" x2="2904.37" y2="35.6016" stroke="black"/>
</svg>
